999
dxfrw 0.6.3
  0
SECTION
  2
HEADER
  9
$ACADVER
  1
AC1021
  9
$DWGCODEPAGE
  3
ANSI_1252
  9
$INSBASE
 10
0
 20
0
 30
0
  9
$EXTMIN
 10
-2.7
 20
-16.13333333333333
 30
0
  9
$EXTMAX
 10
37.7
 20
29.8
 30
0
  9
$LIMMIN
 10
0
 20
0
  9
$LIMMAX
 10
420
 20
297
  9
$ORTHOMODE
 70
    0
  9
$REGENMODE
 70
    1
  9
$FILLMODE
 70
    1
  9
$QTEXTMODE
 70
    0
  9
$MIRRTEXT
 70
    0
  9
$LTSCALE
 40
1
  9
$ATTMODE
 70
    0
  9
$TEXTSIZE
 40
2.5
  9
$TRACEWID
 40
15.68
  9
$TEXTSTYLE
  7
STANDARD
  9
$CLAYER
  8
0
  9
$CELTYPE
  6
BYLAYER
  9
$CECOLOR
 62
  256
  9
$CELTSCALE
 40
1
  9
$DISPSILH
 70
    0
  9
$DIMSCALE
 40
1
  9
$DIMASZ
 40
0.2
  9
$DIMEXO
 40
0.2
  9
$DIMDLI
 40
3.75
  9
$DIMRND
 40
0
  9
$DIMDLE
 40
0
  9
$DIMEXE
 40
0.4
  9
$DIMTP
 40
0
  9
$DIMTM
 40
0
  9
$DIMTXT
 40
0.2
  9
$DIMCEN
 40
2.5
  9
$DIMTSZ
 40
0
  9
$DIMTOL
 70
    0
  9
$DIMLIM
 70
    0
  9
$DIMTIH
 70
    0
  9
$DIMTOH
 70
    0
  9
$DIMSE1
 70
    0
  9
$DIMSE2
 70
    0
  9
$DIMTAD
 70
    1
  9
$DIMZIN
 70
    1
  9
$DIMBLK
  1

  9
$DIMASO
 70
    1
  9
$DIMSHO
 70
    1
  9
$DIMPOST
  1

  9
$DIMAPOST
  1

  9
$DIMALT
 70
    0
  9
$DIMALTD
 70
    3
  9
$DIMALTF
 40
0.03937
  9
$DIMLFAC
 40
10
  9
$DIMTOFL
 70
    1
  9
$DIMTVP
 40
0
  9
$DIMTIX
 70
    0
  9
$DIMSOXD
 70
    0
  9
$DIMSAH
 70
    0
  9
$DIMBLK1
  1

  9
$DIMBLK2
  1

  9
$DIMSTYLE
  2
STANDARD
  9
$DIMCLRD
 70
    0
  9
$DIMCLRE
 70
    0
  9
$DIMCLRT
 70
    0
  9
$DIMTFAC
 40
1
  9
$DIMGAP
 40
0.1
  9
$DIMJUST
 70
    0
  9
$DIMSD1
 70
    0
  9
$DIMSD2
 70
    0
  9
$DIMTOLJ
 70
    0
  9
$DIMTZIN
 70
    8
  9
$DIMALTZ
 70
    0
  9
$DIMALTTZ
 70
    0
  9
$DIMUPT
 70
    0
  9
$DIMDEC
 70
    0
  9
$DIMTDEC
 70
    2
  9
$DIMALTU
 70
    2
  9
$DIMALTTD
 70
    3
  9
$DIMTXSTY
  7
standard
  9
$DIMAUNIT
 70
    0
  9
$DIMADEC
 70
    0
  9
$DIMALTRND
 40
0
  9
$DIMAZIN
 70
    0
  9
$DIMDSEP
 70
    0
  9
$DIMATFIT
 70
    3
  9
$DIMFRAC
 70
    0
  9
$DIMLDRBLK
  1
STANDARD
  9
$DIMLUNIT
 70
    2
  9
$DIMLWD
 70
   -2
  9
$DIMLWE
 70
   -2
  9
$DIMTMOVE
 70
    0
  9
$DIMFXL
 40
1
  9
$DIMFXLON
 70
    0
  9
$DIMJOGANG
 40
0.7854
  9
$DIMTFILL
 70
    0
  9
$DIMTFILLCLR
 70
    0
  9
$DIMARCSYM
 70
    0
  9
$DIMLTYPE
  6

  9
$DIMLTEX1
  6

  9
$DIMLTEX2
  6

  9
$LUNITS
 70
    2
  9
$LUPREC
 70
    4
  9
$SKETCHINC
 40
1
  9
$FILLETRAD
 40
0
  9
$AUNITS
 70
    0
  9
$AUPREC
 70
    2
  9
$MENU
  1
.
  9
$ELEVATION
 40
0
  9
$PELEVATION
 40
0
  9
$THICKNESS
 40
0
  9
$LIMCHECK
 70
    0
  9
$CHAMFERA
 40
0
  9
$CHAMFERB
 40
0
  9
$CHAMFERC
 40
0
  9
$CHAMFERD
 40
0
  9
$SKPOLY
 70
    0
  9
$USRTIMER
 70
    1
  9
$ANGBASE
 50
0
  9
$ANGDIR
 70
    0
  9
$PDMODE
 70
   34
  9
$PDSIZE
 40
0
  9
$PLINEWID
 40
0
  9
$SPLFRAME
 70
    0
  9
$SPLINETYPE
 70
    2
  9
$SPLINESEGS
 70
    8
  9
$HANDSEED
  5
20000
  9
$SURFTAB1
 70
    6
  9
$SURFTAB2
 70
    6
  9
$SURFTYPE
 70
    6
  9
$SURFU
 70
    6
  9
$SURFV
 70
    6
  9
$UCSBASE
  2

  9
$UCSNAME
  2

  9
$UCSORG
 10
0
 20
0
 30
0
  9
$UCSXDIR
 10
1
 20
0
 30
0
  9
$UCSYDIR
 10
0
 20
1
 30
0
  9
$UCSORTHOREF
  2

  9
$UCSORTHOVIEW
 70
    0
  9
$UCSORGTOP
 10
0
 20
0
 30
0
  9
$UCSORGBOTTOM
 10
0
 20
0
 30
0
  9
$UCSORGLEFT
 10
0
 20
0
 30
0
  9
$UCSORGRIGHT
 10
0
 20
0
 30
0
  9
$UCSORGFRONT
 10
0
 20
0
 30
0
  9
$UCSORGBACK
 10
0
 20
0
 30
0
  9
$PUCSBASE
  2

  9
$PUCSNAME
  2

  9
$PUCSORG
 10
0
 20
0
 30
0
  9
$PUCSXDIR
 10
1
 20
0
 30
0
  9
$PUCSYDIR
 10
0
 20
1
 30
0
  9
$PUCSORTHOREF
  2

  9
$PUCSORTHOVIEW
 70
    0
  9
$PUCSORGTOP
 10
0
 20
0
 30
0
  9
$PUCSORGBOTTOM
 10
0
 20
0
 30
0
  9
$PUCSORGLEFT
 10
0
 20
0
 30
0
  9
$PUCSORGRIGHT
 10
0
 20
0
 30
0
  9
$PUCSORGFRONT
 10
0
 20
0
 30
0
  9
$PUCSORGBACK
 10
0
 20
0
 30
0
  9
$USERI1
 70
    0
  9
$USERI2
 70
    0
  9
$USERI3
 70
    0
  9
$USERI4
 70
    0
  9
$USERI5
 70
    0
  9
$USERR1
 40
0
  9
$USERR2
 40
0
  9
$USERR3
 40
0
  9
$USERR4
 40
0
  9
$USERR5
 40
0
  9
$WORLDVIEW
 70
    1
  9
$SHADEDGE
 70
    3
  9
$SHADEDIF
 70
   70
  9
$TILEMODE
 70
    1
  9
$MAXACTVP
 70
   64
  9
$PINSBASE
 10
0
 20
0
 30
0
  9
$PLIMCHECK
 70
    0
  9
$PEXTMIN
 10
0
 20
0
 30
0
  9
$PEXTMAX
 10
0
 20
0
 30
0
  9
$GRIDMODE
 70
    1
  9
$SNAPSTYLE
 70
    0
  9
$GRIDUNIT
 10
0
 20
0
  9
$PLIMMIN
 10
0
 20
0
  9
$PLIMMAX
 10
29.7
 20
21
  9
$UNITMODE
 70
    0
  9
$VISRETAIN
 70
    1
  9
$PLINEGEN
 70
    0
  9
$PSLTSCALE
 70
    1
  9
$TREEDEPTH
 70
 3020
  9
$CMLSTYLE
  2
Standard
  9
$CMLJUST
 70
    0
  9
$CMLSCALE
 40
20
  9
$PROXYGRAPHICS
 70
    1
  9
$MEASUREMENT
 70
    1
  9
$CELWEIGHT
370
   -1
  9
$ENDCAPS
280
    0
  9
$JOINSTYLE
280
    0
  9
$LWDISPLAY
290
    0
  9
$INSUNITS
 70
    5
  9
$HYPERLINKBASE
  1

  9
$STYLESHEET
  1

  9
$XEDIT
290
    1
  9
$CEPSNTYPE
380
    0
  9
$PSTYLEMODE
290
    1
  9
$EXTNAMES
290
    1
  9
$PSVPSCALE
 40
0.4579215855076976
  9
$OLESTARTUP
290
    0
  9
$SORTENTS
280
  127
  9
$INDEXCTL
280
    0
  9
$HIDETEXT
280
    1
  9
$XCLIPFRAME
290
    0
  9
$HALOGAP
280
    0
  9
$OBSCOLOR
 70
  257
  9
$OBSLTYPE
280
    0
  9
$INTERSECTIONDISPLAY
280
    0
  9
$INTERSECTIONCOLOR
 70
  257
  9
$DIMASSOC
280
    1
  9
$PROJECTNAME
  1

  9
$CAMERADISPLAY
290
    0
  9
$LENSLENGTH
 40
50
  9
$CAMERAHEIGHT
 40
0
  9
$STEPSPERSEC
 40
2
  9
$STEPSIZE
 40
50
  9
$3DDWFPREC
 40
2
  9
$PSOLWIDTH
 40
5
  9
$PSOLHEIGHT
 40
80
  9
$LOFTANG1
 40
1.570796326794897
  9
$LOFTANG2
 40
1.570796326794897
  9
$LOFTMAG1
 40
0
  9
$LOFTMAG2
 40
0
  9
$LOFTPARAM
 70
    7
  9
$LOFTNORMALS
280
    1
  9
$LATITUDE
 40
1
  9
$LONGITUDE
 40
1
  9
$NORTHDIRECTION
 40
0
  9
$TIMEZONE
 70
-8000
  9
$LIGHTGLYPHDISPLAY
280
    1
  9
$TILEMODELIGHTSYNCH
280
    1
  9
$SOLIDHIST
280
    1
  9
$SHOWHIST
280
    1
  9
$DWFFRAME
280
    2
  9
$DGNFRAME
280
    0
  9
$REALWORLDSCALE
290
    1
  9
$INTERFERECOLOR
 62
    1
  9
$CSHADOW
280
    0
  9
$SHADOWPLANELOCATION
 40
0
  0
ENDSEC
  0
SECTION
  2
CLASSES
  0
ENDSEC
  0
SECTION
  2
TABLES
  0
TABLE
  2
VPORT
  5
8
330
0
100
AcDbSymbolTable
 70
    1
  0
VPORT
  5
31
330
2
100
AcDbSymbolTableRecord
100
AcDbViewportTableRecord
  2
*ACTIVE
 70
    0
 10
0
 20
0
 11
1
 21
1
 12
39.08978081126442
 22
40.43480552735093
 13
0
 23
0
 14
10
 24
10
 15
10
 25
10
 16
0
 26
0
 36
1
 17
0
 27
0
 37
0
 40
137.024392951314
 41
0.7533742331288343
 42
50
 43
0
 44
0
 50
0
 51
0
 71
    0
 72
  100
 73
    1
 74
    3
 75
    0
 76
    1
 77
    0
 78
    0
281
    0
 65
    1
110
0
120
0
130
0
111
1
121
0
131
0
112
0
122
1
132
0
 79
    0
146
0
348
10020
 60
    7
 61
    5
292
1
282
    1
141
0
142
0
 63
  250
421
3358443
  0
ENDTAB
  0
TABLE
  2
LTYPE
  5
5
330
0
100
AcDbSymbolTable
 70
    4
  0
LTYPE
  5
14
330
5
100
AcDbSymbolTableRecord
100
AcDbLinetypeTableRecord
  2
ByBlock
 70
    0
  3

 72
   65
 73
    0
 40
0
  0
LTYPE
  5
15
330
5
100
AcDbSymbolTableRecord
100
AcDbLinetypeTableRecord
  2
ByLayer
 70
    0
  3

 72
   65
 73
    0
 40
0
  0
LTYPE
  5
16
330
5
100
AcDbSymbolTableRecord
100
AcDbLinetypeTableRecord
  2
Continuous
 70
    0
  3
Solid line
 72
   65
 73
    0
 40
0
  0
LTYPE
  5
32
330
5
100
AcDbSymbolTableRecord
100
AcDbLinetypeTableRecord
  2
DOT
 70
    0
  3
Dot . . . . . . . . . . . . . . . . . . . . . .
 72
   65
 73
    2
 40
6.35
 49
0
 74
    0
 49
-6.35
 74
    0
  0
LTYPE
  5
33
330
5
100
AcDbSymbolTableRecord
100
AcDbLinetypeTableRecord
  2
DOTTINY
 70
    0
  3
Dot (.15x) .....................................
 72
   65
 73
    2
 40
0.9525
 49
0
 74
    0
 49
-0.9525
 74
    0
  0
LTYPE
  5
34
330
5
100
AcDbSymbolTableRecord
100
AcDbLinetypeTableRecord
  2
DOT2
 70
    0
  3
Dot (.5x) .....................................
 72
   65
 73
    2
 40
3.175
 49
0
 74
    0
 49
-3.175
 74
    0
  0
LTYPE
  5
35
330
5
100
AcDbSymbolTableRecord
100
AcDbLinetypeTableRecord
  2
DOTX2
 70
    0
  3
Dot (2x) .  .  .  .  .  .  .  .  .  .  .  .  .
 72
   65
 73
    2
 40
12.7
 49
0
 74
    0
 49
-12.7
 74
    0
  0
LTYPE
  5
36
330
5
100
AcDbSymbolTableRecord
100
AcDbLinetypeTableRecord
  2
DASHED
 70
    0
  3
Dashed _ _ _ _ _ _ _ _ _ _ _ _ _ _ _ _ _
 72
   65
 73
    2
 40
19.05
 49
12.7
 74
    0
 49
-6.35
 74
    0
  0
LTYPE
  5
37
330
5
100
AcDbSymbolTableRecord
100
AcDbLinetypeTableRecord
  2
DASHEDTINY
 70
    0
  3
Dashed (.15x) _ _ _ _ _ _ _ _ _ _ _ _ _ _ _ _ _
 72
   65
 73
    2
 40
2.8575
 49
1.905
 74
    0
 49
-0.9525
 74
    0
  0
LTYPE
  5
38
330
5
100
AcDbSymbolTableRecord
100
AcDbLinetypeTableRecord
  2
DASHED2
 70
    0
  3
Dashed (.5x) _ _ _ _ _ _ _ _ _ _ _ _ _ _ _ _ _
 72
   65
 73
    2
 40
9.524999999999999
 49
6.35
 74
    0
 49
-3.175
 74
    0
  0
LTYPE
  5
39
330
5
100
AcDbSymbolTableRecord
100
AcDbLinetypeTableRecord
  2
DASHEDX2
 70
    0
  3
Dashed (2x) ____  ____  ____  ____  ____  ___
 72
   65
 73
    2
 40
38.09999999999999
 49
25.4
 74
    0
 49
-12.7
 74
    0
  0
LTYPE
  5
3A
330
5
100
AcDbSymbolTableRecord
100
AcDbLinetypeTableRecord
  2
DASHDOT
 70
    0
  3
Dash dot __ . __ . __ . __ . __ . __ . __ . __
 72
   65
 73
    4
 40
25.4
 49
12.7
 74
    0
 49
-6.35
 74
    0
 49
0
 74
    0
 49
-6.35
 74
    0
  0
LTYPE
  5
3B
330
5
100
AcDbSymbolTableRecord
100
AcDbLinetypeTableRecord
  2
DASHDOTTINY
 70
    0
  3
Dash dot (.15x) _._._._._._._._._._._._._._._.
 72
   65
 73
    4
 40
3.81
 49
1.905
 74
    0
 49
-0.9525
 74
    0
 49
0
 74
    0
 49
-0.9525
 74
    0
  0
LTYPE
  5
3C
330
5
100
AcDbSymbolTableRecord
100
AcDbLinetypeTableRecord
  2
DASHDOT2
 70
    0
  3
Dash dot (.5x) _._._._._._._._._._._._._._._.
 72
   65
 73
    4
 40
12.7
 49
6.35
 74
    0
 49
-3.175
 74
    0
 49
0
 74
    0
 49
-3.175
 74
    0
  0
LTYPE
  5
3D
330
5
100
AcDbSymbolTableRecord
100
AcDbLinetypeTableRecord
  2
DASHDOTX2
 70
    0
  3
Dash dot (2x) ____  .  ____  .  ____  .  ___
 72
   65
 73
    4
 40
50.8
 49
25.4
 74
    0
 49
-12.7
 74
    0
 49
0
 74
    0
 49
-12.7
 74
    0
  0
LTYPE
  5
3E
330
5
100
AcDbSymbolTableRecord
100
AcDbLinetypeTableRecord
  2
DIVIDE
 70
    0
  3
Divide ____ . . ____ . . ____ . . ____ . . ____
 72
   65
 73
    6
 40
31.75
 49
12.7
 74
    0
 49
-6.35
 74
    0
 49
0
 74
    0
 49
-6.35
 74
    0
 49
0
 74
    0
 49
-6.35
 74
    0
  0
LTYPE
  5
3F
330
5
100
AcDbSymbolTableRecord
100
AcDbLinetypeTableRecord
  2
DIVIDETINY
 70
    0
  3
Divide (.15x) __..__..__..__..__..__..__..__.._
 72
   65
 73
    6
 40
4.7625
 49
1.905
 74
    0
 49
-0.9525
 74
    0
 49
0
 74
    0
 49
-0.9525
 74
    0
 49
0
 74
    0
 49
-0.9525
 74
    0
  0
LTYPE
  5
40
330
5
100
AcDbSymbolTableRecord
100
AcDbLinetypeTableRecord
  2
DIVIDE2
 70
    0
  3
Divide (.5x) __..__..__..__..__..__..__..__.._
 72
   65
 73
    6
 40
15.875
 49
6.35
 74
    0
 49
-3.175
 74
    0
 49
0
 74
    0
 49
-3.175
 74
    0
 49
0
 74
    0
 49
-3.175
 74
    0
  0
LTYPE
  5
41
330
5
100
AcDbSymbolTableRecord
100
AcDbLinetypeTableRecord
  2
DIVIDEX2
 70
    0
  3
Divide (2x) ________  .  .  ________  .  .  _
 72
   65
 73
    6
 40
63.5
 49
25.4
 74
    0
 49
-12.7
 74
    0
 49
0
 74
    0
 49
-12.7
 74
    0
 49
0
 74
    0
 49
-12.7
 74
    0
  0
LTYPE
  5
42
330
5
100
AcDbSymbolTableRecord
100
AcDbLinetypeTableRecord
  2
BORDER
 70
    0
  3
Border __ __ . __ __ . __ __ . __ __ . __ __ .
 72
   65
 73
    6
 40
44.45
 49
12.7
 74
    0
 49
-6.35
 74
    0
 49
12.7
 74
    0
 49
-6.35
 74
    0
 49
0
 74
    0
 49
-6.35
 74
    0
  0
LTYPE
  5
43
330
5
100
AcDbSymbolTableRecord
100
AcDbLinetypeTableRecord
  2
BORDERTINY
 70
    0
  3
Border (.15x) __.__.__.__.__.__.__.__.__.__.__.
 72
   65
 73
    6
 40
6.6675
 49
1.905
 74
    0
 49
-0.9525
 74
    0
 49
1.905
 74
    0
 49
-0.9525
 74
    0
 49
0
 74
    0
 49
-0.9525
 74
    0
  0
LTYPE
  5
44
330
5
100
AcDbSymbolTableRecord
100
AcDbLinetypeTableRecord
  2
BORDER2
 70
    0
  3
Border (.5x) __.__.__.__.__.__.__.__.__.__.__.
 72
   65
 73
    6
 40
22.225
 49
6.35
 74
    0
 49
-3.175
 74
    0
 49
6.35
 74
    0
 49
-3.175
 74
    0
 49
0
 74
    0
 49
-3.175
 74
    0
  0
LTYPE
  5
45
330
5
100
AcDbSymbolTableRecord
100
AcDbLinetypeTableRecord
  2
BORDERX2
 70
    0
  3
Border (2x) ____  ____  .  ____  ____  .  ___
 72
   65
 73
    6
 40
88.89999999999999
 49
25.4
 74
    0
 49
-12.7
 74
    0
 49
25.4
 74
    0
 49
-12.7
 74
    0
 49
0
 74
    0
 49
-12.7
 74
    0
  0
LTYPE
  5
46
330
5
100
AcDbSymbolTableRecord
100
AcDbLinetypeTableRecord
  2
CENTER
 70
    0
  3
Center ____ _ ____ _ ____ _ ____ _ ____ _ ____
 72
   65
 73
    4
 40
50.8
 49
31.75
 74
    0
 49
-6.35
 74
    0
 49
6.35
 74
    0
 49
-6.35
 74
    0
  0
LTYPE
  5
47
330
5
100
AcDbSymbolTableRecord
100
AcDbLinetypeTableRecord
  2
CENTERTINY
 70
    0
  3
Center (.15x) ___ _ ___ _ ___ _ ___ _ ___ _ ___
 72
   65
 73
    4
 40
7.619999999999999
 49
4.7625
 74
    0
 49
-0.9525
 74
    0
 49
0.9525
 74
    0
 49
-0.9525
 74
    0
  0
LTYPE
  5
48
330
5
100
AcDbSymbolTableRecord
100
AcDbLinetypeTableRecord
  2
CENTER2
 70
    0
  3
Center (.5x) ___ _ ___ _ ___ _ ___ _ ___ _ ___
 72
   65
 73
    4
 40
28.575
 49
19.05
 74
    0
 49
-3.175
 74
    0
 49
3.175
 74
    0
 49
-3.175
 74
    0
  0
LTYPE
  5
49
330
5
100
AcDbSymbolTableRecord
100
AcDbLinetypeTableRecord
  2
CENTERX2
 70
    0
  3
Center (2x) ________  __  ________  __  _____
 72
   65
 73
    4
 40
101.6
 49
63.5
 74
    0
 49
-12.7
 74
    0
 49
12.7
 74
    0
 49
-12.7
 74
    0
  0
ENDTAB
  0
TABLE
  2
LAYER
  5
2
330
0
100
AcDbSymbolTable
 70
    1
  0
LAYER
  5
10
330
2
100
AcDbSymbolTableRecord
100
AcDbLayerTableRecord
  2
0
 70
    0
 62
    7
  6
CONTINUOUS
370
    0
390
F
  0
LAYER
  5
4A
330
2
100
AcDbSymbolTableRecord
100
AcDbLayerTableRecord
  2
maße
 70
    0
 62
    7
  6
CONTINUOUS
370
    0
390
F
  0
LAYER
  5
4B
330
2
100
AcDbSymbolTableRecord
100
AcDbLayerTableRecord
  2
text
 70
    0
 62
    7
  6
CONTINUOUS
370
    0
390
F
  0
ENDTAB
  0
TABLE
  2
STYLE
  5
3
330
0
100
AcDbSymbolTable
 70
    3
  0
STYLE
  5
4C
330
2
100
AcDbSymbolTableRecord
100
AcDbTextStyleTableRecord
  2
STANDARD
 70
    0
 40
0
 41
1
 50
0
 71
    0
 42
1
  3
STANDARD
  4

  0
ENDTAB
  0
TABLE
  2
VIEW
  5
6
330
0
100
AcDbSymbolTable
 70
    0
  0
ENDTAB
  0
TABLE
  2
UCS
  5
7
330
0
100
AcDbSymbolTable
 70
    0
  0
ENDTAB
  0
TABLE
  2
APPID
  5
9
330
0
100
AcDbSymbolTable
 70
    1
  0
APPID
  5
12
330
9
100
AcDbSymbolTableRecord
100
AcDbRegAppTableRecord
  2
ACAD
 70
    0
  0
APPID
  5
4D
330
9
100
AcDbSymbolTableRecord
100
AcDbRegAppTableRecord
  2
LibreCad
 70
    0
  0
ENDTAB
  0
TABLE
  2
DIMSTYLE
  5
A
330
0
100
AcDbSymbolTable
 70
    1
100
AcDbDimStyleTable
 71
    1
  0
DIMSTYLE
105
4E
330
A
100
AcDbSymbolTableRecord
100
AcDbDimStyleTableRecord
  2
Standard
 70
    0
 40
1
 41
0.2
 42
0.2
 43
0.38
 44
0.4
 45
0
 46
0
 47
0
 48
0
 49
1
140
0.2
141
0.09
142
0
143
25.4
144
10
145
0
146
1
147
0.1
148
0
 71
    0
 72
    0
 73
    0
 74
    1
 75
    0
 76
    0
 77
    0
 78
    1
 79
    0
170
    0
171
    2
172
    0
173
    0
174
    0
175
    0
176
    0
177
    0
178
    0
179
    0
271
    0
272
    4
273
    2
274
    2
275
    0
276
    0
277
    2
278
    0
279
    0
280
    0
281
    0
282
    0
283
    1
284
    0
285
    0
286
    0
288
    0
289
    3
340
4C
  0
ENDTAB
  0
TABLE
  2
BLOCK_RECORD
  5
1
330
0
100
AcDbSymbolTable
 70
    2
  0
BLOCK_RECORD
  5
1F
330
1
100
AcDbSymbolTableRecord
100
AcDbBlockTableRecord
  2
*Model_Space
 70
    0
280
    1
281
    0
  0
BLOCK_RECORD
  5
1E
330
1
100
AcDbSymbolTableRecord
100
AcDbBlockTableRecord
  2
*Paper_Space
 70
    0
280
    1
281
    0
  0
BLOCK_RECORD
  5
4F
330
1
100
AcDbSymbolTableRecord
100
AcDbBlockTableRecord
  2
*D3
 70
    0
280
    1
281
    0
  0
BLOCK_RECORD
  5
52
330
1
100
AcDbSymbolTableRecord
100
AcDbBlockTableRecord
  2
*D48
 70
    0
280
    1
281
    0
  0
BLOCK_RECORD
  5
55
330
1
100
AcDbSymbolTableRecord
100
AcDbBlockTableRecord
  2
*D26
 70
    0
280
    1
281
    0
  0
BLOCK_RECORD
  5
58
330
1
100
AcDbSymbolTableRecord
100
AcDbBlockTableRecord
  2
*D12
 70
    0
280
    1
281
    0
  0
BLOCK_RECORD
  5
5B
330
1
100
AcDbSymbolTableRecord
100
AcDbBlockTableRecord
  2
*D20
 70
    0
280
    1
281
    0
  0
BLOCK_RECORD
  5
5E
330
1
100
AcDbSymbolTableRecord
100
AcDbBlockTableRecord
  2
*D5
 70
    0
280
    1
281
    0
  0
BLOCK_RECORD
  5
61
330
1
100
AcDbSymbolTableRecord
100
AcDbBlockTableRecord
  2
*D10
 70
    0
280
    1
281
    0
  0
BLOCK_RECORD
  5
64
330
1
100
AcDbSymbolTableRecord
100
AcDbBlockTableRecord
  2
*D46
 70
    0
280
    1
281
    0
  0
BLOCK_RECORD
  5
67
330
1
100
AcDbSymbolTableRecord
100
AcDbBlockTableRecord
  2
*D6
 70
    0
280
    1
281
    0
  0
BLOCK_RECORD
  5
6A
330
1
100
AcDbSymbolTableRecord
100
AcDbBlockTableRecord
  2
*D2
 70
    0
280
    1
281
    0
  0
BLOCK_RECORD
  5
6D
330
1
100
AcDbSymbolTableRecord
100
AcDbBlockTableRecord
  2
*D9
 70
    0
280
    1
281
    0
  0
BLOCK_RECORD
  5
70
330
1
100
AcDbSymbolTableRecord
100
AcDbBlockTableRecord
  2
*D34
 70
    0
280
    1
281
    0
  0
BLOCK_RECORD
  5
73
330
1
100
AcDbSymbolTableRecord
100
AcDbBlockTableRecord
  2
*D32
 70
    0
280
    1
281
    0
  0
BLOCK_RECORD
  5
76
330
1
100
AcDbSymbolTableRecord
100
AcDbBlockTableRecord
  2
*D13
 70
    0
280
    1
281
    0
  0
BLOCK_RECORD
  5
79
330
1
100
AcDbSymbolTableRecord
100
AcDbBlockTableRecord
  2
*D31
 70
    0
280
    1
281
    0
  0
BLOCK_RECORD
  5
7C
330
1
100
AcDbSymbolTableRecord
100
AcDbBlockTableRecord
  2
*D7
 70
    0
280
    1
281
    0
  0
BLOCK_RECORD
  5
7F
330
1
100
AcDbSymbolTableRecord
100
AcDbBlockTableRecord
  2
*D8
 70
    0
280
    1
281
    0
  0
BLOCK_RECORD
  5
82
330
1
100
AcDbSymbolTableRecord
100
AcDbBlockTableRecord
  2
*D4
 70
    0
280
    1
281
    0
  0
BLOCK_RECORD
  5
85
330
1
100
AcDbSymbolTableRecord
100
AcDbBlockTableRecord
  2
*D39
 70
    0
280
    1
281
    0
  0
BLOCK_RECORD
  5
88
330
1
100
AcDbSymbolTableRecord
100
AcDbBlockTableRecord
  2
*D15
 70
    0
280
    1
281
    0
  0
BLOCK_RECORD
  5
8B
330
1
100
AcDbSymbolTableRecord
100
AcDbBlockTableRecord
  2
*D38
 70
    0
280
    1
281
    0
  0
BLOCK_RECORD
  5
8E
330
1
100
AcDbSymbolTableRecord
100
AcDbBlockTableRecord
  2
*D1
 70
    0
280
    1
281
    0
  0
BLOCK_RECORD
  5
91
330
1
100
AcDbSymbolTableRecord
100
AcDbBlockTableRecord
  2
*D50
 70
    0
280
    1
281
    0
  0
BLOCK_RECORD
  5
94
330
1
100
AcDbSymbolTableRecord
100
AcDbBlockTableRecord
  2
*D42
 70
    0
280
    1
281
    0
  0
BLOCK_RECORD
  5
97
330
1
100
AcDbSymbolTableRecord
100
AcDbBlockTableRecord
  2
*D40
 70
    0
280
    1
281
    0
  0
BLOCK_RECORD
  5
9A
330
1
100
AcDbSymbolTableRecord
100
AcDbBlockTableRecord
  2
*D16
 70
    0
280
    1
281
    0
  0
BLOCK_RECORD
  5
9D
330
1
100
AcDbSymbolTableRecord
100
AcDbBlockTableRecord
  2
*D37
 70
    0
280
    1
281
    0
  0
BLOCK_RECORD
  5
A0
330
1
100
AcDbSymbolTableRecord
100
AcDbBlockTableRecord
  2
*D23
 70
    0
280
    1
281
    0
  0
BLOCK_RECORD
  5
A3
330
1
100
AcDbSymbolTableRecord
100
AcDbBlockTableRecord
  2
*D36
 70
    0
280
    1
281
    0
  0
BLOCK_RECORD
  5
A6
330
1
100
AcDbSymbolTableRecord
100
AcDbBlockTableRecord
  2
*D19
 70
    0
280
    1
281
    0
  0
BLOCK_RECORD
  5
A9
330
1
100
AcDbSymbolTableRecord
100
AcDbBlockTableRecord
  2
*D30
 70
    0
280
    1
281
    0
  0
BLOCK_RECORD
  5
AC
330
1
100
AcDbSymbolTableRecord
100
AcDbBlockTableRecord
  2
*D49
 70
    0
280
    1
281
    0
  0
BLOCK_RECORD
  5
AF
330
1
100
AcDbSymbolTableRecord
100
AcDbBlockTableRecord
  2
*D21
 70
    0
280
    1
281
    0
  0
BLOCK_RECORD
  5
B2
330
1
100
AcDbSymbolTableRecord
100
AcDbBlockTableRecord
  2
*D24
 70
    0
280
    1
281
    0
  0
BLOCK_RECORD
  5
B5
330
1
100
AcDbSymbolTableRecord
100
AcDbBlockTableRecord
  2
*D18
 70
    0
280
    1
281
    0
  0
BLOCK_RECORD
  5
B8
330
1
100
AcDbSymbolTableRecord
100
AcDbBlockTableRecord
  2
*D28
 70
    0
280
    1
281
    0
  0
BLOCK_RECORD
  5
BB
330
1
100
AcDbSymbolTableRecord
100
AcDbBlockTableRecord
  2
*D25
 70
    0
280
    1
281
    0
  0
BLOCK_RECORD
  5
BE
330
1
100
AcDbSymbolTableRecord
100
AcDbBlockTableRecord
  2
*D47
 70
    0
280
    1
281
    0
  0
BLOCK_RECORD
  5
C1
330
1
100
AcDbSymbolTableRecord
100
AcDbBlockTableRecord
  2
*D45
 70
    0
280
    1
281
    0
  0
BLOCK_RECORD
  5
C4
330
1
100
AcDbSymbolTableRecord
100
AcDbBlockTableRecord
  2
*D17
 70
    0
280
    1
281
    0
  0
BLOCK_RECORD
  5
C7
330
1
100
AcDbSymbolTableRecord
100
AcDbBlockTableRecord
  2
*D27
 70
    0
280
    1
281
    0
  0
BLOCK_RECORD
  5
CA
330
1
100
AcDbSymbolTableRecord
100
AcDbBlockTableRecord
  2
*D29
 70
    0
280
    1
281
    0
  0
BLOCK_RECORD
  5
CD
330
1
100
AcDbSymbolTableRecord
100
AcDbBlockTableRecord
  2
*D35
 70
    0
280
    1
281
    0
  0
BLOCK_RECORD
  5
D0
330
1
100
AcDbSymbolTableRecord
100
AcDbBlockTableRecord
  2
*D43
 70
    0
280
    1
281
    0
  0
BLOCK_RECORD
  5
D3
330
1
100
AcDbSymbolTableRecord
100
AcDbBlockTableRecord
  2
*D22
 70
    0
280
    1
281
    0
  0
BLOCK_RECORD
  5
D6
330
1
100
AcDbSymbolTableRecord
100
AcDbBlockTableRecord
  2
*D14
 70
    0
280
    1
281
    0
  0
BLOCK_RECORD
  5
D9
330
1
100
AcDbSymbolTableRecord
100
AcDbBlockTableRecord
  2
*D11
 70
    0
280
    1
281
    0
  0
BLOCK_RECORD
  5
DC
330
1
100
AcDbSymbolTableRecord
100
AcDbBlockTableRecord
  2
*D41
 70
    0
280
    1
281
    0
  0
BLOCK_RECORD
  5
DF
330
1
100
AcDbSymbolTableRecord
100
AcDbBlockTableRecord
  2
*D33
 70
    0
280
    1
281
    0
  0
BLOCK_RECORD
  5
E2
330
1
100
AcDbSymbolTableRecord
100
AcDbBlockTableRecord
  2
*D44
 70
    0
280
    1
281
    0
  0
ENDTAB
  0
ENDSEC
  0
SECTION
  2
BLOCKS
  0
BLOCK
  5
20
330
1F
100
AcDbEntity
  8
0
100
AcDbBlockBegin
  2
*Model_Space
 70
    0
 10
0
 20
0
 30
0
  3
*Model_Space
  1

  0
ENDBLK
  5
21
330
1F
100
AcDbEntity
  8
0
100
AcDbBlockEnd
  0
BLOCK
  5
1C
330
1B
100
AcDbEntity
  8
0
100
AcDbBlockBegin
  2
*Paper_Space
 70
    0
 10
0
 20
0
 30
0
  3
*Paper_Space
  1

  0
ENDBLK
  5
1D
330
1F
100
AcDbEntity
  8
0
100
AcDbBlockEnd
  0
BLOCK
  5
50
330
4F
100
AcDbEntity
  8
0
100
AcDbBlockBegin
  2
*D3
 70
    1
 10
0
 20
0
  3
*D3
  1

  0
LINE
  5
E5
100
AcDbEntity
  8
maße
  6
ByBlock
 62
    0
370
   -2
100
AcDbLine
 10
-2
 20
5.600000000000001
 11
-2
 21
6.100000000000001
  0
LINE
  5
E6
100
AcDbEntity
  8
maße
  6
ByBlock
 62
    0
370
   -2
100
AcDbLine
 10
1.779758311459934e-17
 20
5.600000000000001
 11
-2.846531542942637e-16
 21
6.100000000000001
  0
LINE
  5
E7
100
AcDbEntity
  8
maße
  6
ByBlock
 62
    0
370
   -2
100
AcDbLine
 10
-2
 20
5.7
 11
-4.269256436717318e-17
 21
5.7
  0
MTEXT
  5
E8
100
AcDbEntity
  8
maße
  6
CONTINUOUS
 62
    0
370
   -2
100
AcDbMText
 10
-0.9999999999999998
 20
5.9
 30
0
 40
0.2
 41
0.2444444444444444
 71
    5
 72
    1
  1
20
  7
standard
210
0
220
0
230
1
 50
0
 73
    2
 44
1
  0
SOLID
  5
E9
100
AcDbEntity
  8
maße
  6
ByBlock
 62
    0
370
   -2
100
AcDbTrace
 10
-2
 20
5.7
 30
0
 11
-1.8
 21
5.733302772621827
 31
0
 12
-1.8
 22
5.666697227378173
 32
0
 13
-1.8
 23
5.666697227378173
 33
0
  0
SOLID
  5
EA
100
AcDbEntity
  8
maße
  6
ByBlock
 62
    0
370
   -2
100
AcDbTrace
 10
-4.269256436717318e-17
 20
5.7
 30
0
 11
-0.2000000000000001
 21
5.666697227378173
 31
0
 12
-0.2000000000000001
 22
5.733302772621827
 32
0
 13
-0.2000000000000001
 23
5.733302772621827
 33
0
  0
ENDBLK
  5
51
330
4F
100
AcDbEntity
  8
0
100
AcDbBlockEnd
  0
BLOCK
  5
53
330
52
100
AcDbEntity
  8
0
100
AcDbBlockBegin
  2
*D48
 70
    1
 10
0
 20
0
  3
*D48
  1

  0
LINE
  5
EB
100
AcDbEntity
  8
maße
  6
ByBlock
 62
    0
370
   -2
100
AcDbLine
 10
7.899999999999999
 20
-0.5999999999999985
 11
7.899999999999999
 21
-1.200000000000001
  0
LINE
  5
EC
100
AcDbEntity
  8
maße
  6
ByBlock
 62
    0
370
   -2
100
AcDbLine
 10
14.90000000000001
 20
-0.5999999999999985
 11
14.90000000000001
 21
-1.200000000000001
  0
LINE
  5
ED
100
AcDbEntity
  8
maße
  6
ByBlock
 62
    0
370
   -2
100
AcDbLine
 10
7.899999999999999
 20
-0.8000000000000007
 11
14.90000000000001
 21
-0.8000000000000007
  0
MTEXT
  5
EE
100
AcDbEntity
  8
maße
  6
CONTINUOUS
 62
    0
370
   -2
100
AcDbMText
 10
11.4
 20
-0.6000000000000008
 30
0
 40
0.2
 41
0.2444444444444444
 71
    5
 72
    1
  1
70
  7
standard
210
0
220
0
230
1
 50
0
 73
    2
 44
1
  0
SOLID
  5
EF
100
AcDbEntity
  8
maße
  6
ByBlock
 62
    0
370
   -2
100
AcDbTrace
 10
7.899999999999999
 20
-0.8000000000000007
 30
0
 11
8.099999999999998
 21
-0.7666972273781735
 31
0
 12
8.099999999999998
 22
-0.8333027726218279
 32
0
 13
8.099999999999998
 23
-0.8333027726218279
 33
0
  0
SOLID
  5
F0
100
AcDbEntity
  8
maße
  6
ByBlock
 62
    0
370
   -2
100
AcDbTrace
 10
14.90000000000001
 20
-0.8000000000000007
 30
0
 11
14.70000000000001
 21
-0.8333027726218279
 31
0
 12
14.70000000000001
 22
-0.7666972273781735
 32
0
 13
14.70000000000001
 23
-0.7666972273781735
 33
0
  0
ENDBLK
  5
54
330
52
100
AcDbEntity
  8
0
100
AcDbBlockEnd
  0
BLOCK
  5
56
330
55
100
AcDbEntity
  8
0
100
AcDbBlockBegin
  2
*D26
 70
    1
 10
0
 20
0
  3
*D26
  1

  0
LINE
  5
F1
100
AcDbEntity
  8
maße
  6
ByBlock
 62
    0
370
   -2
100
AcDbLine
 10
0.2000000000000001
 20
5
 11
1.3
 21
5
  0
LINE
  5
F2
100
AcDbEntity
  8
maße
  6
ByBlock
 62
    0
370
   -2
100
AcDbLine
 10
0.2000000000000001
 20
3.5
 11
1.3
 21
3.5
  0
LINE
  5
F3
100
AcDbEntity
  8
maße
  6
ByBlock
 62
    0
370
   -2
100
AcDbLine
 10
0.9000000000000001
 20
5
 11
0.9000000000000001
 21
3.5
  0
MTEXT
  5
F4
100
AcDbEntity
  8
maße
  6
CONTINUOUS
 62
    0
370
   -2
100
AcDbMText
 10
0.7000000000000002
 20
4.25
 30
0
 40
0.2
 41
0.2000000000000124
 71
    5
 72
    1
  1
15
  7
standard
210
0
220
0
230
1
 50
90
 73
    2
 44
1
  0
SOLID
  5
F5
100
AcDbEntity
  8
maße
  6
ByBlock
 62
    0
370
   -2
100
AcDbTrace
 10
0.9000000000000001
 20
5
 30
0
 11
0.9333027726218274
 21
4.8
 31
0
 12
0.8666972273781729
 22
4.8
 32
0
 13
0.8666972273781729
 23
4.8
 33
0
  0
SOLID
  5
F6
100
AcDbEntity
  8
maße
  6
ByBlock
 62
    0
370
   -2
100
AcDbTrace
 10
0.9000000000000001
 20
3.5
 30
0
 11
0.8666972273781729
 21
3.7
 31
0
 12
0.9333027726218274
 22
3.7
 32
0
 13
0.9333027726218274
 23
3.7
 33
0
  0
ENDBLK
  5
57
330
55
100
AcDbEntity
  8
0
100
AcDbBlockEnd
  0
BLOCK
  5
59
330
58
100
AcDbEntity
  8
0
100
AcDbBlockBegin
  2
*D12
 70
    1
 10
0
 20
0
  3
*D12
  1

  0
LINE
  5
F7
100
AcDbEntity
  8
maße
  6
ByBlock
 62
    0
370
   -2
100
AcDbLine
 10
9.800000000000001
 20
5.4
 11
9.4
 21
5.4
  0
LINE
  5
F8
100
AcDbEntity
  8
maße
  6
ByBlock
 62
    0
370
   -2
100
AcDbLine
 10
9.800000000000001
 20
5
 11
9.4
 21
5
  0
LINE
  5
F9
100
AcDbEntity
  8
maße
  6
ByBlock
 62
    0
370
   -2
100
AcDbLine
 10
9.800000000000001
 20
5.800000000000001
 11
9.800000000000001
 21
4.6
  0
MTEXT
  5
FA
100
AcDbEntity
  8
maße
  6
CONTINUOUS
 62
    0
370
   -2
100
AcDbMText
 10
9.600000000000001
 20
5.2
 30
0
 40
0.2
 41
0.1111111111111111
 71
    5
 72
    1
  1
4
  7
standard
210
0
220
0
230
1
 50
90
 73
    2
 44
1
  0
SOLID
  5
FB
100
AcDbEntity
  8
maße
  6
ByBlock
 62
    0
370
   -2
100
AcDbTrace
 10
9.800000000000001
 20
5.4
 30
0
 11
9.766697227378174
 21
5.600000000000001
 31
0
 12
9.833302772621828
 22
5.600000000000001
 32
0
 13
9.833302772621828
 23
5.600000000000001
 33
0
  0
SOLID
  5
FC
100
AcDbEntity
  8
maße
  6
ByBlock
 62
    0
370
   -2
100
AcDbTrace
 10
9.800000000000001
 20
5
 30
0
 11
9.833302772621828
 21
4.8
 31
0
 12
9.766697227378174
 22
4.8
 32
0
 13
9.766697227378174
 23
4.8
 33
0
  0
ENDBLK
  5
5A
330
58
100
AcDbEntity
  8
0
100
AcDbBlockEnd
  0
BLOCK
  5
5C
330
5B
100
AcDbEntity
  8
0
100
AcDbBlockBegin
  2
*D20
 70
    1
 10
0
 20
0
  3
*D20
  1

  0
LINE
  5
FD
100
AcDbEntity
  8
maße
  6
ByBlock
 62
    0
370
   -2
100
AcDbLine
 10
23.6
 20
14.8
 11
23.6
 21
14.2
  0
LINE
  5
FE
100
AcDbEntity
  8
maße
  6
ByBlock
 62
    0
370
   -2
100
AcDbLine
 10
21.6
 20
14.8
 11
21.6
 21
14.2
  0
LINE
  5
FF
100
AcDbEntity
  8
maße
  6
ByBlock
 62
    0
370
   -2
100
AcDbLine
 10
23.6
 20
14.6
 11
21.6
 21
14.6
  0
MTEXT
  5
100
100
AcDbEntity
  8
maße
  6
CONTINUOUS
 62
    0
370
   -2
100
AcDbMText
 10
22.6
 20
14.8
 30
0
 40
0.2
 41
0.2444444444444444
 71
    5
 72
    1
  1
20
  7
standard
210
0
220
0
230
1
 50
0
 73
    2
 44
1
  0
SOLID
  5
101
100
AcDbEntity
  8
maße
  6
ByBlock
 62
    0
370
   -2
100
AcDbTrace
 10
23.6
 20
14.6
 30
0
 11
23.4
 21
14.56669722737817
 31
0
 12
23.4
 22
14.63330277262183
 32
0
 13
23.4
 23
14.63330277262183
 33
0
  0
SOLID
  5
102
100
AcDbEntity
  8
maße
  6
ByBlock
 62
    0
370
   -2
100
AcDbTrace
 10
21.6
 20
14.6
 30
0
 11
21.8
 21
14.63330277262183
 31
0
 12
21.8
 22
14.56669722737817
 32
0
 13
21.8
 23
14.56669722737817
 33
0
  0
ENDBLK
  5
5D
330
5B
100
AcDbEntity
  8
0
100
AcDbBlockEnd
  0
BLOCK
  5
5F
330
5E
100
AcDbEntity
  8
0
100
AcDbBlockBegin
  2
*D5
 70
    1
 10
0
 20
0
  3
*D5
  1

  0
LINE
  5
103
100
AcDbEntity
  8
maße
  6
ByBlock
 62
    0
370
   -2
100
AcDbLine
 10
2.342910729165049e-16
 20
15.2
 11
3.07769880865346e-16
 21
16.4
  0
LINE
  5
104
100
AcDbEntity
  8
maße
  6
ByBlock
 62
    0
370
   -2
100
AcDbLine
 10
0.4000000000000002
 20
15.2
 11
0.4000000000000002
 21
16.4
  0
LINE
  5
105
100
AcDbEntity
  8
maße
  6
ByBlock
 62
    0
370
   -2
100
AcDbLine
 10
-0.3999999999999997
 20
16
 11
0.8000000000000003
 21
16
  0
MTEXT
  5
106
100
AcDbEntity
  8
maße
  6
CONTINUOUS
 62
    0
370
   -2
100
AcDbMText
 10
0.2000000000000003
 20
16.2
 30
0
 40
0.2
 41
0.1111111111111111
 71
    5
 72
    1
  1
4
  7
standard
210
0
220
0
230
1
 50
0
 73
    2
 44
1
  0
SOLID
  5
107
100
AcDbEntity
  8
maße
  6
ByBlock
 62
    0
370
   -2
100
AcDbTrace
 10
2.83276944882399e-16
 20
16
 30
0
 11
-0.1999999999999997
 21
15.96669722737817
 31
0
 12
-0.1999999999999997
 22
16.03330277262183
 32
0
 13
-0.1999999999999997
 23
16.03330277262183
 33
0
  0
SOLID
  5
108
100
AcDbEntity
  8
maße
  6
ByBlock
 62
    0
370
   -2
100
AcDbTrace
 10
0.4000000000000002
 20
16
 30
0
 11
0.6000000000000003
 21
16.03330277262183
 31
0
 12
0.6000000000000003
 22
15.96669722737817
 32
0
 13
0.6000000000000003
 23
15.96669722737817
 33
0
  0
ENDBLK
  5
60
330
5E
100
AcDbEntity
  8
0
100
AcDbBlockEnd
  0
BLOCK
  5
62
330
61
100
AcDbEntity
  8
0
100
AcDbBlockBegin
  2
*D10
 70
    1
 10
0
 20
0
  3
*D10
  1

  0
LINE
  5
109
100
AcDbEntity
  8
maße
  6
ByBlock
 62
    0
370
   -2
100
AcDbLine
 10
10
 20
15.2
 11
10
 21
15.7
  0
LINE
  5
10A
100
AcDbEntity
  8
maße
  6
ByBlock
 62
    0
370
   -2
100
AcDbLine
 10
12.8
 20
15.2
 11
12.8
 21
15.7
  0
LINE
  5
10B
100
AcDbEntity
  8
maße
  6
ByBlock
 62
    0
370
   -2
100
AcDbLine
 10
10
 20
15.3
 11
12.8
 21
15.3
  0
MTEXT
  5
10C
100
AcDbEntity
  8
maße
  6
CONTINUOUS
 62
    0
370
   -2
100
AcDbMText
 10
11.4
 20
15.5
 30
0
 40
0.2
 41
0.2444444444444445
 71
    5
 72
    1
  1
28
  7
standard
210
0
220
0
230
1
 50
0
 73
    2
 44
1
  0
SOLID
  5
10D
100
AcDbEntity
  8
maße
  6
ByBlock
 62
    0
370
   -2
100
AcDbTrace
 10
10
 20
15.3
 30
0
 11
10.2
 21
15.33330277262183
 31
0
 12
10.2
 22
15.26669722737817
 32
0
 13
10.2
 23
15.26669722737817
 33
0
  0
SOLID
  5
10E
100
AcDbEntity
  8
maße
  6
ByBlock
 62
    0
370
   -2
100
AcDbTrace
 10
12.8
 20
15.3
 30
0
 11
12.6
 21
15.26669722737817
 31
0
 12
12.6
 22
15.33330277262183
 32
0
 13
12.6
 23
15.33330277262183
 33
0
  0
ENDBLK
  5
63
330
61
100
AcDbEntity
  8
0
100
AcDbBlockEnd
  0
BLOCK
  5
65
330
64
100
AcDbEntity
  8
0
100
AcDbBlockBegin
  2
*D46
 70
    1
 10
0
 20
0
  3
*D46
  1

  0
LINE
  5
10F
100
AcDbEntity
  8
maße
  6
ByBlock
 62
    0
370
   -2
100
AcDbLine
 10
29.9
 20
-0.5999999999999985
 11
29.9
 21
-1.200000000000001
  0
LINE
  5
110
100
AcDbEntity
  8
maße
  6
ByBlock
 62
    0
370
   -2
100
AcDbLine
 10
36.90000000000001
 20
-0.5999999999999985
 11
36.90000000000001
 21
-1.200000000000001
  0
LINE
  5
111
100
AcDbEntity
  8
maße
  6
ByBlock
 62
    0
370
   -2
100
AcDbLine
 10
29.9
 20
-0.8000000000000007
 11
36.90000000000001
 21
-0.8000000000000007
  0
MTEXT
  5
112
100
AcDbEntity
  8
maße
  6
CONTINUOUS
 62
    0
370
   -2
100
AcDbMText
 10
33.40000000000001
 20
-0.6000000000000008
 30
0
 40
0.2
 41
0.2444444444444444
 71
    5
 72
    1
  1
70
  7
standard
210
0
220
0
230
1
 50
0
 73
    2
 44
1
  0
SOLID
  5
113
100
AcDbEntity
  8
maße
  6
ByBlock
 62
    0
370
   -2
100
AcDbTrace
 10
29.9
 20
-0.8000000000000007
 30
0
 11
30.1
 21
-0.7666972273781735
 31
0
 12
30.1
 22
-0.8333027726218279
 32
0
 13
30.1
 23
-0.8333027726218279
 33
0
  0
SOLID
  5
114
100
AcDbEntity
  8
maße
  6
ByBlock
 62
    0
370
   -2
100
AcDbTrace
 10
36.90000000000001
 20
-0.8000000000000007
 30
0
 11
36.70000000000001
 21
-0.8333027726218279
 31
0
 12
36.70000000000001
 22
-0.7666972273781735
 32
0
 13
36.70000000000001
 23
-0.7666972273781735
 33
0
  0
ENDBLK
  5
66
330
64
100
AcDbEntity
  8
0
100
AcDbBlockEnd
  0
BLOCK
  5
68
330
67
100
AcDbEntity
  8
0
100
AcDbBlockBegin
  2
*D6
 70
    1
 10
0
 20
0
  3
*D6
  1

  0
LINE
  5
115
100
AcDbEntity
  8
maße
  6
ByBlock
 62
    0
370
   -2
100
AcDbLine
 10
2.4
 20
15.2
 11
2.4
 21
16.4
  0
LINE
  5
116
100
AcDbEntity
  8
maße
  6
ByBlock
 62
    0
370
   -2
100
AcDbLine
 10
2.8
 20
15.2
 11
2.8
 21
16.4
  0
LINE
  5
117
100
AcDbEntity
  8
maße
  6
ByBlock
 62
    0
370
   -2
100
AcDbLine
 10
2
 20
16
 11
3.2
 21
16
  0
MTEXT
  5
118
100
AcDbEntity
  8
maße
  6
CONTINUOUS
 62
    0
370
   -2
100
AcDbMText
 10
2.6
 20
16.2
 30
0
 40
0.2
 41
0.1111111111111111
 71
    5
 72
    1
  1
4
  7
standard
210
0
220
0
230
1
 50
0
 73
    2
 44
1
  0
SOLID
  5
119
100
AcDbEntity
  8
maße
  6
ByBlock
 62
    0
370
   -2
100
AcDbTrace
 10
2.4
 20
16
 30
0
 11
2.2
 21
15.96669722737817
 31
0
 12
2.2
 22
16.03330277262183
 32
0
 13
2.2
 23
16.03330277262183
 33
0
  0
SOLID
  5
11A
100
AcDbEntity
  8
maße
  6
ByBlock
 62
    0
370
   -2
100
AcDbTrace
 10
2.8
 20
16
 30
0
 11
3
 21
16.03330277262183
 31
0
 12
3
 22
15.96669722737817
 32
0
 13
3
 23
15.96669722737817
 33
0
  0
ENDBLK
  5
69
330
67
100
AcDbEntity
  8
0
100
AcDbBlockEnd
  0
BLOCK
  5
6B
330
6A
100
AcDbEntity
  8
0
100
AcDbBlockBegin
  2
*D2
 70
    1
 10
0
 20
0
  3
*D2
  1

  0
LINE
  5
11B
100
AcDbEntity
  8
maße
  6
ByBlock
 62
    0
370
   -2
100
AcDbLine
 10
-2.12
 20
4.84
 11
-2.504
 21
4.328000000000002
  0
LINE
  5
11C
100
AcDbEntity
  8
maße
  6
ByBlock
 62
    0
370
   -2
100
AcDbLine
 10
-0.12
 20
3.34
 11
-0.5039999999999998
 21
2.828000000000001
  0
LINE
  5
11D
100
AcDbEntity
  8
maße
  6
ByBlock
 62
    0
370
   -2
100
AcDbLine
 10
-2.264
 20
4.648000000000001
 11
-0.2639999999999995
 21
3.148000000000001
  0
MTEXT
  5
11E
100
AcDbEntity
  8
maße
  6
CONTINUOUS
 62
    0
370
   -2
100
AcDbMText
 10
-1.144
 20
4.058000000000002
 30
0
 40
0.2
 41
0.2444444444444568
 71
    5
 72
    1
  1
25
  7
standard
210
0
220
0
230
1
 50
323.130102354156
 73
    2
 44
1
  0
SOLID
  5
11F
100
AcDbEntity
  8
maße
  6
ByBlock
 62
    0
370
   -2
100
AcDbTrace
 10
-2.264
 20
4.648000000000001
 30
0
 11
-2.084018336426904
 21
4.554642218097463
 31
0
 12
-2.123981663573096
 22
4.50135778190254
 32
0
 13
-2.123981663573096
 23
4.50135778190254
 33
0
  0
SOLID
  5
120
100
AcDbEntity
  8
maße
  6
ByBlock
 62
    0
370
   -2
100
AcDbTrace
 10
-0.2639999999999995
 20
3.148000000000001
 30
0
 11
-0.4439816635730959
 21
3.241357781902539
 31
0
 12
-0.4040183364269032
 22
3.294642218097463
 32
0
 13
-0.4040183364269032
 23
3.294642218097463
 33
0
  0
ENDBLK
  5
6C
330
6A
100
AcDbEntity
  8
0
100
AcDbBlockEnd
  0
BLOCK
  5
6E
330
6D
100
AcDbEntity
  8
0
100
AcDbBlockBegin
  2
*D9
 70
    1
 10
0
 20
0
  3
*D9
  1

  0
LINE
  5
121
100
AcDbEntity
  8
maße
  6
ByBlock
 62
    0
370
   -2
100
AcDbLine
 10
15.10000000000001
 20
0
 11
15.7
 21
0
  0
LINE
  5
122
100
AcDbEntity
  8
maße
  6
ByBlock
 62
    0
370
   -2
100
AcDbLine
 10
15.10000000000001
 20
-0.3999999999999986
 11
15.7
 21
-0.3999999999999986
  0
LINE
  5
123
100
AcDbEntity
  8
maße
  6
ByBlock
 62
    0
370
   -2
100
AcDbLine
 10
15.3
 20
0.4
 11
15.3
 21
-0.7999999999999986
  0
MTEXT
  5
124
100
AcDbEntity
  8
maße
  6
CONTINUOUS
 62
    0
370
   -2
100
AcDbMText
 10
15.1
 20
-0.1999999999999993
 30
0
 40
0.2
 41
0.1111111111111111
 71
    5
 72
    1
  1
4
  7
standard
210
0
220
0
230
1
 50
90
 73
    2
 44
1
  0
SOLID
  5
125
100
AcDbEntity
  8
maße
  6
ByBlock
 62
    0
370
   -2
100
AcDbTrace
 10
15.3
 20
0
 30
0
 11
15.26669722737817
 21
0.2
 31
0
 12
15.33330277262183
 22
0.2
 32
0
 13
15.33330277262183
 23
0.2
 33
0
  0
SOLID
  5
126
100
AcDbEntity
  8
maße
  6
ByBlock
 62
    0
370
   -2
100
AcDbTrace
 10
15.3
 20
-0.3999999999999986
 30
0
 11
15.33330277262183
 21
-0.5999999999999985
 31
0
 12
15.26669722737817
 22
-0.5999999999999985
 32
0
 13
15.26669722737817
 23
-0.5999999999999985
 33
0
  0
ENDBLK
  5
6F
330
6D
100
AcDbEntity
  8
0
100
AcDbBlockEnd
  0
BLOCK
  5
71
330
70
100
AcDbEntity
  8
0
100
AcDbBlockBegin
  2
*D34
 70
    1
 10
0
 20
0
  3
*D34
  1

  0
ARC
  5
127
100
AcDbEntity
  8
maße
  6
ByBlock
 62
    0
370
   -2
100
AcDbCircle
 10
11.2
 20
5
 40
0.5830951894845285
100
AcDbArc
 50
270
 51
0
  0
SOLID
  5
128
100
AcDbEntity
  8
maße
  6
ByBlock
 62
    0
370
   -2
100
AcDbTrace
 10
11.2
 20
4.416904810515471
 30
0
 11
11.3913826026553
 21
4.483850863910606
 31
0
 12
11.40274944780782
 22
4.418222413612866
 32
0
 13
11.40274944780782
 23
4.418222413612866
 33
0
  0
SOLID
  5
129
100
AcDbEntity
  8
maße
  6
ByBlock
 62
    0
370
   -2
100
AcDbTrace
 10
11.78309518948453
 20
5
 30
0
 11
11.78177758638713
 21
4.797250552192173
 31
0
 12
11.71614913608939
 22
4.808617397344698
 32
0
 13
11.71614913608939
 23
4.808617397344698
 33
0
  0
MTEXT
  5
12A
100
AcDbEntity
  8
maße
  6
CONTINUOUS
 62
    0
370
   -2
100
AcDbMText
 10
11.54159988444311
 20
4.65840011555689
 30
0
 40
0.2
 41
0.3777777777778025
 71
    8
 72
    1
  1
90%%D
  7
standard
210
0
220
0
230
1
 50
45.00000000000007
 73
    2
 44
1
  0
ENDBLK
  5
72
330
70
100
AcDbEntity
  8
0
100
AcDbBlockEnd
  0
BLOCK
  5
74
330
73
100
AcDbEntity
  8
0
100
AcDbBlockBegin
  2
*D32
 70
    1
 10
0
 20
0
  3
*D32
  1

  0
ARC
  5
12B
100
AcDbEntity
  8
maße
  6
ByBlock
 62
    0
370
   -2
100
AcDbCircle
 10
24
 20
0
 40
0.6324555320336755
100
AcDbArc
 50
90
 51
180
  0
SOLID
  5
12C
100
AcDbEntity
  8
maße
  6
ByBlock
 62
    0
370
   -2
100
AcDbTrace
 10
24
 20
0.6324555320336755
 30
0
 11
23.80773851398014
 21
0.5680769978958429
 31
0
 12
23.79725107802988
 22
0.6338517068985713
 32
0
 13
23.79725107802988
 23
0.6338517068985713
 33
0
  0
SOLID
  5
12D
100
AcDbEntity
  8
maße
  6
ByBlock
 62
    0
370
   -2
100
AcDbTrace
 10
23.36754446796633
 20
7.745346429080771e-17
 30
0
 11
23.36614829310143
 21
0.2027489219701249
 31
0
 12
23.43192300210416
 22
0.1922614860198613
 32
0
 13
23.43192300210416
 23
0.1922614860198613
 33
0
  0
MTEXT
  5
12E
100
AcDbEntity
  8
maße
  6
CONTINUOUS
 62
    0
370
   -2
100
AcDbMText
 10
23.48207572638139
 20
0.5179242736186126
 30
0
 40
0.2
 41
0.3777777777778025
 71
    8
 72
    1
  1
90%%D
  7
standard
210
0
220
0
230
1
 50
404.9999999999999
 73
    2
 44
1
  0
ENDBLK
  5
75
330
73
100
AcDbEntity
  8
0
100
AcDbBlockEnd
  0
BLOCK
  5
77
330
76
100
AcDbEntity
  8
0
100
AcDbBlockBegin
  2
*D13
 70
    1
 10
0
 20
0
  3
*D13
  1

  0
LINE
  5
12F
100
AcDbEntity
  8
maße
  6
ByBlock
 62
    0
370
   -2
100
AcDbLine
 10
11.13
 20
5.960000000000001
 11
11.67
 21
5.960000000000001
  0
MTEXT
  5
130
100
AcDbEntity
  8
maße
  6
CONTINUOUS
 62
    0
370
   -2
100
AcDbMText
 10
11.4
 20
6.160000000000001
 30
0
 40
0.2
 41
0.08888888888890129
 71
    5
 72
    1
  1
5
  7
standard
210
0
220
0
230
1
 50
0
 73
    2
 44
1
  0
SOLID
  5
131
100
AcDbEntity
  8
maße
  6
ByBlock
 62
    0
370
   -2
100
AcDbTrace
 10
11.13
 20
5.960000000000001
 30
0
 11
11.33
 21
5.993302772621828
 31
0
 12
11.33
 22
5.926697227378174
 32
0
 13
11.33
 23
5.926697227378174
 33
0
  0
SOLID
  5
132
100
AcDbEntity
  8
maße
  6
ByBlock
 62
    0
370
   -2
100
AcDbTrace
 10
11.67
 20
5.960000000000001
 30
0
 11
11.47
 21
5.926697227378174
 31
0
 12
11.47
 22
5.993302772621828
 32
0
 13
11.47
 23
5.993302772621828
 33
0
  0
LINE
  5
133
100
AcDbEntity
  8
maße
  6
ByBlock
 62
    0
370
   -2
100
AcDbLine
 10
11.13
 20
5.870000000000001
 11
11.13
 21
6.360000000000001
  0
LINE
  5
134
100
AcDbEntity
  8
maße
  6
ByBlock
 62
    0
370
   -2
100
AcDbLine
 10
11.67
 20
5.870000000000001
 11
11.67
 21
6.360000000000001
  0
ENDBLK
  5
78
330
76
100
AcDbEntity
  8
0
100
AcDbBlockEnd
  0
BLOCK
  5
7A
330
79
100
AcDbEntity
  8
0
100
AcDbBlockBegin
  2
*D31
 70
    1
 10
0
 20
0
  3
*D31
  1

  0
ARC
  5
135
100
AcDbEntity
  8
maße
  6
ByBlock
 62
    0
370
   -2
100
AcDbCircle
 10
10
 20
-0
 40
0.6403124237432839
100
AcDbArc
 50
0
 51
90
  0
SOLID
  5
136
100
AcDbEntity
  8
maße
  6
ByBlock
 62
    0
370
   -2
100
AcDbTrace
 10
10.64031242374328
 20
0
 30
0
 11
10.57630702110361
 21
0.1923860262525185
 31
0
 12
10.64210195319929
 22
0.2027458316430382
 32
0
 13
10.64210195319929
 23
0.2027458316430382
 33
0
  0
SOLID
  5
137
100
AcDbEntity
  8
maße
  6
ByBlock
 62
    0
370
   -2
100
AcDbTrace
 10
10
 20
0.6403124237432839
 30
0
 11
10.20274583164304
 21
0.642101953199293
 31
0
 12
10.19238602625252
 22
0.5763070211036135
 32
0
 13
10.19238602625252
 23
0.5763070211036135
 33
0
  0
MTEXT
  5
138
100
AcDbEntity
  8
maße
  6
CONTINUOUS
 62
    0
370
   -2
100
AcDbMText
 10
10.52347993502553
 20
0.5234799350255248
 30
0
 40
0.2
 41
0.3777777777778025
 71
    8
 72
    1
  1
90%%D
  7
standard
210
0
220
0
230
1
 50
314.9999999999999
 73
    2
 44
1
  0
ENDBLK
  5
7B
330
79
100
AcDbEntity
  8
0
100
AcDbBlockEnd
  0
BLOCK
  5
7D
330
7C
100
AcDbEntity
  8
0
100
AcDbBlockBegin
  2
*D7
 70
    1
 10
0
 20
0
  3
*D7
  1

  0
LINE
  5
139
100
AcDbEntity
  8
maße
  6
ByBlock
 62
    0
370
   -2
100
AcDbLine
 10
3
 20
15
 11
3.6
 21
15
  0
LINE
  5
13A
100
AcDbEntity
  8
maße
  6
ByBlock
 62
    0
370
   -2
100
AcDbLine
 10
3
 20
-2.775557561562891e-17
 11
3.6
 21
-2.775557561562891e-17
  0
LINE
  5
13B
100
AcDbEntity
  8
maße
  6
ByBlock
 62
    0
370
   -2
100
AcDbLine
 10
3.2
 20
15
 11
3.2
 21
-2.775557561562891e-17
  0
MTEXT
  5
13C
100
AcDbEntity
  8
maße
  6
CONTINUOUS
 62
    0
370
   -2
100
AcDbMText
 10
3
 20
7.5
 30
0
 40
0.2
 41
0.3555555555555679
 71
    5
 72
    1
  1
150
  7
standard
210
0
220
0
230
1
 50
90
 73
    2
 44
1
  0
SOLID
  5
13D
100
AcDbEntity
  8
maße
  6
ByBlock
 62
    0
370
   -2
100
AcDbTrace
 10
3.2
 20
15
 30
0
 11
3.233302772621828
 21
14.8
 31
0
 12
3.166697227378173
 22
14.8
 32
0
 13
3.166697227378173
 23
14.8
 33
0
  0
SOLID
  5
13E
100
AcDbEntity
  8
maße
  6
ByBlock
 62
    0
370
   -2
100
AcDbTrace
 10
3.2
 20
-2.775557561562891e-17
 30
0
 11
3.166697227378173
 21
0.2
 31
0
 12
3.233302772621828
 22
0.2
 32
0
 13
3.233302772621828
 23
0.2
 33
0
  0
ENDBLK
  5
7E
330
7C
100
AcDbEntity
  8
0
100
AcDbBlockEnd
  0
BLOCK
  5
80
330
7F
100
AcDbEntity
  8
0
100
AcDbBlockBegin
  2
*D8
 70
    1
 10
0
 20
0
  3
*D8
  1

  0
LINE
  5
13F
100
AcDbEntity
  8
maße
  6
ByBlock
 62
    0
370
   -2
100
AcDbLine
 10
0.4
 20
14.8
 11
0.4
 21
14.2
  0
LINE
  5
140
100
AcDbEntity
  8
maße
  6
ByBlock
 62
    0
370
   -2
100
AcDbLine
 10
2.4
 20
14.8
 11
2.4
 21
14.2
  0
LINE
  5
141
100
AcDbEntity
  8
maße
  6
ByBlock
 62
    0
370
   -2
100
AcDbLine
 10
0.4
 20
14.6
 11
2.4
 21
14.6
  0
MTEXT
  5
142
100
AcDbEntity
  8
maße
  6
CONTINUOUS
 62
    0
370
   -2
100
AcDbMText
 10
1.4
 20
14.8
 30
0
 40
0.2
 41
0.2444444444444444
 71
    5
 72
    1
  1
20
  7
standard
210
0
220
0
230
1
 50
0
 73
    2
 44
1
  0
SOLID
  5
143
100
AcDbEntity
  8
maße
  6
ByBlock
 62
    0
370
   -2
100
AcDbTrace
 10
0.4
 20
14.6
 30
0
 11
0.6000000000000001
 21
14.63330277262183
 31
0
 12
0.6000000000000001
 22
14.56669722737817
 32
0
 13
0.6000000000000001
 23
14.56669722737817
 33
0
  0
SOLID
  5
144
100
AcDbEntity
  8
maße
  6
ByBlock
 62
    0
370
   -2
100
AcDbTrace
 10
2.4
 20
14.6
 30
0
 11
2.2
 21
14.56669722737817
 31
0
 12
2.2
 22
14.63330277262183
 32
0
 13
2.2
 23
14.63330277262183
 33
0
  0
ENDBLK
  5
81
330
7F
100
AcDbEntity
  8
0
100
AcDbBlockEnd
  0
BLOCK
  5
83
330
82
100
AcDbEntity
  8
0
100
AcDbBlockBegin
  2
*D4
 70
    1
 10
0
 20
0
  3
*D4
  1

  0
LINE
  5
145
100
AcDbEntity
  8
maße
  6
ByBlock
 62
    0
370
   -2
100
AcDbLine
 10
-2.2
 20
5.4
 11
-2.7
 21
5.4
  0
LINE
  5
146
100
AcDbEntity
  8
maße
  6
ByBlock
 62
    0
370
   -2
100
AcDbLine
 10
-2.2
 20
5
 11
-2.7
 21
5
  0
LINE
  5
147
100
AcDbEntity
  8
maße
  6
ByBlock
 62
    0
370
   -2
100
AcDbLine
 10
-2.3
 20
5.800000000000001
 11
-2.3
 21
4.6
  0
MTEXT
  5
148
100
AcDbEntity
  8
maße
  6
CONTINUOUS
 62
    0
370
   -2
100
AcDbMText
 10
-2.5
 20
5.2
 30
0
 40
0.2
 41
0.1111111111111111
 71
    5
 72
    1
  1
4
  7
standard
210
0
220
0
230
1
 50
90
 73
    2
 44
1
  0
SOLID
  5
149
100
AcDbEntity
  8
maße
  6
ByBlock
 62
    0
370
   -2
100
AcDbTrace
 10
-2.3
 20
5.4
 30
0
 11
-2.333302772621827
 21
5.600000000000001
 31
0
 12
-2.266697227378172
 22
5.600000000000001
 32
0
 13
-2.266697227378172
 23
5.600000000000001
 33
0
  0
SOLID
  5
14A
100
AcDbEntity
  8
maße
  6
ByBlock
 62
    0
370
   -2
100
AcDbTrace
 10
-2.3
 20
5
 30
0
 11
-2.266697227378172
 21
4.8
 31
0
 12
-2.333302772621827
 22
4.8
 32
0
 13
-2.333302772621827
 23
4.8
 33
0
  0
ENDBLK
  5
84
330
82
100
AcDbEntity
  8
0
100
AcDbBlockEnd
  0
BLOCK
  5
86
330
85
100
AcDbEntity
  8
0
100
AcDbBlockBegin
  2
*D39
 70
    1
 10
0
 20
0
  3
*D39
  1

  0
LINE
  5
14B
100
AcDbEntity
  8
maße
  6
ByBlock
 62
    0
370
   -2
100
AcDbLine
 10
9.800000000000001
 20
-10.3
 11
9.4
 21
-10.3
  0
LINE
  5
14C
100
AcDbEntity
  8
maße
  6
ByBlock
 62
    0
370
   -2
100
AcDbLine
 10
9.800000000000001
 20
-10.7
 11
9.4
 21
-10.7
  0
LINE
  5
14D
100
AcDbEntity
  8
maße
  6
ByBlock
 62
    0
370
   -2
100
AcDbLine
 10
9.800000000000001
 20
-9.9
 11
9.800000000000001
 21
-11.1
  0
MTEXT
  5
14E
100
AcDbEntity
  8
maße
  6
CONTINUOUS
 62
    0
370
   -2
100
AcDbMText
 10
9.600000000000001
 20
-10.5
 30
0
 40
0.2
 41
0.1111111111111111
 71
    5
 72
    1
  1
4
  7
standard
210
0
220
0
230
1
 50
90
 73
    2
 44
1
  0
SOLID
  5
14F
100
AcDbEntity
  8
maße
  6
ByBlock
 62
    0
370
   -2
100
AcDbTrace
 10
9.800000000000001
 20
-10.3
 30
0
 11
9.766697227378174
 21
-10.1
 31
0
 12
9.833302772621828
 22
-10.1
 32
0
 13
9.833302772621828
 23
-10.1
 33
0
  0
SOLID
  5
150
100
AcDbEntity
  8
maße
  6
ByBlock
 62
    0
370
   -2
100
AcDbTrace
 10
9.800000000000001
 20
-10.7
 30
0
 11
9.833302772621828
 21
-10.9
 31
0
 12
9.766697227378174
 22
-10.9
 32
0
 13
9.766697227378174
 23
-10.9
 33
0
  0
ENDBLK
  5
87
330
85
100
AcDbEntity
  8
0
100
AcDbBlockEnd
  0
BLOCK
  5
89
330
88
100
AcDbEntity
  8
0
100
AcDbBlockBegin
  2
*D15
 70
    1
 10
0
 20
0
  3
*D15
  1

  0
LINE
  5
151
100
AcDbEntity
  8
maße
  6
ByBlock
 62
    0
370
   -2
100
AcDbLine
 10
26
 20
5.600000000000001
 11
26
 21
6.099999999999999
  0
LINE
  5
152
100
AcDbEntity
  8
maße
  6
ByBlock
 62
    0
370
   -2
100
AcDbLine
 10
24
 20
5.600000000000001
 11
24
 21
6.099999999999999
  0
LINE
  5
153
100
AcDbEntity
  8
maße
  6
ByBlock
 62
    0
370
   -2
100
AcDbLine
 10
26
 20
5.699999999999998
 11
24
 21
5.699999999999998
  0
MTEXT
  5
154
100
AcDbEntity
  8
maße
  6
CONTINUOUS
 62
    0
370
   -2
100
AcDbMText
 10
25
 20
5.899999999999999
 30
0
 40
0.2
 41
0.2444444444444444
 71
    5
 72
    1
  1
20
  7
standard
210
0
220
0
230
1
 50
0
 73
    2
 44
1
  0
SOLID
  5
155
100
AcDbEntity
  8
maße
  6
ByBlock
 62
    0
370
   -2
100
AcDbTrace
 10
26
 20
5.699999999999998
 30
0
 11
25.8
 21
5.666697227378171
 31
0
 12
25.8
 22
5.733302772621825
 32
0
 13
25.8
 23
5.733302772621825
 33
0
  0
SOLID
  5
156
100
AcDbEntity
  8
maße
  6
ByBlock
 62
    0
370
   -2
100
AcDbTrace
 10
24
 20
5.699999999999998
 30
0
 11
24.2
 21
5.733302772621825
 31
0
 12
24.2
 22
5.666697227378171
 32
0
 13
24.2
 23
5.666697227378171
 33
0
  0
ENDBLK
  5
8A
330
88
100
AcDbEntity
  8
0
100
AcDbBlockEnd
  0
BLOCK
  5
8C
330
8B
100
AcDbEntity
  8
0
100
AcDbBlockBegin
  2
*D38
 70
    1
 10
0
 20
0
  3
*D38
  1

  0
LINE
  5
157
100
AcDbEntity
  8
maße
  6
ByBlock
 62
    0
370
   -2
100
AcDbLine
 10
9.800000000000001
 20
-7.9
 11
9.4
 21
-7.9
  0
LINE
  5
158
100
AcDbEntity
  8
maße
  6
ByBlock
 62
    0
370
   -2
100
AcDbLine
 10
9.800000000000001
 20
-8.299999999999999
 11
9.4
 21
-8.299999999999999
  0
LINE
  5
159
100
AcDbEntity
  8
maße
  6
ByBlock
 62
    0
370
   -2
100
AcDbLine
 10
9.800000000000001
 20
-7.5
 11
9.800000000000001
 21
-8.699999999999999
  0
MTEXT
  5
15A
100
AcDbEntity
  8
maße
  6
CONTINUOUS
 62
    0
370
   -2
100
AcDbMText
 10
9.600000000000001
 20
-8.1
 30
0
 40
0.2
 41
0.1111111111111111
 71
    5
 72
    1
  1
4
  7
standard
210
0
220
0
230
1
 50
90
 73
    2
 44
1
  0
SOLID
  5
15B
100
AcDbEntity
  8
maße
  6
ByBlock
 62
    0
370
   -2
100
AcDbTrace
 10
9.800000000000001
 20
-7.9
 30
0
 11
9.766697227378174
 21
-7.7
 31
0
 12
9.833302772621828
 22
-7.7
 32
0
 13
9.833302772621828
 23
-7.7
 33
0
  0
SOLID
  5
15C
100
AcDbEntity
  8
maße
  6
ByBlock
 62
    0
370
   -2
100
AcDbTrace
 10
9.800000000000001
 20
-8.299999999999999
 30
0
 11
9.833302772621828
 21
-8.499999999999998
 31
0
 12
9.766697227378174
 22
-8.499999999999998
 32
0
 13
9.766697227378174
 23
-8.499999999999998
 33
0
  0
ENDBLK
  5
8D
330
8B
100
AcDbEntity
  8
0
100
AcDbBlockEnd
  0
BLOCK
  5
8F
330
8E
100
AcDbEntity
  8
0
100
AcDbBlockBegin
  2
*D1
 70
    1
 10
0
 20
0
  3
*D1
  1

  0
LINE
  5
15D
100
AcDbEntity
  8
maße
  6
ByBlock
 62
    0
370
   -2
100
AcDbLine
 10
5.100000000000001
 20
-2.220446049250313e-16
 11
5.700000000000001
 21
-2.220446049250313e-16
  0
LINE
  5
15E
100
AcDbEntity
  8
maße
  6
ByBlock
 62
    0
370
   -2
100
AcDbLine
 10
5.100000000000001
 20
-0.4000000000000002
 11
5.700000000000001
 21
-0.4000000000000002
  0
LINE
  5
15F
100
AcDbEntity
  8
maße
  6
ByBlock
 62
    0
370
   -2
100
AcDbLine
 10
5.300000000000001
 20
0.3999999999999998
 11
5.300000000000001
 21
-0.8000000000000003
  0
MTEXT
  5
160
100
AcDbEntity
  8
maße
  6
CONTINUOUS
 62
    0
370
   -2
100
AcDbMText
 10
5.100000000000001
 20
-0.2000000000000002
 30
0
 40
0.2
 41
0.1111111111111111
 71
    5
 72
    1
  1
4
  7
standard
210
0
220
0
230
1
 50
90
 73
    2
 44
1
  0
SOLID
  5
161
100
AcDbEntity
  8
maße
  6
ByBlock
 62
    0
370
   -2
100
AcDbTrace
 10
5.300000000000001
 20
-2.220446049250313e-16
 30
0
 11
5.266697227378174
 21
0.1999999999999998
 31
0
 12
5.333302772621828
 22
0.1999999999999998
 32
0
 13
5.333302772621828
 23
0.1999999999999998
 33
0
  0
SOLID
  5
162
100
AcDbEntity
  8
maße
  6
ByBlock
 62
    0
370
   -2
100
AcDbTrace
 10
5.300000000000001
 20
-0.4000000000000002
 30
0
 11
5.333302772621828
 21
-0.6000000000000002
 31
0
 12
5.266697227378174
 22
-0.6000000000000002
 32
0
 13
5.266697227378174
 23
-0.6000000000000002
 33
0
  0
ENDBLK
  5
90
330
8E
100
AcDbEntity
  8
0
100
AcDbBlockEnd
  0
BLOCK
  5
92
330
91
100
AcDbEntity
  8
0
100
AcDbBlockBegin
  2
*D50
 70
    1
 10
0
 20
0
  3
*D50
  1

  0
LINE
  5
163
100
AcDbEntity
  8
maße
  6
ByBlock
 62
    0
370
   -2
100
AcDbLine
 10
11.2
 20
3.3
 11
11.2
 21
2.9
  0
LINE
  5
164
100
AcDbEntity
  8
maße
  6
ByBlock
 62
    0
370
   -2
100
AcDbLine
 10
11.6
 20
3.3
 11
11.6
 21
2.9
  0
LINE
  5
165
100
AcDbEntity
  8
maße
  6
ByBlock
 62
    0
370
   -2
100
AcDbLine
 10
10.8
 20
3.3
 11
12
 21
3.3
  0
MTEXT
  5
166
100
AcDbEntity
  8
maße
  6
CONTINUOUS
 62
    0
370
   -2
100
AcDbMText
 10
11.4
 20
3.5
 30
0
 40
0.2
 41
0.1111111111111111
 71
    5
 72
    1
  1
4
  7
standard
210
0
220
0
230
1
 50
0
 73
    2
 44
1
  0
SOLID
  5
167
100
AcDbEntity
  8
maße
  6
ByBlock
 62
    0
370
   -2
100
AcDbTrace
 10
11.2
 20
3.3
 30
0
 11
11
 21
3.266697227378172
 31
0
 12
11
 22
3.333302772621827
 32
0
 13
11
 23
3.333302772621827
 33
0
  0
SOLID
  5
168
100
AcDbEntity
  8
maße
  6
ByBlock
 62
    0
370
   -2
100
AcDbTrace
 10
11.6
 20
3.3
 30
0
 11
11.8
 21
3.333302772621827
 31
0
 12
11.8
 22
3.266697227378172
 32
0
 13
11.8
 23
3.266697227378172
 33
0
  0
ENDBLK
  5
93
330
91
100
AcDbEntity
  8
0
100
AcDbBlockEnd
  0
BLOCK
  5
95
330
94
100
AcDbEntity
  8
0
100
AcDbBlockBegin
  2
*D42
 70
    1
 10
0
 20
0
  3
*D42
  1

  0
LINE
  5
169
100
AcDbEntity
  8
maße
  6
ByBlock
 62
    0
370
   -2
100
AcDbLine
 10
10.4
 20
-8.499999999999998
 11
10.4
 21
-9
  0
LINE
  5
16A
100
AcDbEntity
  8
maße
  6
ByBlock
 62
    0
370
   -2
100
AcDbLine
 10
12.4
 20
-8.499999999999998
 11
12.4
 21
-9
  0
LINE
  5
16B
100
AcDbEntity
  8
maße
  6
ByBlock
 62
    0
370
   -2
100
AcDbLine
 10
10.4
 20
-8.6
 11
12.4
 21
-8.6
  0
MTEXT
  5
16C
100
AcDbEntity
  8
maße
  6
CONTINUOUS
 62
    0
370
   -2
100
AcDbMText
 10
11.4
 20
-8.4
 30
0
 40
0.2
 41
0.2444444444444444
 71
    5
 72
    1
  1
20
  7
standard
210
0
220
0
230
1
 50
0
 73
    2
 44
1
  0
SOLID
  5
16D
100
AcDbEntity
  8
maße
  6
ByBlock
 62
    0
370
   -2
100
AcDbTrace
 10
10.4
 20
-8.6
 30
0
 11
10.6
 21
-8.566697227378173
 31
0
 12
10.6
 22
-8.633302772621827
 32
0
 13
10.6
 23
-8.633302772621827
 33
0
  0
SOLID
  5
16E
100
AcDbEntity
  8
maße
  6
ByBlock
 62
    0
370
   -2
100
AcDbTrace
 10
12.4
 20
-8.6
 30
0
 11
12.2
 21
-8.633302772621827
 31
0
 12
12.2
 22
-8.566697227378173
 32
0
 13
12.2
 23
-8.566697227378173
 33
0
  0
ENDBLK
  5
96
330
94
100
AcDbEntity
  8
0
100
AcDbBlockEnd
  0
BLOCK
  5
98
330
97
100
AcDbEntity
  8
0
100
AcDbBlockBegin
  2
*D40
 70
    1
 10
0
 20
0
  3
*D40
  1

  0
LINE
  5
16F
100
AcDbEntity
  8
maße
  6
ByBlock
 62
    0
370
   -2
100
AcDbLine
 10
13
 20
-8.299999999999999
 11
13.5
 21
-8.299999999999999
  0
LINE
  5
170
100
AcDbEntity
  8
maße
  6
ByBlock
 62
    0
370
   -2
100
AcDbLine
 10
13
 20
-10.3
 11
13.5
 21
-10.3
  0
LINE
  5
171
100
AcDbEntity
  8
maße
  6
ByBlock
 62
    0
370
   -2
100
AcDbLine
 10
13.1
 20
-8.299999999999999
 11
13.1
 21
-10.3
  0
MTEXT
  5
172
100
AcDbEntity
  8
maße
  6
CONTINUOUS
 62
    0
370
   -2
100
AcDbMText
 10
12.9
 20
-9.300000000000001
 30
0
 40
0.2
 41
0.2444444444444444
 71
    5
 72
    1
  1
20
  7
standard
210
0
220
0
230
1
 50
90
 73
    2
 44
1
  0
SOLID
  5
173
100
AcDbEntity
  8
maße
  6
ByBlock
 62
    0
370
   -2
100
AcDbTrace
 10
13.1
 20
-8.299999999999999
 30
0
 11
13.13330277262183
 21
-8.499999999999998
 31
0
 12
13.06669722737817
 22
-8.499999999999998
 32
0
 13
13.06669722737817
 23
-8.499999999999998
 33
0
  0
SOLID
  5
174
100
AcDbEntity
  8
maße
  6
ByBlock
 62
    0
370
   -2
100
AcDbTrace
 10
13.1
 20
-10.3
 30
0
 11
13.06669722737817
 21
-10.1
 31
0
 12
13.13330277262183
 22
-10.1
 32
0
 13
13.13330277262183
 23
-10.1
 33
0
  0
ENDBLK
  5
99
330
97
100
AcDbEntity
  8
0
100
AcDbBlockEnd
  0
BLOCK
  5
9B
330
9A
100
AcDbEntity
  8
0
100
AcDbBlockBegin
  2
*D16
 70
    1
 10
0
 20
0
  3
*D16
  1

  0
LINE
  5
175
100
AcDbEntity
  8
maße
  6
ByBlock
 62
    0
370
   -2
100
AcDbLine
 10
26.2
 20
5.4
 11
26.7
 21
5.4
  0
LINE
  5
176
100
AcDbEntity
  8
maße
  6
ByBlock
 62
    0
370
   -2
100
AcDbLine
 10
26.2
 20
5
 11
26.7
 21
5
  0
LINE
  5
177
100
AcDbEntity
  8
maße
  6
ByBlock
 62
    0
370
   -2
100
AcDbLine
 10
26.3
 20
5.800000000000001
 11
26.3
 21
4.6
  0
MTEXT
  5
178
100
AcDbEntity
  8
maße
  6
CONTINUOUS
 62
    0
370
   -2
100
AcDbMText
 10
26.1
 20
5.2
 30
0
 40
0.2
 41
0.1111111111111111
 71
    5
 72
    1
  1
4
  7
standard
210
0
220
0
230
1
 50
90
 73
    2
 44
1
  0
SOLID
  5
179
100
AcDbEntity
  8
maße
  6
ByBlock
 62
    0
370
   -2
100
AcDbTrace
 10
26.3
 20
5.4
 30
0
 11
26.26669722737817
 21
5.600000000000001
 31
0
 12
26.33330277262183
 22
5.600000000000001
 32
0
 13
26.33330277262183
 23
5.600000000000001
 33
0
  0
SOLID
  5
17A
100
AcDbEntity
  8
maße
  6
ByBlock
 62
    0
370
   -2
100
AcDbTrace
 10
26.3
 20
5
 30
0
 11
26.33330277262183
 21
4.8
 31
0
 12
26.26669722737817
 22
4.8
 32
0
 13
26.26669722737817
 23
4.8
 33
0
  0
ENDBLK
  5
9C
330
9A
100
AcDbEntity
  8
0
100
AcDbBlockEnd
  0
BLOCK
  5
9E
330
9D
100
AcDbEntity
  8
0
100
AcDbBlockBegin
  2
*D37
 70
    1
 10
0
 20
0
  3
*D37
  1

  0
LINE
  5
17B
100
AcDbEntity
  8
maße
  6
ByBlock
 62
    0
370
   -2
100
AcDbLine
 10
10
 20
-7.699999999999998
 11
10
 21
-7.199999999999998
  0
LINE
  5
17C
100
AcDbEntity
  8
maße
  6
ByBlock
 62
    0
370
   -2
100
AcDbLine
 10
12.8
 20
-7.699999999999998
 11
12.8
 21
-7.199999999999998
  0
LINE
  5
17D
100
AcDbEntity
  8
maße
  6
ByBlock
 62
    0
370
   -2
100
AcDbLine
 10
10
 20
-7.599999999999999
 11
12.8
 21
-7.599999999999999
  0
MTEXT
  5
17E
100
AcDbEntity
  8
maße
  6
CONTINUOUS
 62
    0
370
   -2
100
AcDbMText
 10
11.4
 20
-7.399999999999999
 30
0
 40
0.2
 41
0.2444444444444445
 71
    5
 72
    1
  1
28
  7
standard
210
0
220
0
230
1
 50
0
 73
    2
 44
1
  0
SOLID
  5
17F
100
AcDbEntity
  8
maße
  6
ByBlock
 62
    0
370
   -2
100
AcDbTrace
 10
10
 20
-7.599999999999999
 30
0
 11
10.2
 21
-7.566697227378172
 31
0
 12
10.2
 22
-7.633302772621826
 32
0
 13
10.2
 23
-7.633302772621826
 33
0
  0
SOLID
  5
180
100
AcDbEntity
  8
maße
  6
ByBlock
 62
    0
370
   -2
100
AcDbTrace
 10
12.8
 20
-7.599999999999999
 30
0
 11
12.6
 21
-7.633302772621826
 31
0
 12
12.6
 22
-7.566697227378172
 32
0
 13
12.6
 23
-7.566697227378172
 33
0
  0
ENDBLK
  5
9F
330
9D
100
AcDbEntity
  8
0
100
AcDbBlockEnd
  0
BLOCK
  5
A1
330
A0
100
AcDbEntity
  8
0
100
AcDbBlockBegin
  2
*D23
 70
    1
 10
0
 20
0
  3
*D23
  1

  0
LINE
  5
181
100
AcDbEntity
  8
maße
  6
ByBlock
 62
    0
370
   -2
100
AcDbLine
 10
32
 20
15.2
 11
32
 21
15.7
  0
LINE
  5
182
100
AcDbEntity
  8
maße
  6
ByBlock
 62
    0
370
   -2
100
AcDbLine
 10
34.8
 20
15.2
 11
34.8
 21
15.7
  0
LINE
  5
183
100
AcDbEntity
  8
maße
  6
ByBlock
 62
    0
370
   -2
100
AcDbLine
 10
32
 20
15.3
 11
34.8
 21
15.3
  0
MTEXT
  5
184
100
AcDbEntity
  8
maße
  6
CONTINUOUS
 62
    0
370
   -2
100
AcDbMText
 10
33.4
 20
15.5
 30
0
 40
0.2
 41
0.2444444444444445
 71
    5
 72
    1
  1
28
  7
standard
210
0
220
0
230
1
 50
0
 73
    2
 44
1
  0
SOLID
  5
185
100
AcDbEntity
  8
maße
  6
ByBlock
 62
    0
370
   -2
100
AcDbTrace
 10
32
 20
15.3
 30
0
 11
32.2
 21
15.33330277262183
 31
0
 12
32.2
 22
15.26669722737817
 32
0
 13
32.2
 23
15.26669722737817
 33
0
  0
SOLID
  5
186
100
AcDbEntity
  8
maße
  6
ByBlock
 62
    0
370
   -2
100
AcDbTrace
 10
34.8
 20
15.3
 30
0
 11
34.59999999999999
 21
15.26669722737817
 31
0
 12
34.59999999999999
 22
15.33330277262183
 32
0
 13
34.59999999999999
 23
15.33330277262183
 33
0
  0
ENDBLK
  5
A2
330
A0
100
AcDbEntity
  8
0
100
AcDbBlockEnd
  0
BLOCK
  5
A4
330
A3
100
AcDbEntity
  8
0
100
AcDbBlockBegin
  2
*D36
 70
    1
 10
0
 20
0
  3
*D36
  1

  0
LINE
  5
187
100
AcDbEntity
  8
maße
  6
ByBlock
 62
    0
370
   -2
100
AcDbLine
 10
7.7
 20
-5.799999999999999
 11
7.3
 21
-5.799999999999999
  0
LINE
  5
188
100
AcDbEntity
  8
maße
  6
ByBlock
 62
    0
370
   -2
100
AcDbLine
 10
7.7
 20
-12.8
 11
7.3
 21
-12.8
  0
LINE
  5
189
100
AcDbEntity
  8
maße
  6
ByBlock
 62
    0
370
   -2
100
AcDbLine
 10
7.7
 20
-5.799999999999999
 11
7.7
 21
-12.8
  0
MTEXT
  5
18A
100
AcDbEntity
  8
maße
  6
CONTINUOUS
 62
    0
370
   -2
100
AcDbMText
 10
7.5
 20
-9.300000000000001
 30
0
 40
0.2
 41
0.2444444444444444
 71
    5
 72
    1
  1
70
  7
standard
210
0
220
0
230
1
 50
90
 73
    2
 44
1
  0
SOLID
  5
18B
100
AcDbEntity
  8
maße
  6
ByBlock
 62
    0
370
   -2
100
AcDbTrace
 10
7.7
 20
-5.799999999999999
 30
0
 11
7.733302772621827
 21
-5.999999999999999
 31
0
 12
7.666697227378173
 22
-5.999999999999999
 32
0
 13
7.666697227378173
 23
-5.999999999999999
 33
0
  0
SOLID
  5
18C
100
AcDbEntity
  8
maße
  6
ByBlock
 62
    0
370
   -2
100
AcDbTrace
 10
7.7
 20
-12.8
 30
0
 11
7.666697227378173
 21
-12.6
 31
0
 12
7.733302772621827
 22
-12.6
 32
0
 13
7.733302772621827
 23
-12.6
 33
0
  0
ENDBLK
  5
A5
330
A3
100
AcDbEntity
  8
0
100
AcDbBlockEnd
  0
BLOCK
  5
A7
330
A6
100
AcDbEntity
  8
0
100
AcDbBlockBegin
  2
*D19
 70
    1
 10
0
 20
0
  3
*D19
  1

  0
LINE
  5
18D
100
AcDbEntity
  8
maße
  6
ByBlock
 62
    0
370
   -2
100
AcDbLine
 10
21
 20
15
 11
20.4
 21
15
  0
LINE
  5
18E
100
AcDbEntity
  8
maße
  6
ByBlock
 62
    0
370
   -2
100
AcDbLine
 10
21
 20
1.410663535685885e-16
 11
20.4
 21
4.809986874274665e-16
  0
LINE
  5
18F
100
AcDbEntity
  8
maße
  6
ByBlock
 62
    0
370
   -2
100
AcDbLine
 10
20.8
 20
15
 11
20.8
 21
2.543771315215473e-16
  0
MTEXT
  5
190
100
AcDbEntity
  8
maße
  6
CONTINUOUS
 62
    0
370
   -2
100
AcDbMText
 10
20.6
 20
7.5
 30
0
 40
0.2
 41
0.3555555555555679
 71
    5
 72
    1
  1
150
  7
standard
210
0
220
0
230
1
 50
90
 73
    2
 44
1
  0
SOLID
  5
191
100
AcDbEntity
  8
maße
  6
ByBlock
 62
    0
370
   -2
100
AcDbTrace
 10
20.8
 20
15
 30
0
 11
20.83330277262183
 21
14.8
 31
0
 12
20.76669722737817
 22
14.8
 32
0
 13
20.76669722737817
 23
14.8
 33
0
  0
SOLID
  5
192
100
AcDbEntity
  8
maße
  6
ByBlock
 62
    0
370
   -2
100
AcDbTrace
 10
20.8
 20
2.543771315215473e-16
 30
0
 11
20.76669722737817
 21
0.2000000000000003
 31
0
 12
20.83330277262183
 22
0.2000000000000003
 32
0
 13
20.83330277262183
 23
0.2000000000000003
 33
0
  0
ENDBLK
  5
A8
330
A6
100
AcDbEntity
  8
0
100
AcDbBlockEnd
  0
BLOCK
  5
AA
330
A9
100
AcDbEntity
  8
0
100
AcDbBlockBegin
  2
*D30
 70
    1
 10
0
 20
0
  3
*D30
  1

  0
ARC
  5
193
100
AcDbEntity
  8
maße
  6
ByBlock
 62
    0
370
   -2
100
AcDbCircle
 10
0
 20
0
 40
0.4472135954999581
100
AcDbArc
 50
90
 51
180
  0
SOLID
  5
194
100
AcDbEntity
  8
maße
  6
ByBlock
 62
    0
370
   -2
100
AcDbTrace
 10
2.738393491321014e-17
 20
0.4472135954999581
 30
0
 11
-0.1876359733972151
 21
0.3703903167910881
 31
0
 12
-0.2024056238869767
 22
0.4353376499281368
 32
0
 13
-0.2024056238869767
 23
0.4353376499281368
 33
0
  0
SOLID
  5
195
100
AcDbEntity
  8
maße
  6
ByBlock
 62
    0
370
   -2
100
AcDbTrace
 10
-0.4472135954999581
 20
5.476786982642029e-17
 30
0
 11
-0.4353376499281367
 21
0.2024056238869767
 31
0
 12
-0.370390316791088
 22
0.1876359733972151
 32
0
 13
-0.370390316791088
 23
0.1876359733972151
 33
0
  0
MTEXT
  5
196
100
AcDbEntity
  8
maße
  6
CONTINUOUS
 62
    0
370
   -2
100
AcDbMText
 10
-0.3869384441354927
 20
0.3869384441354928
 30
0
 40
0.2
 41
0.3777777777778025
 71
    8
 72
    1
  1
90%%D
  7
standard
210
0
220
0
230
1
 50
404.9999999999999
 73
    2
 44
1
  0
ENDBLK
  5
AB
330
A9
100
AcDbEntity
  8
0
100
AcDbBlockEnd
  0
BLOCK
  5
AD
330
AC
100
AcDbEntity
  8
0
100
AcDbBlockBegin
  2
*D49
 70
    1
 10
0
 20
0
  3
*D49
  1

  0
LINE
  5
197
100
AcDbEntity
  8
maße
  6
ByBlock
 62
    0
370
   -2
100
AcDbLine
 10
11.6
 20
2.7
 11
12.8
 21
2.7
  0
MTEXT
  5
198
100
AcDbEntity
  8
maße
  6
CONTINUOUS
 62
    0
370
   -2
100
AcDbMText
 10
12.2
 20
2.9
 30
0
 40
0.2
 41
0.2
 71
    5
 72
    1
  1
12
  7
standard
210
0
220
0
230
1
 50
0
 73
    2
 44
1
  0
SOLID
  5
199
100
AcDbEntity
  8
maße
  6
ByBlock
 62
    0
370
   -2
100
AcDbTrace
 10
11.6
 20
2.7
 30
0
 11
11.8
 21
2.733302772621828
 31
0
 12
11.8
 22
2.666697227378173
 32
0
 13
11.8
 23
2.666697227378173
 33
0
  0
SOLID
  5
19A
100
AcDbEntity
  8
maße
  6
ByBlock
 62
    0
370
   -2
100
AcDbTrace
 10
12.8
 20
2.7
 30
0
 11
12.6
 21
2.666697227378173
 31
0
 12
12.6
 22
2.733302772621828
 32
0
 13
12.6
 23
2.733302772621828
 33
0
  0
LINE
  5
19B
100
AcDbEntity
  8
maße
  6
ByBlock
 62
    0
370
   -2
100
AcDbLine
 10
11.6
 20
4.8
 11
11.6
 21
2.3
  0
LINE
  5
19C
100
AcDbEntity
  8
maße
  6
ByBlock
 62
    0
370
   -2
100
AcDbLine
 10
12.8
 20
4.8
 11
12.8
 21
2.3
  0
ENDBLK
  5
AE
330
AC
100
AcDbEntity
  8
0
100
AcDbBlockEnd
  0
BLOCK
  5
B0
330
AF
100
AcDbEntity
  8
0
100
AcDbBlockBegin
  2
*D21
 70
    1
 10
0
 20
0
  3
*D21
  1

  0
LINE
  5
19D
100
AcDbEntity
  8
maße
  6
ByBlock
 62
    0
370
   -2
100
AcDbLine
 10
26.4
 20
0.4000000000000001
 11
26.4
 21
-0.8
  0
MTEXT
  5
19E
100
AcDbEntity
  8
maße
  6
CONTINUOUS
 62
    0
370
   -2
100
AcDbMText
 10
26.2
 20
-0.2
 30
0
 40
0.2
 41
0.1111111111111111
 71
    5
 72
    1
  1
4
  7
standard
210
0
220
0
230
1
 50
90
 73
    2
 44
1
  0
SOLID
  5
19F
100
AcDbEntity
  8
maße
  6
ByBlock
 62
    0
370
   -2
100
AcDbTrace
 10
26.4
 20
5.551115123125783e-17
 30
0
 11
26.36669722737817
 21
0.2000000000000001
 31
0
 12
26.43330277262183
 22
0.2000000000000001
 32
0
 13
26.43330277262183
 23
0.2000000000000001
 33
0
  0
SOLID
  5
1A0
100
AcDbEntity
  8
maße
  6
ByBlock
 62
    0
370
   -2
100
AcDbTrace
 10
26.4
 20
-0.4
 30
0
 11
26.43330277262183
 21
-0.6000000000000001
 31
0
 12
26.36669722737817
 22
-0.6000000000000001
 32
0
 13
26.36669722737817
 23
-0.6000000000000001
 33
0
  0
LINE
  5
1A1
100
AcDbEntity
  8
maße
  6
ByBlock
 62
    0
370
   -2
100
AcDbLine
 10
26.3
 20
5.551115123125783e-17
 11
26.8
 21
5.551115123125783e-17
  0
LINE
  5
1A2
100
AcDbEntity
  8
maße
  6
ByBlock
 62
    0
370
   -2
100
AcDbLine
 10
26.3
 20
-0.4
 11
26.8
 21
-0.4
  0
ENDBLK
  5
B1
330
AF
100
AcDbEntity
  8
0
100
AcDbBlockEnd
  0
BLOCK
  5
B3
330
B2
100
AcDbEntity
  8
0
100
AcDbBlockBegin
  2
*D24
 70
    1
 10
0
 20
0
  3
*D24
  1

  0
LINE
  5
1A3
100
AcDbEntity
  8
maße
  6
ByBlock
 62
    0
370
   -2
100
AcDbLine
 10
35
 20
15
 11
35.6
 21
15
  0
LINE
  5
1A4
100
AcDbEntity
  8
maße
  6
ByBlock
 62
    0
370
   -2
100
AcDbLine
 10
35
 20
0
 11
35.6
 21
0
  0
LINE
  5
1A5
100
AcDbEntity
  8
maße
  6
ByBlock
 62
    0
370
   -2
100
AcDbLine
 10
35.2
 20
15
 11
35.2
 21
0
  0
MTEXT
  5
1A6
100
AcDbEntity
  8
maße
  6
CONTINUOUS
 62
    0
370
   -2
100
AcDbMText
 10
35
 20
7.5
 30
0
 40
0.2
 41
0.3555555555555679
 71
    5
 72
    1
  1
150
  7
standard
210
0
220
0
230
1
 50
90
 73
    2
 44
1
  0
SOLID
  5
1A7
100
AcDbEntity
  8
maße
  6
ByBlock
 62
    0
370
   -2
100
AcDbTrace
 10
35.2
 20
15
 30
0
 11
35.23330277262183
 21
14.8
 31
0
 12
35.16669722737817
 22
14.8
 32
0
 13
35.16669722737817
 23
14.8
 33
0
  0
SOLID
  5
1A8
100
AcDbEntity
  8
maße
  6
ByBlock
 62
    0
370
   -2
100
AcDbTrace
 10
35.2
 20
0
 30
0
 11
35.16669722737817
 21
0.2
 31
0
 12
35.23330277262183
 22
0.2
 32
0
 13
35.23330277262183
 23
0.2
 33
0
  0
ENDBLK
  5
B4
330
B2
100
AcDbEntity
  8
0
100
AcDbBlockEnd
  0
BLOCK
  5
B6
330
B5
100
AcDbEntity
  8
0
100
AcDbBlockBegin
  2
*D18
 70
    1
 10
0
 20
0
  3
*D18
  1

  0
LINE
  5
1A9
100
AcDbEntity
  8
maße
  6
ByBlock
 62
    0
370
   -2
100
AcDbLine
 10
21.6
 20
15.2
 11
21.6
 21
16.4
  0
LINE
  5
1AA
100
AcDbEntity
  8
maße
  6
ByBlock
 62
    0
370
   -2
100
AcDbLine
 10
21.2
 20
15.2
 11
21.2
 21
16.4
  0
LINE
  5
1AB
100
AcDbEntity
  8
maße
  6
ByBlock
 62
    0
370
   -2
100
AcDbLine
 10
22
 20
16
 11
20.8
 21
16
  0
MTEXT
  5
1AC
100
AcDbEntity
  8
maße
  6
CONTINUOUS
 62
    0
370
   -2
100
AcDbMText
 10
21.4
 20
16.2
 30
0
 40
0.2
 41
0.1111111111111111
 71
    5
 72
    1
  1
4
  7
standard
210
0
220
0
230
1
 50
0
 73
    2
 44
1
  0
SOLID
  5
1AD
100
AcDbEntity
  8
maße
  6
ByBlock
 62
    0
370
   -2
100
AcDbTrace
 10
21.6
 20
16
 30
0
 11
21.8
 21
16.03330277262183
 31
0
 12
21.8
 22
15.96669722737817
 32
0
 13
21.8
 23
15.96669722737817
 33
0
  0
SOLID
  5
1AE
100
AcDbEntity
  8
maße
  6
ByBlock
 62
    0
370
   -2
100
AcDbTrace
 10
21.2
 20
16
 30
0
 11
21
 21
15.96669722737817
 31
0
 12
21
 22
16.03330277262183
 32
0
 13
21
 23
16.03330277262183
 33
0
  0
ENDBLK
  5
B7
330
B5
100
AcDbEntity
  8
0
100
AcDbBlockEnd
  0
BLOCK
  5
B9
330
B8
100
AcDbEntity
  8
0
100
AcDbBlockBegin
  2
*D28
 70
    1
 10
0
 20
0
  3
*D28
  1

  0
ARC
  5
1AF
100
AcDbEntity
  8
maße
  6
ByBlock
 62
    0
370
   -2
100
AcDbCircle
 10
24
 20
5
 40
0.5656854249492372
100
AcDbArc
 50
270
 51
0
  0
SOLID
  5
1B0
100
AcDbEntity
  8
maße
  6
ByBlock
 62
    0
370
   -2
100
AcDbTrace
 10
24
 20
4.434314575050763
 30
0
 11
24.19102658984688
 21
4.502269829709786
 31
0
 12
24.20273966925003
 22
4.436702288745527
 32
0
 13
24.20273966925003
 23
4.436702288745527
 33
0
  0
SOLID
  5
1B1
100
AcDbEntity
  8
maße
  6
ByBlock
 62
    0
370
   -2
100
AcDbTrace
 10
24.56568542494924
 20
5
 30
0
 11
24.56329771125447
 21
4.797260330749967
 31
0
 12
24.49773017029021
 22
4.808973410153119
 32
0
 13
24.49773017029021
 23
4.808973410153119
 33
0
  0
MTEXT
  5
1B2
100
AcDbEntity
  8
maße
  6
CONTINUOUS
 62
    0
370
   -2
100
AcDbMText
 10
24.32928932188134
 20
4.670710678118655
 30
0
 40
0.2
 41
0.3777777777778025
 71
    8
 72
    1
  1
90%%D
  7
standard
210
0
220
0
230
1
 50
44.99999999999995
 73
    2
 44
1
  0
ENDBLK
  5
BA
330
B8
100
AcDbEntity
  8
0
100
AcDbBlockEnd
  0
BLOCK
  5
BC
330
BB
100
AcDbEntity
  8
0
100
AcDbBlockBegin
  2
*D25
 70
    1
 10
0
 20
0
  3
*D25
  1

  0
LINE
  5
1B3
100
AcDbEntity
  8
maße
  6
ByBlock
 62
    0
370
   -2
100
AcDbLine
 10
33.13
 20
5.960000000000001
 11
33.67
 21
5.960000000000001
  0
MTEXT
  5
1B4
100
AcDbEntity
  8
maße
  6
CONTINUOUS
 62
    0
370
   -2
100
AcDbMText
 10
33.40000000000001
 20
6.160000000000001
 30
0
 40
0.2
 41
0.08888888888890129
 71
    5
 72
    1
  1
5
  7
standard
210
0
220
0
230
1
 50
0
 73
    2
 44
1
  0
SOLID
  5
1B5
100
AcDbEntity
  8
maße
  6
ByBlock
 62
    0
370
   -2
100
AcDbTrace
 10
33.13
 20
5.960000000000001
 30
0
 11
33.33000000000001
 21
5.993302772621828
 31
0
 12
33.33000000000001
 22
5.926697227378174
 32
0
 13
33.33000000000001
 23
5.926697227378174
 33
0
  0
SOLID
  5
1B6
100
AcDbEntity
  8
maße
  6
ByBlock
 62
    0
370
   -2
100
AcDbTrace
 10
33.67
 20
5.960000000000001
 30
0
 11
33.47
 21
5.926697227378174
 31
0
 12
33.47
 22
5.993302772621828
 32
0
 13
33.47
 23
5.993302772621828
 33
0
  0
LINE
  5
1B7
100
AcDbEntity
  8
maße
  6
ByBlock
 62
    0
370
   -2
100
AcDbLine
 10
33.13
 20
5.870000000000001
 11
33.13
 21
6.360000000000001
  0
LINE
  5
1B8
100
AcDbEntity
  8
maße
  6
ByBlock
 62
    0
370
   -2
100
AcDbLine
 10
33.67
 20
5.870000000000001
 11
33.67
 21
6.360000000000001
  0
ENDBLK
  5
BD
330
BB
100
AcDbEntity
  8
0
100
AcDbBlockEnd
  0
BLOCK
  5
BF
330
BE
100
AcDbEntity
  8
0
100
AcDbBlockBegin
  2
*D47
 70
    1
 10
0
 20
0
  3
*D47
  1

  0
LINE
  5
1B9
100
AcDbEntity
  8
maße
  6
ByBlock
 62
    0
370
   -2
100
AcDbLine
 10
26.1
 20
-0.6000000000000041
 11
26.1
 21
-1.200000000000005
  0
LINE
  5
1BA
100
AcDbEntity
  8
maße
  6
ByBlock
 62
    0
370
   -2
100
AcDbLine
 10
19.09999999999999
 20
-0.6000000000000041
 11
19.09999999999999
 21
-1.200000000000005
  0
LINE
  5
1BB
100
AcDbEntity
  8
maße
  6
ByBlock
 62
    0
370
   -2
100
AcDbLine
 10
26.1
 20
-0.8000000000000047
 11
19.09999999999999
 21
-0.8000000000000047
  0
MTEXT
  5
1BC
100
AcDbEntity
  8
maße
  6
CONTINUOUS
 62
    0
370
   -2
100
AcDbMText
 10
22.59999999999999
 20
-0.6000000000000048
 30
0
 40
0.2
 41
0.2444444444444444
 71
    5
 72
    1
  1
70
  7
standard
210
0
220
0
230
1
 50
0
 73
    2
 44
1
  0
SOLID
  5
1BD
100
AcDbEntity
  8
maße
  6
ByBlock
 62
    0
370
   -2
100
AcDbTrace
 10
26.1
 20
-0.8000000000000047
 30
0
 11
25.9
 21
-0.8333027726218319
 31
0
 12
25.9
 22
-0.7666972273781775
 32
0
 13
25.9
 23
-0.7666972273781775
 33
0
  0
SOLID
  5
1BE
100
AcDbEntity
  8
maße
  6
ByBlock
 62
    0
370
   -2
100
AcDbTrace
 10
19.09999999999999
 20
-0.8000000000000047
 30
0
 11
19.29999999999999
 21
-0.7666972273781775
 31
0
 12
19.29999999999999
 22
-0.8333027726218319
 32
0
 13
19.29999999999999
 23
-0.8333027726218319
 33
0
  0
ENDBLK
  5
C0
330
BE
100
AcDbEntity
  8
0
100
AcDbBlockEnd
  0
BLOCK
  5
C2
330
C1
100
AcDbEntity
  8
0
100
AcDbBlockBegin
  2
*D45
 70
    1
 10
0
 20
0
  3
*D45
  1

  0
LINE
  5
1BF
100
AcDbEntity
  8
maße
  6
ByBlock
 62
    0
370
   -2
100
AcDbLine
 10
-2.1
 20
-0.6000000000000002
 11
-2.100000000000003
 21
-1.2
  0
LINE
  5
1C0
100
AcDbEntity
  8
maße
  6
ByBlock
 62
    0
370
   -2
100
AcDbLine
 10
4.9
 20
-0.6000000000000002
 11
4.899999999999998
 21
-1.2
  0
LINE
  5
1C1
100
AcDbEntity
  8
maße
  6
ByBlock
 62
    0
370
   -2
100
AcDbLine
 10
-2.100000000000001
 20
-0.8000000000000003
 11
4.899999999999999
 21
-0.8000000000000003
  0
MTEXT
  5
1C2
100
AcDbEntity
  8
maße
  6
CONTINUOUS
 62
    0
370
   -2
100
AcDbMText
 10
1.400000000000002
 20
-0.6000000000000003
 30
0
 40
0.2
 41
0.2444444444444444
 71
    5
 72
    1
  1
70
  7
standard
210
0
220
0
230
1
 50
0
 73
    2
 44
1
  0
SOLID
  5
1C3
100
AcDbEntity
  8
maße
  6
ByBlock
 62
    0
370
   -2
100
AcDbTrace
 10
-2.100000000000001
 20
-0.8000000000000003
 30
0
 11
-1.900000000000001
 21
-0.766697227378173
 31
0
 12
-1.900000000000001
 22
-0.8333027726218275
 32
0
 13
-1.900000000000001
 23
-0.8333027726218275
 33
0
  0
SOLID
  5
1C4
100
AcDbEntity
  8
maße
  6
ByBlock
 62
    0
370
   -2
100
AcDbTrace
 10
4.899999999999999
 20
-0.8000000000000003
 30
0
 11
4.699999999999999
 21
-0.8333027726218275
 31
0
 12
4.699999999999999
 22
-0.766697227378173
 32
0
 13
4.699999999999999
 23
-0.766697227378173
 33
0
  0
ENDBLK
  5
C3
330
C1
100
AcDbEntity
  8
0
100
AcDbBlockEnd
  0
BLOCK
  5
C5
330
C4
100
AcDbEntity
  8
0
100
AcDbBlockBegin
  2
*D17
 70
    1
 10
0
 20
0
  3
*D17
  1

  0
LINE
  5
1C5
100
AcDbEntity
  8
maße
  6
ByBlock
 62
    0
370
   -2
100
AcDbLine
 10
24
 20
15.2
 11
24
 21
16.4
  0
LINE
  5
1C6
100
AcDbEntity
  8
maße
  6
ByBlock
 62
    0
370
   -2
100
AcDbLine
 10
23.6
 20
15.2
 11
23.6
 21
16.4
  0
LINE
  5
1C7
100
AcDbEntity
  8
maße
  6
ByBlock
 62
    0
370
   -2
100
AcDbLine
 10
24.4
 20
16
 11
23.2
 21
16
  0
MTEXT
  5
1C8
100
AcDbEntity
  8
maße
  6
CONTINUOUS
 62
    0
370
   -2
100
AcDbMText
 10
23.8
 20
16.2
 30
0
 40
0.2
 41
0.1111111111111111
 71
    5
 72
    1
  1
4
  7
standard
210
0
220
0
230
1
 50
0
 73
    2
 44
1
  0
SOLID
  5
1C9
100
AcDbEntity
  8
maße
  6
ByBlock
 62
    0
370
   -2
100
AcDbTrace
 10
24
 20
16
 30
0
 11
24.2
 21
16.03330277262183
 31
0
 12
24.2
 22
15.96669722737817
 32
0
 13
24.2
 23
15.96669722737817
 33
0
  0
SOLID
  5
1CA
100
AcDbEntity
  8
maße
  6
ByBlock
 62
    0
370
   -2
100
AcDbTrace
 10
23.6
 20
16
 30
0
 11
23.4
 21
15.96669722737817
 31
0
 12
23.4
 22
16.03330277262183
 32
0
 13
23.4
 23
16.03330277262183
 33
0
  0
ENDBLK
  5
C6
330
C4
100
AcDbEntity
  8
0
100
AcDbBlockEnd
  0
BLOCK
  5
C8
330
C7
100
AcDbEntity
  8
0
100
AcDbBlockBegin
  2
*D27
 70
    1
 10
0
 20
0
  3
*D27
  1

  0
LINE
  5
1CB
100
AcDbEntity
  8
maße
  6
ByBlock
 62
    0
370
   -2
100
AcDbLine
 10
23.8
 20
5
 11
22.7
 21
5
  0
LINE
  5
1CC
100
AcDbEntity
  8
maße
  6
ByBlock
 62
    0
370
   -2
100
AcDbLine
 10
23.8
 20
3.5
 11
22.7
 21
3.5
  0
LINE
  5
1CD
100
AcDbEntity
  8
maße
  6
ByBlock
 62
    0
370
   -2
100
AcDbLine
 10
23.1
 20
5
 11
23.1
 21
3.5
  0
MTEXT
  5
1CE
100
AcDbEntity
  8
maße
  6
CONTINUOUS
 62
    0
370
   -2
100
AcDbMText
 10
22.9
 20
4.25
 30
0
 40
0.2
 41
0.2000000000000124
 71
    5
 72
    1
  1
15
  7
standard
210
0
220
0
230
1
 50
90
 73
    2
 44
1
  0
SOLID
  5
1CF
100
AcDbEntity
  8
maße
  6
ByBlock
 62
    0
370
   -2
100
AcDbTrace
 10
23.1
 20
5
 30
0
 11
23.13330277262183
 21
4.8
 31
0
 12
23.06669722737817
 22
4.8
 32
0
 13
23.06669722737817
 23
4.8
 33
0
  0
SOLID
  5
1D0
100
AcDbEntity
  8
maße
  6
ByBlock
 62
    0
370
   -2
100
AcDbTrace
 10
23.1
 20
3.5
 30
0
 11
23.06669722737817
 21
3.7
 31
0
 12
23.13330277262183
 22
3.7
 32
0
 13
23.13330277262183
 23
3.7
 33
0
  0
ENDBLK
  5
C9
330
C7
100
AcDbEntity
  8
0
100
AcDbBlockEnd
  0
BLOCK
  5
CB
330
CA
100
AcDbEntity
  8
0
100
AcDbBlockBegin
  2
*D29
 70
    1
 10
0
 20
0
  3
*D29
  1

  0
ARC
  5
1D1
100
AcDbEntity
  8
maße
  6
ByBlock
 62
    0
370
   -2
100
AcDbCircle
 10
0
 20
5
 40
0.5830951894845298
100
AcDbArc
 50
90
 51
180
  0
SOLID
  5
1D2
100
AcDbEntity
  8
maße
  6
ByBlock
 62
    0
370
   -2
100
AcDbTrace
 10
3.570428287002244e-17
 20
5.58309518948453
 30
0
 11
-0.1913826026553011
 21
5.516149136089394
 31
0
 12
-0.2027494478078272
 22
5.581777586387135
 32
0
 13
-0.2027494478078272
 23
5.581777586387135
 33
0
  0
SOLID
  5
1D3
100
AcDbEntity
  8
maße
  6
ByBlock
 62
    0
370
   -2
100
AcDbTrace
 10
-0.5830951894845298
 20
5
 30
0
 11
-0.5817775863871356
 21
5.202749447807827
 31
0
 12
-0.5161491360893951
 22
5.191382602655302
 32
0
 13
-0.5161491360893951
 23
5.191382602655302
 33
0
  0
MTEXT
  5
1D4
100
AcDbEntity
  8
maße
  6
CONTINUOUS
 62
    0
370
   -2
100
AcDbMText
 10
-0.4830212406804205
 20
5.48302124068042
 30
0
 40
0.2
 41
0.3777777777778025
 71
    8
 72
    1
  1
90%%D
  7
standard
210
0
220
0
230
1
 50
404.9999999999999
 73
    2
 44
1
  0
ENDBLK
  5
CC
330
CA
100
AcDbEntity
  8
0
100
AcDbBlockEnd
  0
BLOCK
  5
CE
330
CD
100
AcDbEntity
  8
0
100
AcDbBlockBegin
  2
*D35
 70
    1
 10
0
 20
0
  3
*D35
  1

  0
LINE
  5
1D5
100
AcDbEntity
  8
maße
  6
ByBlock
 62
    0
370
   -2
100
AcDbLine
 10
7.9
 20
-5.6
 11
7.9
 21
-5.199999999999999
  0
LINE
  5
1D6
100
AcDbEntity
  8
maße
  6
ByBlock
 62
    0
370
   -2
100
AcDbLine
 10
14.9
 20
-5.599999999999998
 11
14.9
 21
-5.199999999999998
  0
LINE
  5
1D7
100
AcDbEntity
  8
maße
  6
ByBlock
 62
    0
370
   -2
100
AcDbLine
 10
7.9
 20
-5.6
 11
14.9
 21
-5.599999999999998
  0
MTEXT
  5
1D8
100
AcDbEntity
  8
maße
  6
CONTINUOUS
 62
    0
370
   -2
100
AcDbMText
 10
11.4
 20
-5.399999999999999
 30
0
 40
0.2
 41
0.2444444444444444
 71
    5
 72
    1
  1
70
  7
standard
210
0
220
0
230
1
 50
2.544443745170813e-14
 73
    2
 44
1
  0
SOLID
  5
1D9
100
AcDbEntity
  8
maße
  6
ByBlock
 62
    0
370
   -2
100
AcDbTrace
 10
7.9
 20
-5.6
 30
0
 11
8.1
 21
-5.566697227378173
 31
0
 12
8.1
 22
-5.633302772621827
 32
0
 13
8.1
 23
-5.633302772621827
 33
0
  0
SOLID
  5
1DA
100
AcDbEntity
  8
maße
  6
ByBlock
 62
    0
370
   -2
100
AcDbTrace
 10
14.9
 20
-5.599999999999998
 30
0
 11
14.7
 21
-5.633302772621825
 31
0
 12
14.7
 22
-5.566697227378171
 32
0
 13
14.7
 23
-5.566697227378171
 33
0
  0
ENDBLK
  5
CF
330
CD
100
AcDbEntity
  8
0
100
AcDbBlockEnd
  0
BLOCK
  5
D1
330
D0
100
AcDbEntity
  8
0
100
AcDbBlockBegin
  2
*D43
 70
    1
 10
0
 20
0
  3
*D43
  1

  0
LINE
  5
1DB
100
AcDbEntity
  8
maße
  6
ByBlock
 62
    0
370
   -2
100
AcDbLine
 10
7.800000000000001
 20
29.4
 11
7.800000000000001
 21
29.8
  0
LINE
  5
1DC
100
AcDbEntity
  8
maße
  6
ByBlock
 62
    0
370
   -2
100
AcDbLine
 10
14.8
 20
29.4
 11
14.8
 21
29.8
  0
LINE
  5
1DD
100
AcDbEntity
  8
maße
  6
ByBlock
 62
    0
370
   -2
100
AcDbLine
 10
7.800000000000001
 20
29.4
 11
14.8
 21
29.4
  0
MTEXT
  5
1DE
100
AcDbEntity
  8
maße
  6
CONTINUOUS
 62
    0
370
   -2
100
AcDbMText
 10
11.3
 20
29.6
 30
0
 40
0.2
 41
0.2444444444444444
 71
    5
 72
    1
  1
70
  7
standard
210
0
220
0
230
1
 50
0
 73
    2
 44
1
  0
SOLID
  5
1DF
100
AcDbEntity
  8
maße
  6
ByBlock
 62
    0
370
   -2
100
AcDbTrace
 10
7.800000000000001
 20
29.4
 30
0
 11
8
 21
29.43330277262183
 31
0
 12
8
 22
29.36669722737817
 32
0
 13
8
 23
29.36669722737817
 33
0
  0
SOLID
  5
1E0
100
AcDbEntity
  8
maße
  6
ByBlock
 62
    0
370
   -2
100
AcDbTrace
 10
14.8
 20
29.4
 30
0
 11
14.6
 21
29.36669722737817
 31
0
 12
14.6
 22
29.43330277262183
 32
0
 13
14.6
 23
29.43330277262183
 33
0
  0
ENDBLK
  5
D2
330
D0
100
AcDbEntity
  8
0
100
AcDbBlockEnd
  0
BLOCK
  5
D4
330
D3
100
AcDbEntity
  8
0
100
AcDbBlockBegin
  2
*D22
 70
    1
 10
0
 20
0
  3
*D22
  1

  0
LINE
  5
1E1
100
AcDbEntity
  8
maße
  6
ByBlock
 62
    0
370
   -2
100
AcDbLine
 10
37.10000000000002
 20
0
 11
37.7
 21
0
  0
LINE
  5
1E2
100
AcDbEntity
  8
maße
  6
ByBlock
 62
    0
370
   -2
100
AcDbLine
 10
37.10000000000002
 20
-0.3999999999999986
 11
37.7
 21
-0.3999999999999986
  0
LINE
  5
1E3
100
AcDbEntity
  8
maße
  6
ByBlock
 62
    0
370
   -2
100
AcDbLine
 10
37.3
 20
0.4
 11
37.3
 21
-0.7999999999999986
  0
MTEXT
  5
1E4
100
AcDbEntity
  8
maße
  6
CONTINUOUS
 62
    0
370
   -2
100
AcDbMText
 10
37.09999999999999
 20
-0.1999999999999993
 30
0
 40
0.2
 41
0.1111111111111111
 71
    5
 72
    1
  1
4
  7
standard
210
0
220
0
230
1
 50
90
 73
    2
 44
1
  0
SOLID
  5
1E5
100
AcDbEntity
  8
maße
  6
ByBlock
 62
    0
370
   -2
100
AcDbTrace
 10
37.3
 20
0
 30
0
 11
37.26669722737817
 21
0.2
 31
0
 12
37.33330277262183
 22
0.2
 32
0
 13
37.33330277262183
 23
0.2
 33
0
  0
SOLID
  5
1E6
100
AcDbEntity
  8
maße
  6
ByBlock
 62
    0
370
   -2
100
AcDbTrace
 10
37.3
 20
-0.3999999999999986
 30
0
 11
37.33330277262183
 21
-0.5999999999999985
 31
0
 12
37.26669722737817
 22
-0.5999999999999985
 32
0
 13
37.26669722737817
 23
-0.5999999999999985
 33
0
  0
ENDBLK
  5
D5
330
D3
100
AcDbEntity
  8
0
100
AcDbBlockEnd
  0
BLOCK
  5
D7
330
D6
100
AcDbEntity
  8
0
100
AcDbBlockBegin
  2
*D14
 70
    1
 10
0
 20
0
  3
*D14
  1

  0
LINE
  5
1E7
100
AcDbEntity
  8
maße
  6
ByBlock
 62
    0
370
   -2
100
AcDbLine
 10
26.12
 20
4.84
 11
26.504
 21
4.328
  0
LINE
  5
1E8
100
AcDbEntity
  8
maße
  6
ByBlock
 62
    0
370
   -2
100
AcDbLine
 10
24.12
 20
3.34
 11
24.504
 21
2.828000000000001
  0
LINE
  5
1E9
100
AcDbEntity
  8
maße
  6
ByBlock
 62
    0
370
   -2
100
AcDbLine
 10
26.264
 20
4.648000000000001
 11
24.264
 21
3.148000000000001
  0
MTEXT
  5
1EA
100
AcDbEntity
  8
maße
  6
CONTINUOUS
 62
    0
370
   -2
100
AcDbMText
 10
25.144
 20
4.058000000000001
 30
0
 40
0.2
 41
0.2444444444444568
 71
    5
 72
    1
  1
25
  7
standard
210
0
220
0
230
1
 50
36.86989764584401
 73
    2
 44
1
  0
SOLID
  5
1EB
100
AcDbEntity
  8
maße
  6
ByBlock
 62
    0
370
   -2
100
AcDbTrace
 10
26.264
 20
4.648000000000001
 30
0
 11
26.12398166357309
 21
4.501357781902539
 31
0
 12
26.0840183364269
 22
4.554642218097462
 32
0
 13
26.0840183364269
 23
4.554642218097462
 33
0
  0
SOLID
  5
1EC
100
AcDbEntity
  8
maße
  6
ByBlock
 62
    0
370
   -2
100
AcDbTrace
 10
24.264
 20
3.148000000000001
 30
0
 11
24.4040183364269
 21
3.294642218097463
 31
0
 12
24.44398166357309
 22
3.241357781902539
 32
0
 13
24.44398166357309
 23
3.241357781902539
 33
0
  0
ENDBLK
  5
D8
330
D6
100
AcDbEntity
  8
0
100
AcDbBlockEnd
  0
BLOCK
  5
DA
330
D9
100
AcDbEntity
  8
0
100
AcDbBlockBegin
  2
*D11
 70
    1
 10
0
 20
0
  3
*D11
  1

  0
LINE
  5
1ED
100
AcDbEntity
  8
maße
  6
ByBlock
 62
    0
370
   -2
100
AcDbLine
 10
13
 20
15
 11
13.6
 21
15
  0
LINE
  5
1EE
100
AcDbEntity
  8
maße
  6
ByBlock
 62
    0
370
   -2
100
AcDbLine
 10
13
 20
0
 11
13.6
 21
0
  0
LINE
  5
1EF
100
AcDbEntity
  8
maße
  6
ByBlock
 62
    0
370
   -2
100
AcDbLine
 10
13.2
 20
15
 11
13.2
 21
0
  0
MTEXT
  5
1F0
100
AcDbEntity
  8
maße
  6
CONTINUOUS
 62
    0
370
   -2
100
AcDbMText
 10
13
 20
7.5
 30
0
 40
0.2
 41
0.3555555555555679
 71
    5
 72
    1
  1
150
  7
standard
210
0
220
0
230
1
 50
90
 73
    2
 44
1
  0
SOLID
  5
1F1
100
AcDbEntity
  8
maße
  6
ByBlock
 62
    0
370
   -2
100
AcDbTrace
 10
13.2
 20
15
 30
0
 11
13.23330277262183
 21
14.8
 31
0
 12
13.16669722737817
 22
14.8
 32
0
 13
13.16669722737817
 23
14.8
 33
0
  0
SOLID
  5
1F2
100
AcDbEntity
  8
maße
  6
ByBlock
 62
    0
370
   -2
100
AcDbTrace
 10
13.2
 20
0
 30
0
 11
13.16669722737817
 21
0.2
 31
0
 12
13.23330277262183
 22
0.2
 32
0
 13
13.23330277262183
 23
0.2
 33
0
  0
ENDBLK
  5
DB
330
D9
100
AcDbEntity
  8
0
100
AcDbBlockEnd
  0
BLOCK
  5
DD
330
DC
100
AcDbEntity
  8
0
100
AcDbBlockBegin
  2
*D41
 70
    1
 10
0
 20
0
  3
*D41
  1

  0
LINE
  5
1F3
100
AcDbEntity
  8
maße
  6
ByBlock
 62
    0
370
   -2
100
AcDbLine
 10
10
 20
-12.9
 11
10
 21
-13.5
  0
LINE
  5
1F4
100
AcDbEntity
  8
maße
  6
ByBlock
 62
    0
370
   -2
100
AcDbLine
 10
12.8
 20
-12.9
 11
12.8
 21
-13.5
  0
LINE
  5
1F5
100
AcDbEntity
  8
maße
  6
ByBlock
 62
    0
370
   -2
100
AcDbLine
 10
10
 20
-13.1
 11
12.8
 21
-13.1
  0
MTEXT
  5
1F6
100
AcDbEntity
  8
maße
  6
CONTINUOUS
 62
    0
370
   -2
100
AcDbMText
 10
11.4
 20
-12.9
 30
0
 40
0.2
 41
0.2444444444444445
 71
    5
 72
    1
  1
28
  7
standard
210
0
220
0
230
1
 50
0
 73
    2
 44
1
  0
SOLID
  5
1F7
100
AcDbEntity
  8
maße
  6
ByBlock
 62
    0
370
   -2
100
AcDbTrace
 10
10
 20
-13.1
 30
0
 11
10.2
 21
-13.06669722737817
 31
0
 12
10.2
 22
-13.13330277262183
 32
0
 13
10.2
 23
-13.13330277262183
 33
0
  0
SOLID
  5
1F8
100
AcDbEntity
  8
maße
  6
ByBlock
 62
    0
370
   -2
100
AcDbTrace
 10
12.8
 20
-13.1
 30
0
 11
12.6
 21
-13.13330277262183
 31
0
 12
12.6
 22
-13.06669722737817
 32
0
 13
12.6
 23
-13.06669722737817
 33
0
  0
ENDBLK
  5
DE
330
DC
100
AcDbEntity
  8
0
100
AcDbBlockEnd
  0
BLOCK
  5
E0
330
DF
100
AcDbEntity
  8
0
100
AcDbBlockBegin
  2
*D33
 70
    1
 10
0
 20
0
  3
*D33
  1

  0
ARC
  5
1F9
100
AcDbEntity
  8
maße
  6
ByBlock
 62
    0
370
   -2
100
AcDbCircle
 10
32
 20
-0
 40
0.6708203932499373
100
AcDbArc
 50
0
 51
90
  0
SOLID
  5
1FA
100
AcDbEntity
  8
maße
  6
ByBlock
 62
    0
370
   -2
100
AcDbTrace
 10
32.67082039324994
 20
0
 30
0
 11
32.60818302748272
 21
0.192835772288353
 31
0
 12
32.67404988058226
 22
0.2027280076256646
 32
0
 13
32.67404988058226
 23
0.2027280076256646
 33
0
  0
SOLID
  5
1FB
100
AcDbEntity
  8
maße
  6
ByBlock
 62
    0
370
   -2
100
AcDbTrace
 10
32
 20
0.6708203932499373
 30
0
 11
32.20272800762567
 21
0.6740498805822602
 31
0
 12
32.19283577228835
 22
0.608183027482725
 32
0
 13
32.19283577228835
 23
0.608183027482725
 33
0
  0
MTEXT
  5
1FC
100
AcDbEntity
  8
maße
  6
CONTINUOUS
 62
    0
370
   -2
100
AcDbMText
 10
32.54505232714391
 20
0.5450523271439119
 30
0
 40
0.2
 41
0.3777777777778025
 71
    8
 72
    1
  1
90%%D
  7
standard
210
0
220
0
230
1
 50
315.0000000000001
 73
    2
 44
1
  0
ENDBLK
  5
E1
330
DF
100
AcDbEntity
  8
0
100
AcDbBlockEnd
  0
BLOCK
  5
E3
330
E2
100
AcDbEntity
  8
0
100
AcDbBlockBegin
  2
*D44
 70
    1
 10
0
 20
0
  3
*D44
  1

  0
LINE
  5
1FD
100
AcDbEntity
  8
maße
  6
ByBlock
 62
    0
370
   -2
100
AcDbLine
 10
7.600000000000001
 20
29.2
 11
7.200000000000001
 21
29.2
  0
LINE
  5
1FE
100
AcDbEntity
  8
maße
  6
ByBlock
 62
    0
370
   -2
100
AcDbLine
 10
7.600000000000001
 20
22.2
 11
7.200000000000001
 21
22.2
  0
LINE
  5
1FF
100
AcDbEntity
  8
maße
  6
ByBlock
 62
    0
370
   -2
100
AcDbLine
 10
7.600000000000001
 20
29.2
 11
7.600000000000001
 21
22.2
  0
MTEXT
  5
200
100
AcDbEntity
  8
maße
  6
CONTINUOUS
 62
    0
370
   -2
100
AcDbMText
 10
7.400000000000001
 20
25.7
 30
0
 40
0.2
 41
0.2444444444444444
 71
    5
 72
    1
  1
70
  7
standard
210
0
220
0
230
1
 50
90
 73
    2
 44
1
  0
SOLID
  5
201
100
AcDbEntity
  8
maße
  6
ByBlock
 62
    0
370
   -2
100
AcDbTrace
 10
7.600000000000001
 20
29.2
 30
0
 11
7.633302772621828
 21
29
 31
0
 12
7.566697227378175
 22
29
 32
0
 13
7.566697227378175
 23
29
 33
0
  0
SOLID
  5
202
100
AcDbEntity
  8
maße
  6
ByBlock
 62
    0
370
   -2
100
AcDbTrace
 10
7.600000000000001
 20
22.2
 30
0
 11
7.566697227378175
 21
22.4
 31
0
 12
7.633302772621828
 22
22.4
 32
0
 13
7.633302772621828
 23
22.4
 33
0
  0
ENDBLK
  5
E4
330
E2
100
AcDbEntity
  8
0
100
AcDbBlockEnd
  0
ENDSEC
  0
SECTION
  2
ENTITIES
  0
LINE
  5
203
100
AcDbEntity
  8
0
  6
ByLayer
 62
  256
370
   -1
100
AcDbLine
 10
0
 20
0
 11
2.8
 21
0
  0
LINE
  5
204
100
AcDbEntity
  8
0
  6
ByLayer
 62
  256
370
   -1
100
AcDbLine
 10
2.8
 20
0
 11
2.8
 21
15
  0
LINE
  5
205
100
AcDbEntity
  8
0
  6
ByLayer
 62
  256
370
   -1
100
AcDbLine
 10
2.8
 20
15
 11
0
 21
15
  0
LINE
  5
206
100
AcDbEntity
  8
0
  6
ByLayer
 62
  256
370
   -1
100
AcDbLine
 10
0
 20
0
 11
0
 21
15
  0
LINE
  5
207
100
AcDbEntity
  8
0
  6
ByLayer
 62
  256
370
   -1
100
AcDbLine
 10
-2.1
 20
0
 11
0
 21
0
  0
LINE
  5
208
100
AcDbEntity
  8
0
  6
ByLayer
 62
  256
370
   -1
100
AcDbLine
 10
0
 20
0
 11
-2.1
 21
0
  0
LINE
  5
209
100
AcDbEntity
  8
0
  6
ByLayer
 62
  256
370
   -1
100
AcDbLine
 10
-2.1
 20
0
 11
-2.1
 21
-0.4
  0
LINE
  5
20A
100
AcDbEntity
  8
0
  6
ByLayer
 62
  256
370
   -1
100
AcDbLine
 10
-2.1
 20
-0.4
 11
4.9
 21
-0.4
  0
LINE
  5
20B
100
AcDbEntity
  8
0
  6
ByLayer
 62
  256
370
   -1
100
AcDbLine
 10
4.9
 20
-0.4
 11
4.9
 21
0
  0
LINE
  5
20C
100
AcDbEntity
  8
0
  6
ByLayer
 62
  256
370
   -1
100
AcDbLine
 10
4.9
 20
0
 11
-2.1
 21
0
  0
LINE
  5
20D
100
AcDbEntity
  8
0
  6
ByLayer
 62
  256
370
   -1
100
AcDbLine
 10
5.551115123125783e-17
 20
5.551115123125783e-17
 11
0.4000000000000001
 21
5.551115123125783e-17
  0
LINE
  5
20E
100
AcDbEntity
  8
0
  6
ByLayer
 62
  256
370
   -1
100
AcDbLine
 10
0.4000000000000001
 20
5.551115123125783e-17
 11
0.4000000000000001
 21
15
  0
LINE
  5
20F
100
AcDbEntity
  8
0
  6
ByLayer
 62
  256
370
   -1
100
AcDbLine
 10
2.4
 20
-2.775557561562891e-17
 11
2.4
 21
15
  0
LINE
  5
210
100
AcDbEntity
  8
0
  6
ByLayer
 62
  256
370
   -1
100
AcDbLine
 10
0
 20
5
 11
-2
 21
5
  0
LINE
  5
211
100
AcDbEntity
  8
0
  6
ByLayer
 62
  256
370
   -1
100
AcDbLine
 10
-2
 20
5
 11
-2
 21
5.4
  0
LINE
  5
212
100
AcDbEntity
  8
0
  6
ByLayer
 62
  256
370
   -1
100
AcDbLine
 10
-2
 20
5.4
 11
2.775557561562891e-16
 21
5.4
  0
LINE
  5
213
100
AcDbEntity
  8
0
  6
ByLayer
 62
  256
370
   -1
100
AcDbLine
 10
5.551115123125783e-17
 20
5
 11
5.551115123125783e-17
 21
3.5
  0
LINE
  5
214
100
AcDbEntity
  8
0
  6
ByLayer
 62
  256
370
   -1
100
AcDbLine
 10
5.551115123125783e-17
 20
3.5
 11
-2
 21
5
  0
DIMENSION
  5
215
100
AcDbEntity
  8
maße
  6
ByLayer
 62
  256
370
   -1
100
AcDbDimension
  2
*D1
 10
5.300000000000001
 20
-0.4000000000000002
 30
0
 11
5.100000000000001
 21
-0.2000000000000002
 31
0
 70
   33
 71
    5
  3
Standard
 53
0
210
0
220
0
230
1
100
AcDbAlignedDimension
 13
4.900000000000001
 23
-2.220446049250313e-16
 33
0
 14
4.900000000000001
 24
-0.4000000000000002
 34
0
  0
DIMENSION
  5
216
100
AcDbEntity
  8
maße
  6
ByLayer
 62
  256
370
   -1
100
AcDbDimension
  2
*D2
 10
-0.2639999999999995
 20
3.148000000000001
 30
0
 11
-1.144
 21
4.058000000000002
 31
0
 70
   33
 71
    5
  3
Standard
 53
0
210
0
220
0
230
1
100
AcDbAlignedDimension
 13
-2
 23
5
 33
0
 14
1.387778780781446e-16
 24
3.5
 34
0
  0
DIMENSION
  5
217
100
AcDbEntity
  8
maße
  6
ByLayer
 62
  256
370
   -1
100
AcDbDimension
  2
*D3
 10
-9.385873628418631e-18
 20
5.7
 30
0
 11
-0.9999999999999998
 21
5.9
 31
0
 70
   33
 71
    5
  3
Standard
 53
0
210
0
220
0
230
1
100
AcDbAlignedDimension
 13
-2
 23
5.4
 33
0
 14
1.387778780781446e-16
 24
5.4
 34
0
  0
DIMENSION
  5
218
100
AcDbEntity
  8
maße
  6
ByLayer
 62
  256
370
   -1
100
AcDbDimension
  2
*D4
 10
-2.3
 20
5
 30
0
 11
-2.5
 21
5.2
 31
0
 70
   33
 71
    5
  3
Standard
 53
0
210
0
220
0
230
1
100
AcDbAlignedDimension
 13
-2
 23
5.4
 33
0
 14
-2
 24
5
 34
0
  0
DIMENSION
  5
219
100
AcDbEntity
  8
maße
  6
ByLayer
 62
  256
370
   -1
100
AcDbDimension
  2
*D5
 10
0.4000000000000002
 20
16
 30
0
 11
0.2000000000000003
 21
16.2
 31
0
 70
   33
 71
    5
  3
Standard
 53
0
210
0
220
0
230
1
100
AcDbAlignedDimension
 13
2.220446049250313e-16
 23
15
 33
0
 14
0.4000000000000002
 24
15
 34
0
  0
DIMENSION
  5
21A
100
AcDbEntity
  8
maße
  6
ByLayer
 62
  256
370
   -1
100
AcDbDimension
  2
*D6
 10
2.8
 20
16
 30
0
 11
2.6
 21
16.2
 31
0
 70
   33
 71
    5
  3
Standard
 53
0
210
0
220
0
230
1
100
AcDbAlignedDimension
 13
2.4
 23
15
 33
0
 14
2.8
 24
15
 34
0
  0
DIMENSION
  5
21B
100
AcDbEntity
  8
maße
  6
ByLayer
 62
  256
370
   -1
100
AcDbDimension
  2
*D7
 10
3.2
 20
-1.81238470778675e-16
 30
0
 11
3
 21
7.5
 31
0
 70
   33
 71
    5
  3
Standard
 53
0
210
0
220
0
230
1
100
AcDbAlignedDimension
 13
2.8
 23
15
 33
0
 14
2.8
 24
-2.775557561562891e-17
 34
0
  0
LINE
  5
21C
100
AcDbEntity
  8
0
  6
ByLayer
 62
  256
370
   -1
100
AcDbLine
 10
-5.551115123125783e-17
 20
-1.942890293094024e-16
 11
0.4
 21
-1.942890293094024e-16
  0
LINE
  5
21D
100
AcDbEntity
  8
0
  6
ByLayer
 62
  256
370
   -1
100
AcDbLine
 10
2.4
 20
-1.942890293094024e-16
 11
2.8
 21
-1.942890293094024e-16
  0
LINE
  5
21E
100
AcDbEntity
  8
0
  6
ByLayer
 62
  256
370
   -1
100
AcDbLine
 10
0
 20
15
 11
0.4
 21
15
  0
LINE
  5
21F
100
AcDbEntity
  8
0
  6
ByLayer
 62
  256
370
   -1
100
AcDbLine
 10
2.4
 20
15
 11
2.8
 21
15
  0
LINE
  5
220
100
AcDbEntity
  8
0
  6
ByLayer
 62
  256
370
   -1
100
AcDbLine
 10
2.220446049250313e-16
 20
5
 11
2.220446049250313e-16
 21
3.5
  0
LINE
  5
221
100
AcDbEntity
  8
0
  6
ByLayer
 62
  256
370
   -1
100
AcDbLine
 10
2.220446049250313e-16
 20
5.4
 11
2.220446049250313e-16
 21
5
  0
LINE
  5
222
100
AcDbEntity
  8
0
  6
ByLayer
 62
  256
370
   -1
100
AcDbLine
 10
-8.326672684688674e-17
 20
5.4
 11
-8.326672684688674e-17
 21
5
  0
LINE
  5
223
100
AcDbEntity
  8
0
  6
ByLayer
 62
  256
370
   -1
100
AcDbLine
 10
-8.326672684688674e-17
 20
3.5
 11
-8.326672684688674e-17
 21
5
  0
LINE
  5
224
100
AcDbEntity
  8
0
  6
ByLayer
 62
  256
370
   -1
100
AcDbLine
 10
-1.387778780781446e-16
 20
15
 11
0.3999999999999999
 21
15
  0
LINE
  5
225
100
AcDbEntity
  8
0
  6
ByLayer
 62
  256
370
   -1
100
AcDbLine
 10
2.4
 20
15
 11
2.8
 21
15
  0
DIMENSION
  5
226
100
AcDbEntity
  8
maße
  6
ByLayer
 62
  256
370
   -1
100
AcDbDimension
  2
*D8
 10
2.4
 20
14.6
 30
0
 11
1.4
 21
14.8
 31
0
 70
   33
 71
    5
  3
Standard
 53
0
210
0
220
0
230
1
100
AcDbAlignedDimension
 13
0.4000000000000001
 23
15
 33
0
 14
2.4
 24
15
 34
0
  0
LINE
  5
227
100
AcDbEntity
  8
0
  6
ByLayer
 62
  256
370
   -1
100
AcDbLine
 10
10
 20
0
 11
12.8
 21
0
  0
LINE
  5
228
100
AcDbEntity
  8
0
  6
ByLayer
 62
  256
370
   -1
100
AcDbLine
 10
12.8
 20
0
 11
12.8
 21
15
  0
LINE
  5
229
100
AcDbEntity
  8
0
  6
ByLayer
 62
  256
370
   -1
100
AcDbLine
 10
12.8
 20
15
 11
10
 21
15
  0
LINE
  5
22A
100
AcDbEntity
  8
0
  6
ByLayer
 62
  256
370
   -1
100
AcDbLine
 10
10
 20
0
 11
10
 21
15
  0
LINE
  5
22B
100
AcDbEntity
  8
0
  6
ByLayer
 62
  256
370
   -1
100
AcDbLine
 10
7.899999999999999
 20
0
 11
10
 21
0
  0
LINE
  5
22C
100
AcDbEntity
  8
0
  6
ByLayer
 62
  256
370
   -1
100
AcDbLine
 10
10
 20
0
 11
7.899999999999999
 21
0
  0
LINE
  5
22D
100
AcDbEntity
  8
0
  6
ByLayer
 62
  256
370
   -1
100
AcDbLine
 10
7.899999999999999
 20
0
 11
7.899999999999999
 21
-0.3999999999999986
  0
LINE
  5
22E
100
AcDbEntity
  8
0
  6
ByLayer
 62
  256
370
   -1
100
AcDbLine
 10
7.899999999999999
 20
-0.3999999999999986
 11
14.9
 21
-0.3999999999999986
  0
LINE
  5
22F
100
AcDbEntity
  8
0
  6
ByLayer
 62
  256
370
   -1
100
AcDbLine
 10
14.9
 20
-0.3999999999999986
 11
14.9
 21
0
  0
LINE
  5
230
100
AcDbEntity
  8
0
  6
ByLayer
 62
  256
370
   -1
100
AcDbLine
 10
14.9
 20
0
 11
7.899999999999999
 21
0
  0
LINE
  5
231
100
AcDbEntity
  8
0
  6
ByLayer
 62
  256
370
   -1
100
AcDbLine
 10
10
 20
0
 11
10.4
 21
0
  0
LINE
  5
232
100
AcDbEntity
  8
0
  6
ByLayer
 62
  256
370
   -1
100
AcDbLine
 10
10
 20
5
 11
10
 21
3.5
  0
DIMENSION
  5
233
100
AcDbEntity
  8
maße
  6
ByLayer
 62
  256
370
   -1
100
AcDbDimension
  2
*D9
 10
15.3
 20
-0.3999999999999986
 30
0
 11
15.1
 21
-0.1999999999999993
 31
0
 70
   33
 71
    5
  3
Standard
 53
0
210
0
220
0
230
1
100
AcDbAlignedDimension
 13
14.90000000000001
 23
0
 33
0
 14
14.90000000000001
 24
-0.3999999999999986
 34
0
  0
DIMENSION
  5
234
100
AcDbEntity
  8
maße
  6
ByLayer
 62
  256
370
   -1
100
AcDbDimension
  2
*D10
 10
12.8
 20
15.3
 30
0
 11
11.4
 21
15.5
 31
0
 70
   33
 71
    5
  3
Standard
 53
0
210
0
220
0
230
1
100
AcDbAlignedDimension
 13
10
 23
15
 33
0
 14
12.8
 24
15
 34
0
  0
DIMENSION
  5
235
100
AcDbEntity
  8
maße
  6
ByLayer
 62
  256
370
   -1
100
AcDbDimension
  2
*D11
 10
13.2
 20
0
 30
0
 11
13
 21
7.5
 31
0
 70
   33
 71
    5
  3
Standard
 53
0
210
0
220
0
230
1
100
AcDbAlignedDimension
 13
12.8
 23
15
 33
0
 14
12.8
 24
0
 34
0
  0
LINE
  5
236
100
AcDbEntity
  8
0
  6
ByLayer
 62
  256
370
   -1
100
AcDbLine
 10
10
 20
0
 11
10.4
 21
0
  0
LINE
  5
237
100
AcDbEntity
  8
0
  6
ByLayer
 62
  256
370
   -1
100
AcDbLine
 10
12.4
 20
0
 11
12.8
 21
0
  0
LINE
  5
238
100
AcDbEntity
  8
0
  6
ByLayer
 62
  256
370
   -1
100
AcDbLine
 10
10
 20
15
 11
10.4
 21
15
  0
LINE
  5
239
100
AcDbEntity
  8
0
  6
ByLayer
 62
  256
370
   -1
100
AcDbLine
 10
12.4
 20
15
 11
12.8
 21
15
  0
LINE
  5
23A
100
AcDbEntity
  8
0
  6
ByLayer
 62
  256
370
   -1
100
AcDbLine
 10
10
 20
5
 11
10
 21
3.5
  0
LINE
  5
23B
100
AcDbEntity
  8
0
  6
ByLayer
 62
  256
370
   -1
100
AcDbLine
 10
10
 20
5.4
 11
10
 21
5
  0
LINE
  5
23C
100
AcDbEntity
  8
0
  6
ByLayer
 62
  256
370
   -1
100
AcDbLine
 10
10
 20
5.4
 11
10
 21
5
  0
LINE
  5
23D
100
AcDbEntity
  8
0
  6
ByLayer
 62
  256
370
   -1
100
AcDbLine
 10
10
 20
3.5
 11
10
 21
5
  0
LINE
  5
23E
100
AcDbEntity
  8
0
  6
ByLayer
 62
  256
370
   -1
100
AcDbLine
 10
10
 20
15
 11
10.4
 21
15
  0
LINE
  5
23F
100
AcDbEntity
  8
0
  6
ByLayer
 62
  256
370
   -1
100
AcDbLine
 10
12.4
 20
15
 11
12.8
 21
15
  0
LINE
  5
240
100
AcDbEntity
  8
0
  6
DASHED2
 62
  256
370
   -1
100
AcDbLine
 10
10.4
 20
0
 11
10.4
 21
15
  0
LINE
  5
241
100
AcDbEntity
  8
0
  6
DASHED2
 62
  256
370
   -1
100
AcDbLine
 10
12.4
 20
0
 11
12.4
 21
15
  0
LINE
  5
242
100
AcDbEntity
  8
0
  6
ByLayer
 62
  256
370
   -1
100
AcDbLine
 10
10
 20
5
 11
12.8
 21
5
  0
LINE
  5
243
100
AcDbEntity
  8
0
  6
ByLayer
 62
  256
370
   -1
100
AcDbLine
 10
12.8
 20
5.4
 11
10
 21
5.4
  0
LINE
  5
244
100
AcDbEntity
  8
0
  6
ByLayer
 62
  256
370
   -1
100
AcDbLine
 10
11.6
 20
3.5
 11
11.6
 21
5
  0
LINE
  5
245
100
AcDbEntity
  8
0
  6
ByLayer
 62
  256
370
   -1
100
AcDbLine
 10
11.2
 20
3.5
 11
11.6
 21
3.5
  0
LINE
  5
246
100
AcDbEntity
  8
0
  6
ByLayer
 62
  256
370
   -1
100
AcDbLine
 10
11.2
 20
3.5
 11
11.2
 21
5
  0
DIMENSION
  5
247
100
AcDbEntity
  8
maße
  6
ByLayer
 62
  256
370
   -1
100
AcDbDimension
  2
*D12
 10
9.800000000000001
 20
5
 30
0
 11
9.600000000000001
 21
5.2
 31
0
 70
   33
 71
    5
  3
Standard
 53
0
210
0
220
0
230
1
100
AcDbAlignedDimension
 13
10
 23
5.4
 33
0
 14
10
 24
5
 34
0
  0
DIMENSION
  5
248
100
AcDbEntity
  8
maße
  6
ByLayer
 62
  256
370
   -1
100
AcDbDimension
  2
*D13
 10
11.67
 20
5.960000000000001
 30
0
 11
11.4
 21
6.160000000000001
 31
0
 70
   32
 71
    5
  3
Standard
 53
0
210
0
220
0
230
1
100
AcDbAlignedDimension
 13
11.13
 23
5.670000000000001
 33
0
 14
11.67
 24
5.670000000000001
 34
0
100
AcDbRotatedDimension
  0
LINE
  5
249
100
AcDbEntity
  8
0
  6
ByLayer
 62
  256
370
   -1
100
AcDbLine
 10
24
 20
0
 11
21.2
 21
0
  0
LINE
  5
24A
100
AcDbEntity
  8
0
  6
ByLayer
 62
  256
370
   -1
100
AcDbLine
 10
21.2
 20
0
 11
21.2
 21
15
  0
LINE
  5
24B
100
AcDbEntity
  8
0
  6
ByLayer
 62
  256
370
   -1
100
AcDbLine
 10
21.2
 20
15
 11
24
 21
15
  0
LINE
  5
24C
100
AcDbEntity
  8
0
  6
ByLayer
 62
  256
370
   -1
100
AcDbLine
 10
24
 20
0
 11
24
 21
15
  0
LINE
  5
24D
100
AcDbEntity
  8
0
  6
ByLayer
 62
  256
370
   -1
100
AcDbLine
 10
26.1
 20
0
 11
24
 21
0
  0
LINE
  5
24E
100
AcDbEntity
  8
0
  6
ByLayer
 62
  256
370
   -1
100
AcDbLine
 10
24
 20
0
 11
26.1
 21
0
  0
LINE
  5
24F
100
AcDbEntity
  8
0
  6
ByLayer
 62
  256
370
   -1
100
AcDbLine
 10
26.1
 20
0
 11
26.1
 21
-0.4000000000000042
  0
LINE
  5
250
100
AcDbEntity
  8
0
  6
ByLayer
 62
  256
370
   -1
100
AcDbLine
 10
26.1
 20
-0.4000000000000042
 11
19.1
 21
-0.4000000000000042
  0
LINE
  5
251
100
AcDbEntity
  8
0
  6
ByLayer
 62
  256
370
   -1
100
AcDbLine
 10
19.1
 20
-0.4000000000000042
 11
19.1
 21
0
  0
LINE
  5
252
100
AcDbEntity
  8
0
  6
ByLayer
 62
  256
370
   -1
100
AcDbLine
 10
19.1
 20
0
 11
26.1
 21
0
  0
LINE
  5
253
100
AcDbEntity
  8
0
  6
ByLayer
 62
  256
370
   -1
100
AcDbLine
 10
24
 20
-5.551115123125783e-17
 11
23.6
 21
-5.551115123125783e-17
  0
LINE
  5
254
100
AcDbEntity
  8
0
  6
ByLayer
 62
  256
370
   -1
100
AcDbLine
 10
23.6
 20
-5.551115123125783e-17
 11
23.6
 21
15
  0
LINE
  5
255
100
AcDbEntity
  8
0
  6
ByLayer
 62
  256
370
   -1
100
AcDbLine
 10
21.6
 20
2.775557561562891e-17
 11
21.6
 21
15
  0
LINE
  5
256
100
AcDbEntity
  8
0
  6
ByLayer
 62
  256
370
   -1
100
AcDbLine
 10
24
 20
5
 11
26
 21
5
  0
LINE
  5
257
100
AcDbEntity
  8
0
  6
ByLayer
 62
  256
370
   -1
100
AcDbLine
 10
26
 20
5
 11
26
 21
5.4
  0
LINE
  5
258
100
AcDbEntity
  8
0
  6
ByLayer
 62
  256
370
   -1
100
AcDbLine
 10
26
 20
5.4
 11
24
 21
5.4
  0
LINE
  5
259
100
AcDbEntity
  8
0
  6
ByLayer
 62
  256
370
   -1
100
AcDbLine
 10
24
 20
5
 11
24
 21
3.5
  0
LINE
  5
25A
100
AcDbEntity
  8
0
  6
ByLayer
 62
  256
370
   -1
100
AcDbLine
 10
24
 20
3.5
 11
26
 21
5
  0
DIMENSION
  5
25B
100
AcDbEntity
  8
maße
  6
ByLayer
 62
  256
370
   -1
100
AcDbDimension
  2
*D14
 10
24.264
 20
3.148000000000001
 30
0
 11
25.144
 21
4.058000000000001
 31
0
 70
   33
 71
    5
  3
Standard
 53
0
210
0
220
0
230
1
100
AcDbAlignedDimension
 13
26
 23
5
 33
0
 14
24
 24
3.5
 34
0
  0
DIMENSION
  5
25C
100
AcDbEntity
  8
maße
  6
ByLayer
 62
  256
370
   -1
100
AcDbDimension
  2
*D15
 10
24
 20
5.699999999999998
 30
0
 11
25
 21
5.899999999999999
 31
0
 70
   33
 71
    5
  3
Standard
 53
0
210
0
220
0
230
1
100
AcDbAlignedDimension
 13
26
 23
5.4
 33
0
 14
24
 24
5.4
 34
0
  0
DIMENSION
  5
25D
100
AcDbEntity
  8
maße
  6
ByLayer
 62
  256
370
   -1
100
AcDbDimension
  2
*D16
 10
26.3
 20
5
 30
0
 11
26.1
 21
5.2
 31
0
 70
   33
 71
    5
  3
Standard
 53
0
210
0
220
0
230
1
100
AcDbAlignedDimension
 13
26
 23
5.4
 33
0
 14
26
 24
5
 34
0
  0
DIMENSION
  5
25E
100
AcDbEntity
  8
maße
  6
ByLayer
 62
  256
370
   -1
100
AcDbDimension
  2
*D17
 10
23.6
 20
16
 30
0
 11
23.8
 21
16.2
 31
0
 70
   33
 71
    5
  3
Standard
 53
0
210
0
220
0
230
1
100
AcDbAlignedDimension
 13
24
 23
15
 33
0
 14
23.6
 24
15
 34
0
  0
DIMENSION
  5
25F
100
AcDbEntity
  8
maße
  6
ByLayer
 62
  256
370
   -1
100
AcDbDimension
  2
*D18
 10
21.2
 20
16
 30
0
 11
21.4
 21
16.2
 31
0
 70
   33
 71
    5
  3
Standard
 53
0
210
0
220
0
230
1
100
AcDbAlignedDimension
 13
21.6
 23
15
 33
0
 14
21.2
 24
15
 34
0
  0
DIMENSION
  5
260
100
AcDbEntity
  8
maße
  6
ByLayer
 62
  256
370
   -1
100
AcDbDimension
  2
*D19
 10
20.8
 20
1.81238470778675e-16
 30
0
 11
20.6
 21
7.5
 31
0
 70
   33
 71
    5
  3
Standard
 53
0
210
0
220
0
230
1
100
AcDbAlignedDimension
 13
21.2
 23
15
 33
0
 14
21.2
 24
2.775557561562891e-17
 34
0
  0
LINE
  5
261
100
AcDbEntity
  8
0
  6
ByLayer
 62
  256
370
   -1
100
AcDbLine
 10
24
 20
1.942890293094024e-16
 11
23.6
 21
1.942890293094024e-16
  0
LINE
  5
262
100
AcDbEntity
  8
0
  6
ByLayer
 62
  256
370
   -1
100
AcDbLine
 10
21.6
 20
1.942890293094024e-16
 11
21.2
 21
1.942890293094024e-16
  0
LINE
  5
263
100
AcDbEntity
  8
0
  6
ByLayer
 62
  256
370
   -1
100
AcDbLine
 10
24
 20
15
 11
23.6
 21
15
  0
LINE
  5
264
100
AcDbEntity
  8
0
  6
ByLayer
 62
  256
370
   -1
100
AcDbLine
 10
21.6
 20
15
 11
21.2
 21
15
  0
LINE
  5
265
100
AcDbEntity
  8
0
  6
ByLayer
 62
  256
370
   -1
100
AcDbLine
 10
24
 20
5
 11
24
 21
3.5
  0
LINE
  5
266
100
AcDbEntity
  8
0
  6
ByLayer
 62
  256
370
   -1
100
AcDbLine
 10
24
 20
5.4
 11
24
 21
5
  0
LINE
  5
267
100
AcDbEntity
  8
0
  6
ByLayer
 62
  256
370
   -1
100
AcDbLine
 10
24
 20
5.4
 11
24
 21
5
  0
LINE
  5
268
100
AcDbEntity
  8
0
  6
ByLayer
 62
  256
370
   -1
100
AcDbLine
 10
24
 20
3.5
 11
24
 21
5
  0
LINE
  5
269
100
AcDbEntity
  8
0
  6
ByLayer
 62
  256
370
   -1
100
AcDbLine
 10
24
 20
15
 11
23.6
 21
15
  0
LINE
  5
26A
100
AcDbEntity
  8
0
  6
ByLayer
 62
  256
370
   -1
100
AcDbLine
 10
21.6
 20
15
 11
21.2
 21
15
  0
DIMENSION
  5
26B
100
AcDbEntity
  8
maße
  6
ByLayer
 62
  256
370
   -1
100
AcDbDimension
  2
*D20
 10
21.6
 20
14.6
 30
0
 11
22.6
 21
14.8
 31
0
 70
   33
 71
    5
  3
Standard
 53
0
210
0
220
0
230
1
100
AcDbAlignedDimension
 13
23.6
 23
15
 33
0
 14
21.6
 24
15
 34
0
  0
DIMENSION
  5
26C
100
AcDbEntity
  8
maße
  6
ByLayer
 62
  256
370
   -1
100
AcDbDimension
  2
*D21
 10
26.4
 20
-0.4
 30
0
 11
26.2
 21
-0.2
 31
0
 70
   32
 71
    5
  3
Standard
 53
0
210
0
220
0
230
1
100
AcDbAlignedDimension
 13
26.1
 23
5.551115123125783e-17
 33
0
 14
26.1
 24
-0.4
 34
0
 50
90
100
AcDbRotatedDimension
  0
LINE
  5
26D
100
AcDbEntity
  8
0
  6
ByLayer
 62
  256
370
   -1
100
AcDbLine
 10
32
 20
0
 11
34.8
 21
0
  0
LINE
  5
26E
100
AcDbEntity
  8
0
  6
ByLayer
 62
  256
370
   -1
100
AcDbLine
 10
34.8
 20
0
 11
34.8
 21
15
  0
LINE
  5
26F
100
AcDbEntity
  8
0
  6
ByLayer
 62
  256
370
   -1
100
AcDbLine
 10
34.8
 20
15
 11
32
 21
15
  0
LINE
  5
270
100
AcDbEntity
  8
0
  6
ByLayer
 62
  256
370
   -1
100
AcDbLine
 10
32
 20
0
 11
32
 21
15
  0
LINE
  5
271
100
AcDbEntity
  8
0
  6
ByLayer
 62
  256
370
   -1
100
AcDbLine
 10
29.9
 20
0
 11
32
 21
0
  0
LINE
  5
272
100
AcDbEntity
  8
0
  6
ByLayer
 62
  256
370
   -1
100
AcDbLine
 10
32
 20
0
 11
29.9
 21
0
  0
LINE
  5
273
100
AcDbEntity
  8
0
  6
ByLayer
 62
  256
370
   -1
100
AcDbLine
 10
29.9
 20
0
 11
29.9
 21
-0.3999999999999986
  0
LINE
  5
274
100
AcDbEntity
  8
0
  6
ByLayer
 62
  256
370
   -1
100
AcDbLine
 10
29.9
 20
-0.3999999999999986
 11
36.9
 21
-0.3999999999999986
  0
LINE
  5
275
100
AcDbEntity
  8
0
  6
ByLayer
 62
  256
370
   -1
100
AcDbLine
 10
36.9
 20
-0.3999999999999986
 11
36.9
 21
0
  0
LINE
  5
276
100
AcDbEntity
  8
0
  6
ByLayer
 62
  256
370
   -1
100
AcDbLine
 10
36.9
 20
0
 11
29.9
 21
0
  0
LINE
  5
277
100
AcDbEntity
  8
0
  6
ByLayer
 62
  256
370
   -1
100
AcDbLine
 10
32
 20
0
 11
32.4
 21
0
  0
LINE
  5
278
100
AcDbEntity
  8
0
  6
ByLayer
 62
  256
370
   -1
100
AcDbLine
 10
32
 20
5
 11
32
 21
3.5
  0
DIMENSION
  5
279
100
AcDbEntity
  8
maße
  6
ByLayer
 62
  256
370
   -1
100
AcDbDimension
  2
*D22
 10
37.3
 20
-0.3999999999999986
 30
0
 11
37.09999999999999
 21
-0.1999999999999993
 31
0
 70
   33
 71
    5
  3
Standard
 53
0
210
0
220
0
230
1
100
AcDbAlignedDimension
 13
36.90000000000001
 23
0
 33
0
 14
36.90000000000001
 24
-0.3999999999999986
 34
0
  0
DIMENSION
  5
27A
100
AcDbEntity
  8
maße
  6
ByLayer
 62
  256
370
   -1
100
AcDbDimension
  2
*D23
 10
34.8
 20
15.3
 30
0
 11
33.4
 21
15.5
 31
0
 70
   33
 71
    5
  3
Standard
 53
0
210
0
220
0
230
1
100
AcDbAlignedDimension
 13
32
 23
15
 33
0
 14
34.8
 24
15
 34
0
  0
DIMENSION
  5
27B
100
AcDbEntity
  8
maße
  6
ByLayer
 62
  256
370
   -1
100
AcDbDimension
  2
*D24
 10
35.2
 20
0
 30
0
 11
35
 21
7.5
 31
0
 70
   33
 71
    5
  3
Standard
 53
0
210
0
220
0
230
1
100
AcDbAlignedDimension
 13
34.8
 23
15
 33
0
 14
34.8
 24
0
 34
0
  0
LINE
  5
27C
100
AcDbEntity
  8
0
  6
ByLayer
 62
  256
370
   -1
100
AcDbLine
 10
32
 20
0
 11
32.4
 21
0
  0
LINE
  5
27D
100
AcDbEntity
  8
0
  6
ByLayer
 62
  256
370
   -1
100
AcDbLine
 10
34.4
 20
0
 11
34.8
 21
0
  0
LINE
  5
27E
100
AcDbEntity
  8
0
  6
ByLayer
 62
  256
370
   -1
100
AcDbLine
 10
32
 20
15
 11
32.4
 21
15
  0
LINE
  5
27F
100
AcDbEntity
  8
0
  6
ByLayer
 62
  256
370
   -1
100
AcDbLine
 10
34.4
 20
15
 11
34.8
 21
15
  0
LINE
  5
280
100
AcDbEntity
  8
0
  6
ByLayer
 62
  256
370
   -1
100
AcDbLine
 10
32
 20
5
 11
32
 21
3.5
  0
LINE
  5
281
100
AcDbEntity
  8
0
  6
ByLayer
 62
  256
370
   -1
100
AcDbLine
 10
32
 20
5.4
 11
32
 21
5
  0
LINE
  5
282
100
AcDbEntity
  8
0
  6
ByLayer
 62
  256
370
   -1
100
AcDbLine
 10
32
 20
5.4
 11
32
 21
5
  0
LINE
  5
283
100
AcDbEntity
  8
0
  6
ByLayer
 62
  256
370
   -1
100
AcDbLine
 10
32
 20
3.5
 11
32
 21
5
  0
LINE
  5
284
100
AcDbEntity
  8
0
  6
ByLayer
 62
  256
370
   -1
100
AcDbLine
 10
32
 20
15
 11
32.4
 21
15
  0
LINE
  5
285
100
AcDbEntity
  8
0
  6
ByLayer
 62
  256
370
   -1
100
AcDbLine
 10
34.4
 20
15
 11
34.8
 21
15
  0
LINE
  5
286
100
AcDbEntity
  8
0
  6
DASHED2
 62
  256
370
   -1
100
AcDbLine
 10
32.4
 20
0
 11
32.4
 21
15
  0
LINE
  5
287
100
AcDbEntity
  8
0
  6
DASHED2
 62
  256
370
   -1
100
AcDbLine
 10
34.4
 20
0
 11
34.4
 21
15
  0
DIMENSION
  5
288
100
AcDbEntity
  8
maße
  6
ByLayer
 62
  256
370
   -1
100
AcDbDimension
  2
*D25
 10
33.67
 20
5.960000000000001
 30
0
 11
33.40000000000001
 21
6.160000000000001
 31
0
 70
   32
 71
    5
  3
Standard
 53
0
210
0
220
0
230
1
100
AcDbAlignedDimension
 13
33.13
 23
5.670000000000001
 33
0
 14
33.67
 24
5.670000000000001
 34
0
100
AcDbRotatedDimension
  0
LINE
  5
289
100
AcDbEntity
  8
0
  6
DASHED2
 62
  256
370
   -1
100
AcDbLine
 10
32
 20
5
 11
34.8
 21
5
  0
LINE
  5
28A
100
AcDbEntity
  8
0
  6
DASHED2
 62
  256
370
   -1
100
AcDbLine
 10
34.8
 20
5.4
 11
32
 21
5.4
  0
LINE
  5
28B
100
AcDbEntity
  8
0
  6
DASHED2
 62
  256
370
   -1
100
AcDbLine
 10
33.60000000000001
 20
3.5
 11
33.60000000000001
 21
5
  0
LINE
  5
28C
100
AcDbEntity
  8
0
  6
DASHED2
 62
  256
370
   -1
100
AcDbLine
 10
33.2
 20
3.5
 11
33.60000000000001
 21
3.5
  0
LINE
  5
28D
100
AcDbEntity
  8
0
  6
DASHED2
 62
  256
370
   -1
100
AcDbLine
 10
33.2
 20
3.5
 11
33.2
 21
5
  0
DIMENSION
  5
28E
100
AcDbEntity
  8
maße
  6
ByLayer
 62
  256
370
   -1
100
AcDbDimension
  2
*D26
 10
0.9000000000000001
 20
3.5
 30
0
 11
0.7000000000000002
 21
4.25
 31
0
 70
   33
 71
    5
  3
Standard
 53
0
210
0
220
0
230
1
100
AcDbAlignedDimension
 13
1.110223024625157e-16
 23
5
 33
0
 14
1.110223024625157e-16
 24
3.5
 34
0
  0
DIMENSION
  5
28F
100
AcDbEntity
  8
maße
  6
ByLayer
 62
  256
370
   -1
100
AcDbDimension
  2
*D27
 10
23.1
 20
3.5
 30
0
 11
22.9
 21
4.25
 31
0
 70
   33
 71
    5
  3
Standard
 53
0
210
0
220
0
230
1
100
AcDbAlignedDimension
 13
24
 23
5
 33
0
 14
24
 24
3.5
 34
0
  0
DIMENSION
  5
290
100
AcDbEntity
  8
maße
  6
ByLayer
 62
  256
370
   -1
100
AcDbDimension
  2
*D28
 10
24
 20
3.5
 30
0
 11
0
 21
0
 31
0
 70
   34
 71
    5
  3
Standard
 53
0
210
0
220
0
230
1
100
AcDb2LineAngularDimension
 13
24
 23
5
 33
0
 14
26
 24
5
 34
0
 15
24
 25
5
 35
0
 16
24.4
 26
4.6
 36
0
  0
DIMENSION
  5
291
100
AcDbEntity
  8
maße
  6
ByLayer
 62
  256
370
   -1
100
AcDbDimension
  2
*D29
 10
0
 20
15
 30
0
 11
0
 21
0
 31
0
 70
   34
 71
    5
  3
Standard
 53
0
210
0
220
0
230
1
100
AcDb2LineAngularDimension
 13
0
 23
5
 33
0
 14
-2
 24
5
 34
0
 15
0
 25
0
 35
0
 16
-0.2999999999999994
 26
4.5
 36
0
  0
CIRCLE
  5
292
100
AcDbEntity
  8
0
  6
ByLayer
 62
  256
370
   -1
100
AcDbCircle
 10
11.4
 20
5.670000000000001
 40
0.2700000000000031
  0
CIRCLE
  5
293
100
AcDbEntity
  8
0
  6
ByLayer
 62
  256
370
   -1
100
AcDbCircle
 10
33.39999999999999
 20
5.670000000000001
 40
0.2700000000000031
  0
MTEXT
  5
294
100
AcDbEntity
  8
text
  6
ByLayer
 62
  256
370
   -1
100
AcDbMText
 10
9.555555555555555
 20
-2
 30
0
 40
1
 41
3.33333333333338
 71
    1
 72
    1
  1
Front
  7
STANDARD
210
0
220
0
230
1
 50
0
 73
    2
 44
1
  0
MTEXT
  5
295
100
AcDbEntity
  8
text
  6
ByLayer
 62
  256
370
   -1
100
AcDbMText
 10
-0.2222222222222221
 20
-2
 30
0
 40
1
 41
3.111111111111251
 71
    1
 72
    1
  1
Right
  7
STANDARD
210
0
220
0
230
1
 50
0
 73
    2
 44
1
  0
MTEXT
  5
296
100
AcDbEntity
  8
text
  6
ByLayer
 62
  256
370
   -1
100
AcDbMText
 10
21.22222222222222
 20
-2
 30
0
 40
1
 41
2.555555555555602
 71
    1
 72
    1
  1
Left
  7
STANDARD
210
0
220
0
230
1
 50
0
 73
    2
 44
1
  0
MTEXT
  5
297
100
AcDbEntity
  8
text
  6
ByLayer
 62
  256
370
   -1
100
AcDbMText
 10
32.33333333333329
 20
-2
 30
0
 40
1
 41
2.777777777777871
 71
    1
 72
    1
  1
Back
  7
STANDARD
210
0
220
0
230
1
 50
0
 73
    2
 44
1
  0
DIMENSION
  5
298
100
AcDbEntity
  8
maße
  6
ByLayer
 62
  256
370
   -1
100
AcDbDimension
  2
*D30
 10
0
 20
15
 30
0
 11
0
 21
0
 31
0
 70
   34
 71
    5
  3
Standard
 53
0
210
0
220
0
230
1
100
AcDb2LineAngularDimension
 13
0
 23
0
 33
0
 14
-2.1
 24
0
 34
0
 15
0
 25
0
 35
0
 16
-0.2000000000000003
 26
0.4
 36
0
  0
DIMENSION
  5
299
100
AcDbEntity
  8
maße
  6
ByLayer
 62
  256
370
   -1
100
AcDbDimension
  2
*D31
 10
10
 20
15
 30
0
 11
0
 21
0
 31
0
 70
   34
 71
    5
  3
Standard
 53
0
210
0
220
0
230
1
100
AcDb2LineAngularDimension
 13
7.899999999999999
 23
0
 33
0
 14
14.9
 24
0
 34
0
 15
10
 25
0
 35
0
 16
9.600000000000001
 26
0.4999999999999999
 36
0
  0
DIMENSION
  5
29A
100
AcDbEntity
  8
maße
  6
ByLayer
 62
  256
370
   -1
100
AcDbDimension
  2
*D32
 10
24
 20
15
 30
0
 11
0
 21
0
 31
0
 70
   34
 71
    5
  3
Standard
 53
0
210
0
220
0
230
1
100
AcDb2LineAngularDimension
 13
26.1
 23
0
 33
0
 14
19.1
 24
0
 34
0
 15
24
 25
0
 35
0
 16
24.2
 26
0.5999999999999999
 36
0
  0
DIMENSION
  5
29B
100
AcDbEntity
  8
maße
  6
ByLayer
 62
  256
370
   -1
100
AcDbDimension
  2
*D33
 10
32
 20
15
 30
0
 11
0
 21
0
 31
0
 70
   34
 71
    5
  3
Standard
 53
0
210
0
220
0
230
1
100
AcDb2LineAngularDimension
 13
29.9
 23
0
 33
0
 14
36.9
 24
0
 34
0
 15
32
 25
0
 35
0
 16
31.7
 26
0.6000000000000001
 36
0
  0
DIMENSION
  5
29C
100
AcDbEntity
  8
maße
  6
ByLayer
 62
  256
370
   -1
100
AcDbDimension
  2
*D34
 10
11.2
 20
3.5
 30
0
 11
0
 21
0
 31
0
 70
   34
 71
    5
  3
Standard
 53
0
210
0
220
0
230
1
100
AcDb2LineAngularDimension
 13
10
 23
5
 33
0
 14
12.8
 24
5
 34
0
 15
11.2
 25
5
 35
0
 16
10.9
 26
4.5
 36
0
  0
LINE
  5
29D
100
AcDbEntity
  8
0
  6
ByLayer
 62
  256
370
   -1
100
AcDbLine
 10
14.9
 20
-5.799999999999999
 11
7.9
 21
-5.799999999999999
  0
LINE
  5
29E
100
AcDbEntity
  8
0
  6
ByLayer
 62
  256
370
   -1
100
AcDbLine
 10
7.9
 20
-5.8
 11
7.9
 21
-12.8
  0
LINE
  5
29F
100
AcDbEntity
  8
0
  6
ByLayer
 62
  256
370
   -1
100
AcDbLine
 10
7.9
 20
-12.8
 11
14.9
 21
-12.8
  0
LINE
  5
2A0
100
AcDbEntity
  8
0
  6
ByLayer
 62
  256
370
   -1
100
AcDbLine
 10
14.9
 20
-12.8
 11
14.9
 21
-5.799999999999998
  0
LINE
  5
2A1
100
AcDbEntity
  8
0
  6
ByLayer
 62
  256
370
   -1
100
AcDbLine
 10
10
 20
-7.899999999999999
 11
12.8
 21
-7.899999999999999
  0
LINE
  5
2A2
100
AcDbEntity
  8
0
  6
ByLayer
 62
  256
370
   -1
100
AcDbLine
 10
12.8
 20
-7.899999999999999
 11
12.8
 21
-8.299999999999999
  0
LINE
  5
2A3
100
AcDbEntity
  8
0
  6
ByLayer
 62
  256
370
   -1
100
AcDbLine
 10
12.8
 20
-8.299999999999999
 11
10
 21
-8.299999999999999
  0
LINE
  5
2A4
100
AcDbEntity
  8
0
  6
ByLayer
 62
  256
370
   -1
100
AcDbLine
 10
10
 20
-8.299999999999999
 11
10
 21
-7.899999999999999
  0
LINE
  5
2A5
100
AcDbEntity
  8
0
  6
ByLayer
 62
  256
370
   -1
100
AcDbLine
 10
12.8
 20
-8.299999999999999
 11
12.4
 21
-8.299999999999999
  0
LINE
  5
2A6
100
AcDbEntity
  8
0
  6
ByLayer
 62
  256
370
   -1
100
AcDbLine
 10
12.4
 20
-8.299999999999999
 11
12.4
 21
-10.3
  0
LINE
  5
2A7
100
AcDbEntity
  8
0
  6
ByLayer
 62
  256
370
   -1
100
AcDbLine
 10
12.4
 20
-10.3
 11
12.8
 21
-10.3
  0
LINE
  5
2A8
100
AcDbEntity
  8
0
  6
ByLayer
 62
  256
370
   -1
100
AcDbLine
 10
12.8
 20
-10.3
 11
12.8
 21
-8.299999999999999
  0
LINE
  5
2A9
100
AcDbEntity
  8
0
  6
ByLayer
 62
  256
370
   -1
100
AcDbLine
 10
10
 20
-8.299999999999999
 11
10.4
 21
-8.299999999999999
  0
LINE
  5
2AA
100
AcDbEntity
  8
0
  6
ByLayer
 62
  256
370
   -1
100
AcDbLine
 10
10.4
 20
-8.299999999999999
 11
10.4
 21
-10.3
  0
LINE
  5
2AB
100
AcDbEntity
  8
0
  6
ByLayer
 62
  256
370
   -1
100
AcDbLine
 10
10.4
 20
-10.3
 11
10
 21
-10.3
  0
LINE
  5
2AC
100
AcDbEntity
  8
0
  6
ByLayer
 62
  256
370
   -1
100
AcDbLine
 10
10
 20
-10.3
 11
10
 21
-8.299999999999999
  0
LINE
  5
2AD
100
AcDbEntity
  8
0
  6
ByLayer
 62
  256
370
   -1
100
AcDbLine
 10
10
 20
-10.3
 11
12.8
 21
-10.3
  0
LINE
  5
2AE
100
AcDbEntity
  8
0
  6
ByLayer
 62
  256
370
   -1
100
AcDbLine
 10
12.8
 20
-10.3
 11
12.8
 21
-10.7
  0
LINE
  5
2AF
100
AcDbEntity
  8
0
  6
ByLayer
 62
  256
370
   -1
100
AcDbLine
 10
12.8
 20
-10.7
 11
10
 21
-10.7
  0
LINE
  5
2B0
100
AcDbEntity
  8
0
  6
ByLayer
 62
  256
370
   -1
100
AcDbLine
 10
10
 20
-10.7
 11
10
 21
-10.3
  0
LINE
  5
2B1
100
AcDbEntity
  8
0
  6
ByLayer
 62
  256
370
   -1
100
AcDbLine
 10
10
 20
-10.7
 11
10
 21
-12.7
  0
LINE
  5
2B2
100
AcDbEntity
  8
0
  6
ByLayer
 62
  256
370
   -1
100
AcDbLine
 10
10
 20
-12.7
 11
12.8
 21
-12.7
  0
LINE
  5
2B3
100
AcDbEntity
  8
0
  6
ByLayer
 62
  256
370
   -1
100
AcDbLine
 10
12.8
 20
-12.7
 11
12.8
 21
-10.7
  0
LINE
  5
2B4
100
AcDbEntity
  8
0
  6
ByLayer
 62
  256
370
   -1
100
AcDbLine
 10
12.8
 20
-10.7
 11
10
 21
-10.7
  0
LINE
  5
2B5
100
AcDbEntity
  8
maße
  6
ByLayer
 62
  256
370
   -1
100
AcDbLine
 10
11.6
 20
-10.7
 11
11.2
 21
-10.7
  0
LINE
  5
2B6
100
AcDbEntity
  8
maße
  6
ByLayer
 62
  256
370
   -1
100
AcDbLine
 10
11.2
 20
-12.7
 11
11.6
 21
-12.7
  0
LINE
  5
2B7
100
AcDbEntity
  8
maße
  6
ByLayer
 62
  256
370
   -1
100
AcDbLine
 10
11.15
 20
-10.3
 11
11.65
 21
-10.3
  0
LINE
  5
2B8
100
AcDbEntity
  8
maße
  6
ByLayer
 62
  256
370
   -1
100
AcDbLine
 10
11.65
 20
-10.7
 11
11.15
 21
-10.7
  0
LINE
  5
2B9
100
AcDbEntity
  8
0
  6
DOT2
 62
  256
370
   -1
100
AcDbLine
 10
11.2
 20
-10.7
 11
11.2
 21
-12.7
  0
LINE
  5
2BA
100
AcDbEntity
  8
0
  6
DOT2
 62
  256
370
   -1
100
AcDbLine
 10
11.6
 20
-12.7
 11
11.6
 21
-10.7
  0
LINE
  5
2BB
100
AcDbEntity
  8
0
  6
DOT2
 62
  256
370
   -1
100
AcDbLine
 10
11.15
 20
-10.7
 11
11.15
 21
-10.3
  0
LINE
  5
2BC
100
AcDbEntity
  8
0
  6
DOT2
 62
  256
370
   -1
100
AcDbLine
 10
11.65
 20
-10.3
 11
11.65
 21
-10.7
  0
DIMENSION
  5
2BD
100
AcDbEntity
  8
maße
  6
ByLayer
 62
  256
370
   -1
100
AcDbDimension
  2
*D35
 10
14.9
 20
-5.599999999999998
 30
0
 11
11.4
 21
-5.399999999999999
 31
0
 70
   33
 71
    5
  3
Standard
 53
0
210
0
220
0
230
1
100
AcDbAlignedDimension
 13
7.9
 23
-5.8
 33
0
 14
14.9
 24
-5.799999999999998
 34
0
  0
DIMENSION
  5
2BE
100
AcDbEntity
  8
maße
  6
ByLayer
 62
  256
370
   -1
100
AcDbDimension
  2
*D36
 10
7.7
 20
-12.8
 30
0
 11
7.5
 21
-9.300000000000001
 31
0
 70
   33
 71
    5
  3
Standard
 53
0
210
0
220
0
230
1
100
AcDbAlignedDimension
 13
7.9
 23
-5.799999999999999
 33
0
 14
7.9
 24
-12.8
 34
0
  0
DIMENSION
  5
2BF
100
AcDbEntity
  8
maße
  6
ByLayer
 62
  256
370
   -1
100
AcDbDimension
  2
*D37
 10
12.8
 20
-7.599999999999999
 30
0
 11
11.4
 21
-7.399999999999999
 31
0
 70
   33
 71
    5
  3
Standard
 53
0
210
0
220
0
230
1
100
AcDbAlignedDimension
 13
10
 23
-7.899999999999999
 33
0
 14
12.8
 24
-7.899999999999999
 34
0
  0
DIMENSION
  5
2C0
100
AcDbEntity
  8
maße
  6
ByLayer
 62
  256
370
   -1
100
AcDbDimension
  2
*D38
 10
9.800000000000001
 20
-8.299999999999999
 30
0
 11
9.600000000000001
 21
-8.1
 31
0
 70
   33
 71
    5
  3
Standard
 53
0
210
0
220
0
230
1
100
AcDbAlignedDimension
 13
10
 23
-7.9
 33
0
 14
10
 24
-8.299999999999999
 34
0
  0
DIMENSION
  5
2C1
100
AcDbEntity
  8
maße
  6
ByLayer
 62
  256
370
   -1
100
AcDbDimension
  2
*D39
 10
9.800000000000001
 20
-10.7
 30
0
 11
9.600000000000001
 21
-10.5
 31
0
 70
   33
 71
    5
  3
Standard
 53
0
210
0
220
0
230
1
100
AcDbAlignedDimension
 13
10
 23
-10.3
 33
0
 14
10
 24
-10.7
 34
0
  0
DIMENSION
  5
2C2
100
AcDbEntity
  8
maße
  6
ByLayer
 62
  256
370
   -1
100
AcDbDimension
  2
*D40
 10
13.1
 20
-10.3
 30
0
 11
12.9
 21
-9.300000000000001
 31
0
 70
   33
 71
    5
  3
Standard
 53
0
210
0
220
0
230
1
100
AcDbAlignedDimension
 13
12.8
 23
-8.299999999999999
 33
0
 14
12.8
 24
-10.3
 34
0
  0
DIMENSION
  5
2C3
100
AcDbEntity
  8
maße
  6
ByLayer
 62
  256
370
   -1
100
AcDbDimension
  2
*D41
 10
12.8
 20
-13.1
 30
0
 11
11.4
 21
-12.9
 31
0
 70
   33
 71
    5
  3
Standard
 53
0
210
0
220
0
230
1
100
AcDbAlignedDimension
 13
10
 23
-12.7
 33
0
 14
12.8
 24
-12.7
 34
0
  0
DIMENSION
  5
2C4
100
AcDbEntity
  8
maße
  6
ByLayer
 62
  256
370
   -1
100
AcDbDimension
  2
*D42
 10
12.4
 20
-8.6
 30
0
 11
11.4
 21
-8.4
 31
0
 70
   33
 71
    5
  3
Standard
 53
0
210
0
220
0
230
1
100
AcDbAlignedDimension
 13
10.4
 23
-8.299999999999999
 33
0
 14
12.4
 24
-8.299999999999999
 34
0
  0
MTEXT
  5
2C5
100
AcDbEntity
  8
text
  6
ByLayer
 62
  256
370
   -1
100
AcDbMText
 10
9.777777777777779
 20
-14.8
 30
0
 40
1
 41
2.111111111111111
 71
    1
 72
    1
  1
Top
  7
STANDARD
210
0
220
0
230
1
 50
0
 73
    2
 44
1
  0
LINE
  5
2C6
100
AcDbEntity
  8
0
  6
ByLayer
 62
  256
370
   -1
100
AcDbLine
 10
14.8
 20
29.2
 11
7.800000000000001
 21
29.2
  0
LINE
  5
2C7
100
AcDbEntity
  8
0
  6
ByLayer
 62
  256
370
   -1
100
AcDbLine
 10
7.800000000000001
 20
29.2
 11
7.800000000000001
 21
22.2
  0
LINE
  5
2C8
100
AcDbEntity
  8
0
  6
ByLayer
 62
  256
370
   -1
100
AcDbLine
 10
7.800000000000001
 20
22.2
 11
14.8
 21
22.2
  0
LINE
  5
2C9
100
AcDbEntity
  8
0
  6
ByLayer
 62
  256
370
   -1
100
AcDbLine
 10
14.8
 20
22.2
 11
14.8
 21
29.2
  0
DIMENSION
  5
2CA
100
AcDbEntity
  8
maße
  6
ByLayer
 62
  256
370
   -1
100
AcDbDimension
  2
*D43
 10
14.8
 20
29.4
 30
0
 11
11.3
 21
29.6
 31
0
 70
   33
 71
    5
  3
Standard
 53
0
210
0
220
0
230
1
100
AcDbAlignedDimension
 13
7.800000000000001
 23
29.2
 33
0
 14
14.8
 24
29.2
 34
0
  0
DIMENSION
  5
2CB
100
AcDbEntity
  8
maße
  6
ByLayer
 62
  256
370
   -1
100
AcDbDimension
  2
*D44
 10
7.600000000000001
 20
22.2
 30
0
 11
7.400000000000001
 21
25.7
 31
0
 70
   33
 71
    5
  3
Standard
 53
0
210
0
220
0
230
1
100
AcDbAlignedDimension
 13
7.800000000000001
 23
29.2
 33
0
 14
7.800000000000001
 24
22.2
 34
0
  0
MTEXT
  5
2CC
100
AcDbEntity
  8
text
  6
ByLayer
 62
  256
370
   -1
100
AcDbMText
 10
9.677777777777779
 20
20.2
 30
0
 40
1
 41
4.444444444444491
 71
    1
 72
    1
  1
Bottom
  7
STANDARD
210
0
220
0
230
1
 50
0
 73
    2
 44
1
  0
LINE
  5
2CD
100
AcDbEntity
  8
0
  6
DASHED2
 62
  256
370
   -1
100
AcDbLine
 10
9.9
 20
27.1
 11
12.7
 21
27.1
  0
LINE
  5
2CE
100
AcDbEntity
  8
0
  6
DASHED2
 62
  256
370
   -1
100
AcDbLine
 10
12.7
 20
27.1
 11
12.7
 21
26.7
  0
LINE
  5
2CF
100
AcDbEntity
  8
0
  6
DASHED2
 62
  256
370
   -1
100
AcDbLine
 10
12.7
 20
26.7
 11
9.9
 21
26.7
  0
LINE
  5
2D0
100
AcDbEntity
  8
0
  6
DASHED2
 62
  256
370
   -1
100
AcDbLine
 10
9.9
 20
26.7
 11
9.9
 21
27.1
  0
LINE
  5
2D1
100
AcDbEntity
  8
0
  6
DASHED2
 62
  256
370
   -1
100
AcDbLine
 10
12.7
 20
26.7
 11
12.3
 21
26.7
  0
LINE
  5
2D2
100
AcDbEntity
  8
0
  6
DASHED2
 62
  256
370
   -1
100
AcDbLine
 10
12.3
 20
26.7
 11
12.3
 21
24.7
  0
LINE
  5
2D3
100
AcDbEntity
  8
0
  6
DASHED2
 62
  256
370
   -1
100
AcDbLine
 10
12.3
 20
24.7
 11
12.7
 21
24.7
  0
LINE
  5
2D4
100
AcDbEntity
  8
0
  6
DASHED2
 62
  256
370
   -1
100
AcDbLine
 10
12.7
 20
24.7
 11
12.7
 21
26.7
  0
LINE
  5
2D5
100
AcDbEntity
  8
0
  6
DASHED2
 62
  256
370
   -1
100
AcDbLine
 10
9.9
 20
26.7
 11
10.3
 21
26.7
  0
LINE
  5
2D6
100
AcDbEntity
  8
0
  6
DASHED2
 62
  256
370
   -1
100
AcDbLine
 10
10.3
 20
26.7
 11
10.3
 21
24.7
  0
LINE
  5
2D7
100
AcDbEntity
  8
0
  6
DASHED2
 62
  256
370
   -1
100
AcDbLine
 10
10.3
 20
24.7
 11
9.9
 21
24.7
  0
LINE
  5
2D8
100
AcDbEntity
  8
0
  6
DASHED2
 62
  256
370
   -1
100
AcDbLine
 10
9.9
 20
24.7
 11
9.9
 21
26.7
  0
LINE
  5
2D9
100
AcDbEntity
  8
0
  6
DASHED2
 62
  256
370
   -1
100
AcDbLine
 10
9.9
 20
24.7
 11
12.7
 21
24.7
  0
LINE
  5
2DA
100
AcDbEntity
  8
0
  6
DASHED2
 62
  256
370
   -1
100
AcDbLine
 10
12.7
 20
24.7
 11
12.7
 21
24.3
  0
LINE
  5
2DB
100
AcDbEntity
  8
0
  6
DASHED2
 62
  256
370
   -1
100
AcDbLine
 10
12.7
 20
24.3
 11
9.9
 21
24.3
  0
LINE
  5
2DC
100
AcDbEntity
  8
0
  6
DASHED2
 62
  256
370
   -1
100
AcDbLine
 10
9.9
 20
24.3
 11
9.9
 21
24.7
  0
LINE
  5
2DD
100
AcDbEntity
  8
0
  6
DASHED2
 62
  256
370
   -1
100
AcDbLine
 10
9.9
 20
24.3
 11
9.9
 21
22.3
  0
LINE
  5
2DE
100
AcDbEntity
  8
0
  6
DASHED2
 62
  256
370
   -1
100
AcDbLine
 10
9.9
 20
22.3
 11
12.7
 21
22.3
  0
LINE
  5
2DF
100
AcDbEntity
  8
0
  6
DASHED2
 62
  256
370
   -1
100
AcDbLine
 10
12.7
 20
22.3
 11
12.7
 21
24.3
  0
LINE
  5
2E0
100
AcDbEntity
  8
0
  6
DASHED2
 62
  256
370
   -1
100
AcDbLine
 10
12.7
 20
24.3
 11
9.9
 21
24.3
  0
LINE
  5
2E1
100
AcDbEntity
  8
maße
  6
DASHED2
 62
  256
370
   -1
100
AcDbLine
 10
11.5
 20
24.3
 11
11.1
 21
24.3
  0
LINE
  5
2E2
100
AcDbEntity
  8
maße
  6
DASHED2
 62
  256
370
   -1
100
AcDbLine
 10
11.1
 20
22.3
 11
11.5
 21
22.3
  0
LINE
  5
2E3
100
AcDbEntity
  8
maße
  6
DASHED2
 62
  256
370
   -1
100
AcDbLine
 10
11.05
 20
24.7
 11
11.55
 21
24.7
  0
LINE
  5
2E4
100
AcDbEntity
  8
maße
  6
DASHED2
 62
  256
370
   -1
100
AcDbLine
 10
11.55
 20
24.3
 11
11.05
 21
24.3
  0
LINE
  5
2E5
100
AcDbEntity
  8
0
  6
DASHED2
 62
  256
370
   -1
100
AcDbLine
 10
11.1
 20
24.3
 11
11.1
 21
22.3
  0
LINE
  5
2E6
100
AcDbEntity
  8
0
  6
DASHED2
 62
  256
370
   -1
100
AcDbLine
 10
11.5
 20
22.3
 11
11.5
 21
24.3
  0
LINE
  5
2E7
100
AcDbEntity
  8
0
  6
DASHED2
 62
  256
370
   -1
100
AcDbLine
 10
11.05
 20
24.3
 11
11.05
 21
24.7
  0
LINE
  5
2E8
100
AcDbEntity
  8
0
  6
DASHED2
 62
  256
370
   -1
100
AcDbLine
 10
11.55
 20
24.7
 11
11.55
 21
24.3
  0
DIMENSION
  5
2E9
100
AcDbEntity
  8
maße
  6
ByLayer
 62
  256
370
   -1
100
AcDbDimension
  2
*D45
 10
4.899999999999999
 20
-0.8000000000000003
 30
0
 11
1.400000000000002
 21
-0.6000000000000003
 31
0
 70
   33
 71
    5
  3
Standard
 53
0
210
0
220
0
230
1
100
AcDbAlignedDimension
 13
-2.099999999999999
 23
-0.4000000000000002
 33
0
 14
4.900000000000001
 24
-0.4000000000000002
 34
0
  0
DIMENSION
  5
2EA
100
AcDbEntity
  8
maße
  6
ByLayer
 62
  256
370
   -1
100
AcDbDimension
  2
*D46
 10
36.90000000000001
 20
-0.8000000000000007
 30
0
 11
33.40000000000001
 21
-0.6000000000000008
 31
0
 70
   33
 71
    5
  3
Standard
 53
0
210
0
220
0
230
1
100
AcDbAlignedDimension
 13
29.9
 23
-0.3999999999999986
 33
0
 14
36.90000000000001
 24
-0.3999999999999986
 34
0
  0
DIMENSION
  5
2EB
100
AcDbEntity
  8
maße
  6
ByLayer
 62
  256
370
   -1
100
AcDbDimension
  2
*D47
 10
19.09999999999999
 20
-0.8000000000000047
 30
0
 11
22.59999999999999
 21
-0.6000000000000048
 31
0
 70
   33
 71
    5
  3
Standard
 53
0
210
0
220
0
230
1
100
AcDbAlignedDimension
 13
26.1
 23
-0.400000000000004
 33
0
 14
19.09999999999999
 24
-0.400000000000004
 34
0
  0
DIMENSION
  5
2EC
100
AcDbEntity
  8
maße
  6
ByLayer
 62
  256
370
   -1
100
AcDbDimension
  2
*D48
 10
14.90000000000001
 20
-0.8000000000000007
 30
0
 11
11.4
 21
-0.6000000000000008
 31
0
 70
   33
 71
    5
  3
Standard
 53
0
210
0
220
0
230
1
100
AcDbAlignedDimension
 13
7.899999999999999
 23
-0.3999999999999986
 33
0
 14
14.90000000000001
 24
-0.3999999999999986
 34
0
  0
DIMENSION
  5
2ED
100
AcDbEntity
  8
maße
  6
ByLayer
 62
  256
370
   -1
100
AcDbDimension
  2
*D49
 10
12.8
 20
2.7
 30
0
 11
12.2
 21
2.9
 31
0
 70
   32
 71
    5
  3
Standard
 53
0
210
0
220
0
230
1
100
AcDbAlignedDimension
 13
11.6
 23
5
 33
0
 14
12.8
 24
5
 34
0
100
AcDbRotatedDimension
  0
DIMENSION
  5
2EE
100
AcDbEntity
  8
maße
  6
ByLayer
 62
  256
370
   -1
100
AcDbDimension
  2
*D50
 10
11.6
 20
3.3
 30
0
 11
11.4
 21
3.5
 31
0
 70
   33
 71
    5
  3
Standard
 53
0
210
0
220
0
230
1
100
AcDbAlignedDimension
 13
11.2
 23
3.5
 33
0
 14
11.6
 24
3.5
 34
0
  0
ENDSEC
  0
SECTION
  2
OBJECTS
  0
DICTIONARY
  5
C
330
0
100
AcDbDictionary
281
    1
  3
ACAD_GROUP
350
D
  0
DICTIONARY
  5
D
330
C
100
AcDbDictionary
281
    1
  0
PLOTSETTINGS
  5
2EF
100
AcDbPlotSettings
  6
1x1
 40
0
 41
0
 42
0
 43
0
  0
ENDSEC
  0
EOF
